<?xml version="1.0" encoding="UTF-8"?>
<svg width="164px" height="146px" viewBox="0 0 164 146" version="1.1" xmlns="http://www.w3.org/2000/svg" xmlns:xlink="http://www.w3.org/1999/xlink">
    <!-- Generator: Sketch 60.1 (88133) - https://sketch.com -->
    <title>Group</title>
    <desc>Created with Sketch.</desc>
    <g id="Website" stroke="none" stroke-width="1" fill="none" fill-rule="evenodd">
        <g id="Login" transform="translate(-430.000000, -358.000000)" fill="#683100">
            <g id="Keys" transform="translate(421.000000, 344.000000)">
                <g id="Group" transform="translate(0.428571, 0.785714)">
                    <g id="Key" transform="translate(90.571429, 90.214286) rotate(-315.000000) translate(-90.571429, -90.214286) translate(57.000000, -3.000000)">
                        <path d="M27.3393977,160.002089 C26.9233263,159.328518 25.2158263,159.362446 24.7329692,159.864589 C25.3447549,159.989911 26.7004692,160.120268 27.3393977,160.002089 Z M23.2247549,158.081018 C22.975112,158.379553 22.1033263,158.057768 21.8536835,158.354911 C21.972612,158.877089 23.0154692,158.473518 23.3618977,158.767768 C23.4747549,158.379553 23.1683263,158.412411 23.2247549,158.081018 Z M10.3318977,20.519732 C9.81225488,22.1204463 7.40511203,22.2125892 6.7665406,20.7936606 C7.47761203,20.0258035 9.37689774,19.4658035 10.3318977,20.519732 Z M10.6072549,18.5990177 C10.4193977,19.8636606 7.23189774,19.874732 7.04118345,18.4615177 C8.04975488,18.1154463 9.49082631,18.3233035 10.6072549,18.5990177 Z M8.96082631,15.9936606 C9.92761203,15.8708035 11.9665406,15.9204463 11.9790647,16.5425892 C11.9879692,17.0550892 9.51868345,18.2215177 8.41225488,17.7761606 C7.09618345,17.2454463 7.87011203,16.1311606 8.96082631,15.9936606 Z M10.4693977,13.6615177 C12.0268977,13.447232 13.960112,13.9250892 15.2693977,14.0729463 C15.0097549,15.4454463 8.78546917,15.6950892 8.82368345,14.4840177 C8.83618345,14.0883035 10.3511835,13.6786606 10.4693977,13.6615177 Z M11.1554692,12.0165177 C15.042612,11.7729463 19.3990406,12.4183035 23.087612,12.1529463 C24.4111835,12.0579463 25.2340406,11.9086606 25.8304692,12.8390177 C24.2747549,13.5983035 22.4172549,12.8265177 20.7561835,12.8390177 C19.2579692,12.8493749 17.8990406,13.3658035 16.5043977,13.3875892 C15.9365406,13.3965177 15.2886835,13.0250892 14.7211835,13.1133035 C13.3533263,13.3258035 10.9040406,13.5190177 9.92082631,12.427232 C9.92868345,11.8386606 10.8893977,11.544732 11.1554692,12.0165177 Z M13.4868977,9.54651774 C14.187612,10.2043749 14.8843977,9.73651774 15.8186835,9.82080346 C16.4768977,9.88080346 17.1272549,10.232232 17.7393977,10.232232 C20.390112,10.2375892 24.4183263,9.27937489 26.1047549,10.9186606 C25.1658263,11.8243749 23.8011835,11.167232 22.8133263,11.1925892 C18.9268977,11.292232 15.0911835,11.4500892 11.1554692,10.7815177 C11.2872549,9.72508917 12.4118977,9.6611606 13.4868977,9.54651774 Z M14.3097549,7.62723203 C18.5922549,8.18937489 23.1640406,7.43330346 27.202612,8.17580346 L27.202612,8.99794631 C25.7547549,9.4711606 23.6204692,9.18044631 22.265112,9.13473203 C19.1836835,9.03544631 15.5483263,9.5036606 13.350112,8.44973203 C13.6508263,8.15580346 14.1115406,8.02330346 14.3097549,7.62723203 Z M29.9443977,5.84437489 C30.1111835,5.87223203 30.0293977,5.99580346 29.9443977,6.11758917 C27.7215406,7.40794631 25.0822549,6.92687489 22.265112,6.94151774 C20.2404692,6.9511606 17.6858263,7.40580346 15.8186835,6.39187489 C20.0647549,5.26080346 25.9736835,6.40758917 29.9443977,5.84437489 Z M58.8835763,23.262232 C59.0625049,24.1261606 58.5785763,24.3290177 58.4721477,24.9079463 C58.2596477,24.7733035 58.497862,23.5086606 58.8835763,23.262232 Z M23.4993977,4.47187489 C24.0104692,4.4861606 24.492612,4.2286606 25.0072549,4.19794631 C27.5093977,4.05044631 29.6490406,4.31080346 31.8658263,4.33508917 C34.130112,4.35973203 36.520362,4.35080346 38.7225049,4.47187489 C41.7767906,4.64187489 44.8667906,4.87937489 47.5007192,3.92401774 C43.8489335,3.97901774 40.5071477,3.50937489 37.2146477,3.78651774 C36.8721477,3.8086606 36.7889335,3.57044631 36.5282192,3.51258917 C33.9811835,3.82008917 31.4008263,3.64187489 29.2590406,3.51258917 C27.4079692,3.40080346 25.3247549,4.12294631 23.6365406,3.1011606 C25.9054692,2.47723203 28.1222549,3.28044631 30.2186835,3.1011606 C34.2093977,2.75901774 38.4239335,2.61258917 42.4257192,2.68937489 C42.6096477,2.46151774 43.1457192,2.58651774 43.1114335,2.14080346 C40.307862,2.20580346 37.5721477,1.94544631 34.4708263,1.86723203 C32.1786835,1.8086606 29.6536835,2.45580346 27.8883263,1.59294631 C31.535112,0.0140177434 37.6460763,1.20401774 41.0539335,1.18008917 C49.9871477,3.13223203 58.3721477,5.9136606 62.8617906,12.8390177 C63.3025049,14.7393749 64.6039335,17.7361606 65.7414335,20.107232 C65.7617906,22.5804463 66.490362,24.2633035 65.1932192,27.1029463 C64.7146477,27.504732 62.7342906,27.0686606 62.312862,27.9250892 C63.0264335,28.1283035 64.2485763,27.927232 64.3696477,28.7479463 C64.5542906,29.9943749 62.4932192,29.447232 61.9017906,30.3940177 C62.4957192,30.7658035 63.0214335,30.3629463 63.5471477,30.8050892 C63.4232192,31.869732 61.9442906,31.5790177 61.6271477,32.4515177 C61.7810763,32.7525892 62.2310763,32.7615177 62.5871477,32.8625892 C62.225362,33.9179463 60.6707192,33.7811606 59.9810763,34.5083035 C60.5321477,34.4600892 60.3425049,35.1533035 60.6664335,35.3315177 C59.8110763,36.9186606 56.5500049,35.5893749 55.455362,37.1143749 C56.5542906,37.1061606 57.6082192,36.6100892 58.3357192,37.2518749 C56.3417906,38.9311606 53.5007192,38.2483035 50.9292906,38.7604463 C52.1589335,38.9508035 53.2421477,38.8754463 54.0832192,39.0343749 C51.6646477,41.0043749 48.2014335,41.9304463 45.1689335,43.2861606 C43.2171477,44.6265177 42.2046477,46.9043749 41.4664335,49.457232 C41.765362,50.3893749 40.9125049,51.1304463 40.642862,51.9268749 C40.2721477,52.242232 39.1400049,51.794732 38.9967906,52.3386606 C39.3850049,53.5954463 41.6607192,52.9665177 42.2889335,53.9833035 C42.0639335,54.8936606 42.7371477,54.907232 42.8371477,55.492232 C42.5510763,55.9929463 42.7467906,56.1243749 42.5632192,56.7275892 C40.8964335,57.8536606 36.8657192,58.084732 33.922612,57.687232 C33.2308263,57.5925892 32.2847549,57.0643749 31.5904692,56.8643749 C29.7168977,56.322232 29.6704692,55.2200892 30.7679692,53.572232 C32.7586835,52.4511606 36.1071477,53.8986606 38.1739335,52.2011606 C36.5750049,51.982232 35.2468977,51.7768749 33.922612,51.6525892 C34.2090406,50.9333035 35.6640406,51.382232 36.2539335,50.9668749 C36.2232192,50.7065177 36.4085763,50.6633035 36.3907192,50.4179463 C35.6304692,49.8436606 33.7208263,50.6500892 33.3733263,49.594732 C34.3893977,49.157232 35.9125049,49.1100892 37.6257192,49.3204463 C37.5671477,48.9415177 38.1371477,49.192232 38.1739335,48.9093749 C36.4025049,47.5433035 34.1397549,48.8350892 32.2768977,47.5379463 C33.6040406,46.0515177 37.5432192,47.5704463 38.585362,46.0300892 C36.9442906,46.3700892 33.8343977,45.754732 31.5904692,46.3036606 C31.2118977,45.9958035 30.272612,45.6736606 30.7679692,44.932232 C33.3047549,44.1915177 36.5839335,44.9604463 39.2707192,43.9715177 C37.582862,43.7654463 35.6590406,43.9393749 33.6479692,43.9715177 C31.2015406,44.0118749 28.7658263,43.9358035 27.4768977,42.6008035 C32.3986835,42.2090177 36.2300049,42.7050892 40.7796477,42.0518749 C35.6647549,41.277232 30.7008263,42.0850892 25.0072549,41.7775892 C24.5008263,41.1865177 23.4518977,41.1386606 22.9504692,40.5429463 C28.9015406,39.6950892 35.5829692,41.3493749 41.8775049,39.994732 C37.562862,39.1868749 33.1597549,40.2765177 28.847612,39.5825892 C24.2633263,40.0418749 19.7433263,40.152232 16.6415406,37.8004463 C19.0733263,37.3558035 21.5722549,38.5908035 24.1843977,37.8004463 C25.7497549,38.1850892 27.4068977,38.3254463 29.5336835,38.4861606 C31.7515406,38.6529463 34.1640406,38.0065177 35.842862,38.7604463 C37.9057192,38.5043749 40.3810763,39.0911606 42.0150049,38.4861606 C41.4232192,37.6183035 39.2317906,38.492232 38.4485763,37.9368749 C42.3832192,37.1804463 43.7664335,33.4668749 44.2085763,29.9829463 C50.267862,30.367232 57.4400049,30.9940177 59.7064335,25.3193749 C61.9421477,20.0565177 58.1485763,15.9293749 54.0832192,14.4840177 C54.2060763,14.4040177 54.8664335,14.1958035 54.4950049,14.0729463 C53.6767906,13.9500892 51.2775049,14.0808035 49.9696477,13.7990177 C48.0696477,13.3890177 45.5857192,14.2440177 44.6200049,13.7990177 C42.1796477,12.6725892 46.035362,12.1704463 47.2260763,12.1529463 C47.8410763,12.8790177 48.8689335,12.294732 49.5571477,12.2900892 C51.0289335,12.2793749 53.3185763,13.0150892 54.0832192,11.7418749 C50.1085763,11.6279463 46.5192906,12.1054463 43.522862,11.329732 C43.3657192,10.7615177 43.8107192,10.7958035 43.7971477,10.3700892 C44.8921477,10.3829463 45.2525049,10.5025892 45.8546477,10.0950892 C46.287862,10.4175892 47.7889335,10.5415177 47.6375049,9.95830346 C48.512862,10.7004463 49.965362,10.129732 50.6550049,9.82080346 C48.9950049,10.0918749 47.1160763,9.0361606 45.1689335,10.0950892 C45.2725049,9.23901774 42.782862,9.97044631 42.4257192,9.13473203 C42.4232192,8.81258917 42.6617906,8.73223203 42.5632192,8.31223203 C44.9360763,8.36401774 46.7864335,8.36187489 49.0085763,8.44973203 C49.7060763,8.47794631 50.4196477,8.4436606 51.0660763,8.44973203 C52.4860763,8.46437489 54.4307192,8.67901774 54.9067906,7.49008917 C52.1067906,7.45758917 49.9375049,7.28330346 47.0892906,7.35294631 C44.1039335,7.42437489 41.2150049,7.9986606 39.6825049,6.39187489 C44.3135763,6.01544631 49.1364335,6.71223203 52.1639335,5.9811606 C50.2110763,5.26080346 49.0285763,5.77723203 46.677862,5.56973203 C46.5350049,5.80473203 45.7075049,5.57223203 46.1289335,5.9811606 C43.0275049,5.25151774 39.8875049,5.4386606 37.0775049,5.56973203 C36.2807192,4.77901774 35.3086835,5.44508917 34.3333263,5.02080346 C31.1204692,5.50187489 27.2797549,5.30758917 24.1843977,5.29508917 C22.4358263,5.28830346 20.5333263,5.35544631 18.8358263,4.7461606 C19.9143977,3.33330346 21.8633263,4.42937489 23.4993977,4.47187489 Z M41.8775049,95.2675892 C41.9042906,96.1018749 41.6000049,96.9100892 41.6035763,97.7350892 C41.6189335,103.758661 41.7082192,108.394375 41.1910763,113.782232 C40.3482192,117.157946 39.7742906,119.548303 39.9567906,122.696518 C39.4967906,125.847946 39.4482192,128.031518 39.8196477,131.336875 C40.0321477,133.224732 40.1489335,135.644732 39.4082192,136.822589 C39.0860763,137.049375 38.3542906,136.866161 38.3110763,137.371875 C38.995362,138.468661 41.0935763,137.587232 42.0150049,138.605089 C42.3835763,139.679375 41.7325049,139.502232 42.2889335,140.389732 C41.9839335,140.495803 41.5450049,140.467946 41.4664335,140.800803 C41.810362,140.777946 41.7992906,141.107232 42.0150049,141.212589 C41.7232192,141.671518 40.6625049,142.131518 41.1910763,142.583303 C39.8257192,142.934375 39.0817906,143.019375 37.9000049,142.857589 C37.5071477,142.644732 38.1857192,142.218303 37.762862,142.034732 C37.4300049,142.124018 37.1557192,142.037946 36.9400049,141.760803 C37.4732192,141.783303 38.3907192,141.637589 38.7225049,141.074732 C38.1571477,140.634018 36.8246477,140.962589 36.5282192,140.252232 C36.5410763,139.716161 37.4714335,140.098303 37.4889335,139.566875 C36.277862,138.800803 35.0658263,138.868661 34.0593977,139.018303 C35.1561835,138.411161 37.0585763,138.647232 37.6257192,136.960089 C35.932862,136.732232 33.8643977,136.881518 32.2768977,136.548661 C30.8522549,133.432589 32.2997549,129.295803 32.1397549,126.399732 C31.9154692,125.866518 31.7811835,125.503303 32.2768977,125.165089 C32.7683263,127.821161 32.0661835,131.161875 32.2768977,133.531518 C33.2340406,127.684375 33.4233263,121.659375 31.4533263,115.565089 C31.6422549,117.778661 32.4479692,119.868661 32.4140406,121.736518 C32.3983263,122.604375 32.6004692,123.873303 32.0029692,124.480089 C32.1554692,120.383661 30.9904692,117.336161 30.4940406,113.506875 C30.430112,113.016161 30.3140406,111.647589 30.7679692,111.450089 C30.9108263,112.199018 30.6333263,114.241875 31.4533263,115.016518 C31.9172549,111.582589 30.2483263,108.295446 30.9047549,104.866875 C31.1254692,106.594375 31.5429692,110.954732 32.2768977,114.056161 C31.3222549,107.516518 31.172612,98.887232 31.8658263,92.6604463 C31.0218977,95.6936606 30.9797549,99.2675892 30.9047549,101.575089 C30.412612,95.1533035 31.3154692,89.9829463 32.0029692,84.157232 C32.0908263,83.4093749 32.4815406,82.6593749 32.5515406,81.9629463 C32.7443977,80.027232 32.5961835,77.949732 32.6879692,75.9279463 C32.8836835,71.6011606 32.902612,66.789732 33.0993977,62.3500892 C33.497612,61.9668749 34.0797549,61.0486606 34.4708263,61.1165177 C33.2908263,62.6308035 33.2933263,65.7425892 33.3733263,68.109732 C33.6190406,75.2936606 32.7868977,83.2829463 32.2768977,89.6433035 C33.0843977,85.8790177 33.115112,81.3386606 34.1965406,77.8483035 C34.1368977,74.5550892 33.9315406,71.1450892 34.0593977,67.8361606 C34.142612,65.6750892 34.035112,62.7908035 35.4315406,61.2533035 C36.8107192,61.1125892 38.1742906,60.7511606 38.8592906,62.0761606 C38.437862,62.1786606 38.6925049,61.6033035 38.1739335,61.802232 C38.0442906,63.1218749 38.9982192,64.2408035 39.1339335,65.2300892 C39.4050049,67.2025892 38.8942906,69.479732 38.8592906,71.402232 C38.7960763,74.9950892 38.532862,79.6061606 40.0946477,84.4315177 C39.5557192,78.9779463 39.0860763,72.6615177 39.6825049,67.0133035 C39.7489335,66.392232 39.777862,65.4990177 40.3685763,65.0936606 C40.6664335,69.8154463 39.4467906,74.4990177 39.9567906,78.944732 C40.1510763,80.639732 40.672862,82.2368749 40.7796477,83.882232 C41.0346477,87.8158035 41.7492906,91.5361606 41.8775049,95.2675892 Z M42.5632192,107.335446 C43.1389335,101.649732 42.7785763,95.229732 42.2889335,90.0536606 C43.1910763,95.127232 43.4071477,102.087232 42.5632192,107.335446 Z M38.9967906,150.127589 C39.1507192,148.621875 38.4675049,147.234375 39.4082192,146.286518 C39.0657192,148.169375 39.5989335,149.324375 38.9967906,150.127589 Z M38.7225049,179.614553 C38.6157192,176.953875 38.7460763,175.384196 39.1339335,173.306339 C39.352862,175.663482 39.0632192,177.587446 38.7225049,179.614553 Z M39.2707192,160.687411 C39.2510763,163.397768 39.1392906,165.917446 38.8592906,169.327768 C38.7696477,167.285625 38.8267906,165.372089 38.7225049,163.431339 C38.5100049,159.454553 38.892862,154.625625 38.8592906,150.539018 C39.0350049,150.531161 39.0500049,150.362946 39.2707192,150.401518 C39.3775049,151.922089 39.3589335,153.593482 39.1339335,154.790303 C38.7296477,156.947411 39.2842906,158.814196 39.2707192,160.687411 Z M34.3333263,183.318161 C34.2397549,178.918482 34.5208263,174.409553 34.7447549,170.013839 C34.9543977,165.914553 34.5029692,159.613875 34.8822549,154.516375 C35.0208263,152.656732 34.9915406,151.244196 35.0190406,149.305089 C35.0554692,146.867946 35.0622549,143.601518 38.585362,144.229732 C39.0514335,145.014018 39.1610763,145.376518 39.2707192,146.149732 C38.8685763,146.307232 38.7617906,145.491875 38.585362,145.875446 C38.252862,146.952232 38.1621477,148.172589 38.1739335,149.305089 C38.230362,154.413125 37.7810763,161.805982 38.0371477,166.858875 C38.1664335,169.416018 38.4575049,171.823839 38.3110763,174.266018 C38.187862,176.311339 37.5610763,180.045982 38.3110763,182.630982 C38.6782192,182.291696 38.0160763,180.703518 38.7225049,180.574196 C38.512862,181.629946 38.5367906,182.576732 39.4082192,182.904911 C38.3357192,183.889553 35.7739335,182.865303 34.3333263,183.318161 Z M33.922612,162.607053 C33.8043977,167.884911 33.742612,172.882411 32.962612,177.008125 C33.1872549,166.755625 33.5168977,154.551339 33.922612,146.560803 C33.9529692,146.454375 34.0365406,146.402232 34.1965406,146.423661 C34.0840406,151.347446 34.0393977,157.404553 33.922612,162.607053 Z M32.962612,183.180625 C32.7793977,182.116696 32.6461835,179.426339 33.0993977,177.967768 C33.0986835,179.030625 33.3154692,180.012053 33.3733263,180.985625 C33.407612,181.543482 33.560112,183.005661 32.962612,183.180625 Z M32.962612,145.601161 C32.540112,157.843839 32.4740406,170.441018 31.7283263,182.356696 C32.1140406,170.208125 32.3215406,157.031732 32.962612,145.601161 Z M31.4533263,160.687411 L31.4533263,158.767768 C31.5197549,154.736375 31.7668977,150.624553 31.7283263,146.149732 C31.7572549,145.995446 31.8804692,145.935446 32.0029692,145.875446 C31.8722549,150.544732 31.6747549,155.147768 31.5904692,159.864589 L31.5904692,160.687411 C31.690112,161.183839 31.3543977,161.183839 31.4533263,160.687411 Z M31.8658263,139.292589 C31.9454692,138.443303 32.8418977,139.098303 32.962612,139.430089 C32.4540406,139.527232 32.3736835,139.195803 31.8658263,139.292589 Z M31.4533263,139.292589 C32.260112,140.731518 33.5261835,139.337232 34.8822549,140.252232 C33.7922549,140.487946 32.5361835,140.557589 31.8658263,141.212589 C32.7497549,141.598661 34.2665406,141.307232 35.0190406,141.760803 C34.2708263,141.967232 32.4833263,141.601161 32.0029692,142.445803 C30.3061835,142.666518 29.2097549,139.707232 31.4533263,139.292589 Z M31.7283263,81.414732 C31.1740406,81.7961606 31.8386835,83.4404463 31.042612,83.882232 C31.2293977,82.7486606 31.0815406,81.589732 31.7283263,81.414732 Z M31.8658263,70.579732 C32.6168977,70.8304463 32.0815406,71.719732 32.0029692,71.9508035 C31.5915406,71.6568749 31.9690406,71.2850892 31.8658263,70.579732 Z M32.0029692,70.4425892 C31.615112,69.4879463 31.5297549,67.8708035 31.8658263,67.5618749 C31.7040406,68.4111606 32.2540406,69.607232 32.0029692,70.4425892 Z M29.9443977,96.7754463 C29.9461835,94.8093749 30.277612,90.2600892 30.7679692,87.037232 C30.9565406,87.0440177 31.0690406,86.9729463 31.1797549,86.9004463 C31.025112,89.5454463 30.4079692,92.6090177 30.2186835,95.129732 C30.197612,95.4193749 30.4440406,97.0000892 29.9443977,96.7754463 Z M28.9847549,36.4293749 C29.4472549,36.9718749 30.1758263,37.2504463 30.7679692,37.6633035 C27.275112,37.6208035 22.777612,37.7033035 19.1097549,37.1143749 C17.1997549,36.807232 15.0704692,36.9133035 13.7615406,35.7429463 C18.3615406,35.6911606 23.9804692,35.6650892 28.9847549,36.4293749 Z M11.9790406,33.9600892 C13.8129692,33.0829463 16.1240406,33.907232 18.4247549,33.9600892 C19.745112,33.9904463 20.7154692,33.8661606 21.9911835,33.9600892 C24.017612,34.109732 26.4918977,33.9011606 27.4768977,35.3315177 C23.4329692,35.457232 18.1086835,35.229732 13.7615406,35.057232 C13.3211835,34.5375892 12.1772549,34.7208035 11.9790406,33.9600892 Z M9.78368345,31.4915177 C12.4918977,30.839732 15.3372549,31.5918749 18.1504692,31.6290177 C19.5340406,31.6458035 20.2154692,31.8790177 21.3043977,31.9033035 C21.920112,31.9168749 22.4758263,31.7065177 23.087612,31.7658035 C24.0922549,31.864732 25.7465406,31.864732 26.2415406,32.8625892 C23.3440406,34.1865177 19.1179692,33.1115177 15.5443977,32.999732 C14.8718977,32.9783035 14.152612,33.3308035 13.4868977,33.2740177 C12.1936835,33.1633035 10.4383263,32.4779463 9.78368345,31.4915177 Z M9.23546917,29.4340177 C10.0311835,28.724732 11.7265406,29.0425892 12.9383263,29.1593749 C15.2654692,28.3961606 17.7036835,30.5533035 20.3443977,30.6683035 C20.8347549,30.689732 21.3129692,30.402232 21.7158263,30.3940177 C22.157612,30.3854463 22.5461835,30.679732 22.9504692,30.6683035 C24.050112,30.6383035 24.7418977,29.8800892 25.967612,29.844732 C26.0072549,31.7425892 23.7886835,30.9661606 22.6765406,30.9425892 C21.3011835,30.9129463 19.7297549,31.1711606 18.1504692,31.0804463 C17.165112,31.022232 16.1693977,30.7211606 15.2693977,30.6683035 C13.3061835,30.5536606 10.1718977,31.5993749 9.23546917,29.4340177 Z M22.5390406,27.1029463 C21.9115406,27.1425892 20.2415406,27.509732 19.6586835,26.8279463 C20.5983263,26.929732 21.7861835,26.3711606 22.5390406,27.1029463 Z M30.7679692,36.0179463 C28.9865406,35.6879463 27.3593977,33.372232 27.6136835,31.354732 C26.705112,29.9204463 27.567612,27.8318749 28.9847549,26.9658035 C29.2683263,28.1911606 28.9708263,29.0986606 28.9847549,29.9829463 C29.0029692,31.0743749 30.2118977,32.7293749 31.1797549,33.5483035 C32.5297549,34.6929463 34.4804692,34.6486606 35.7054692,35.3315177 C35.0379692,35.9036606 33.8715406,35.4661606 33.3733263,35.057232 C32.9786835,35.0736606 33.1358263,35.6415177 32.6879692,35.6058035 C31.4240406,35.6404463 30.897612,33.5165177 29.807612,34.6450892 C29.9404692,35.2411606 31.0458263,35.4529463 30.7679692,36.0179463 Z M37.0775049,34.7818749 C36.9925049,35.2079463 36.4685763,35.4868749 36.2539335,35.057232 C36.6860763,35.1236606 36.5646477,34.6361606 37.0775049,34.7818749 Z M39.1339335,8.31223203 C39.1492906,8.14473203 39.1757192,7.98794631 39.4082192,8.0386606 C40.5139335,9.12687489 41.6660763,10.1686606 42.0150049,12.0165177 C40.9632192,10.8725892 40.457862,9.18294631 39.1339335,8.31223203 Z M39.2707192,9.82080346 C39.2864335,9.6536606 39.3121477,9.49687489 39.5457192,9.54651774 C40.387862,10.8086606 41.2210763,12.0768749 41.3282192,14.0729463 C40.570362,12.7279463 40.3846477,10.8108035 39.2707192,9.82080346 Z M55.8664335,17.502232 C55.922862,17.7661606 56.3989335,17.6093749 56.2785763,18.0504463 C55.175362,17.6883035 54.4146477,16.2575892 53.1235763,16.5425892 C54.1600049,17.289732 55.167862,18.0643749 56.140362,18.8733035 C54.9750049,18.8200892 54.6642906,17.8583035 53.8092906,18.187232 C53.9646477,18.4954463 54.8182192,18.8161606 54.4950049,19.147232 C50.827862,17.019732 46.790362,16.9150892 42.8371477,17.6393749 C42.1950049,17.7565177 41.6775049,18.4590177 41.0539335,17.9136606 C42.2257192,16.9918749 43.1889335,15.2508035 44.7567906,15.1690177 C44.9989335,15.0461606 45.1817906,14.8633035 45.3064335,14.6211606 C48.5007192,14.4393749 53.6950049,14.0361606 55.5921477,16.5425892 C56.3492906,16.694732 57.8771477,17.7593749 58.0610763,18.4615177 C57.5510763,17.999732 56.5775049,16.8908035 55.8664335,17.502232 Z M48.0489335,27.2400892 C48.830362,27.1629463 50.0150049,27.017232 50.3807192,27.3768749 C49.6521477,27.3633035 48.5010763,27.8158035 48.0489335,27.2400892 Z M49.6942906,28.8850892 C50.5539335,28.717232 51.6707192,29.0175892 52.575362,28.8850892 C52.787862,28.8543749 52.8739335,28.5400892 53.1235763,28.4736606 C53.5317906,28.3665177 53.9785763,28.677232 54.357862,28.6108035 C55.2432192,28.4565177 56.1807192,27.6150892 56.0035763,27.2400892 C56.4757192,27.8454463 57.4889335,26.0840177 57.2382192,26.8279463 C56.8364335,28.252232 55.2639335,28.5108035 54.0832192,28.7479463 C53.5342906,28.8590177 53.0771477,29.2129463 52.575362,29.2965177 C49.4582192,29.8136606 45.5764335,29.424732 43.3857192,28.062232 C43.4460763,27.4079463 42.895362,27.364732 42.8371477,26.8279463 C44.3517906,26.7161606 45.6732192,26.9115177 47.2260763,27.2400892 C47.4460763,27.7786606 46.6332192,27.2875892 46.677862,27.6515177 C47.1339335,28.1643749 49.2875049,27.8950892 49.6942906,28.8850892 Z M30.9047549,20.107232 C30.8683263,17.9211606 30.0579692,14.6475892 31.1797549,12.7018749 C31.4572549,12.2200892 32.1829692,11.7143749 32.5515406,11.329732 C33.0704692,10.787232 33.5158263,10.239732 34.1965406,10.0950892 C35.5261835,10.2429463 37.0117906,10.2340177 38.0371477,10.6443749 C40.2039335,13.0558035 39.9585763,16.459732 39.4082192,19.147232 C42.5985763,19.3208035 46.122862,17.4633035 49.8310763,18.0504463 C50.692862,18.1858035 51.8742906,18.9240177 52.8496477,19.4218749 C53.4500049,19.7293749 53.9885763,19.7650892 54.357862,20.107232 C56.0232192,21.652232 54.8996477,24.7243749 53.5350049,25.5936606 C52.9867906,25.942232 51.0585763,26.344732 50.3807192,26.417232 C48.4525049,26.6211606 45.3439335,26.2279463 43.522862,25.8679463 C42.2471477,25.6154463 41.157862,24.7511606 39.8196477,25.0443749 C39.9260763,26.7461606 40.6942906,28.0911606 40.3685763,29.7075892 C40.1107192,30.9850892 39.1139335,31.884732 38.7225049,32.999732 C36.9985763,33.9011606 35.6347549,34.4358035 33.785112,33.9600892 C30.4408263,33.099732 29.7890406,28.4229463 30.3568977,24.6329463 C26.1490406,25.9090177 20.6736835,26.8529463 16.5043977,24.2218749 C15.9293977,23.1943749 15.4386835,21.9779463 15.8186835,20.9308035 C16.7908263,18.2443749 21.615112,18.0104463 24.3211835,18.3243749 C26.5429692,18.8008035 28.3393977,20.4340177 30.9047549,20.107232 Z M27.6136835,10.6443749 C28.5165406,7.93401774 31.7718977,5.69794631 35.1572549,6.80473203 C34.3743977,7.16544631 32.5961835,6.5286606 32.6879692,7.76437489 C33.352612,7.98258917 34.8358263,7.21830346 35.4315406,8.0386606 C34.695112,8.07901774 33.680112,7.8411606 33.6479692,8.58723203 C35.0854692,8.6586606 36.4735763,8.77973203 37.2146477,9.54651774 C35.6486835,9.4311606 34.4490406,8.79401774 33.0993977,9.27223203 C31.3065406,9.9086606 29.6304692,12.9958035 29.3965406,14.8958035 C29.2636835,15.9743749 29.5904692,17.044732 29.5336835,18.0504463 C28.9615406,16.644732 27.3561835,15.1950892 27.202612,13.3875892 C27.1161835,12.379732 27.8511835,11.7104463 27.6136835,10.6443749 Z M20.2068977,13.9361606 C21.4683263,13.6765177 23.2897549,13.8265177 24.4586835,14.6211606 C23.8386835,14.594732 23.1586835,14.5086606 23.3618977,15.3075892 C24.5186835,15.2936606 25.4818977,15.4736606 26.1047549,15.9936606 C25.3968977,16.0440177 24.6165406,15.3129463 24.3211835,16.1300892 C24.4697549,16.6683035 25.2547549,16.5690177 25.6933263,16.8165177 C25.6015406,17.0540177 25.5861835,17.6343749 26.1047549,17.9136606 C22.1004692,16.8579463 15.577612,17.0665177 14.8579692,21.2050892 C14.1829692,25.0886606 16.8458263,25.8568749 19.5215406,26.8279463 C18.1286835,27.019732 16.7429692,26.0508035 15.5443977,25.5936606 C14.2833263,26.0365177 14.132612,25.1415177 13.350112,24.7700892 C12.6311835,25.3418749 13.6508263,26.1983035 14.0354692,26.8279463 C10.880112,25.4254463 10.9236835,21.199732 12.3904692,18.187232 C14.1247549,16.2450892 16.8440406,13.8929463 20.0697549,14.3468749 C20.157612,14.0483035 19.6818977,13.9111606 20.2068977,13.9361606 Z M7.5890406,27.1029463 C9.01832631,26.9625892 12.4733263,26.6340177 13.4868977,28.3368749 C10.982612,27.8018749 8.7265406,29.274732 7.5890406,27.1029463 Z M9.92082631,23.8108035 C9.18296917,24.1404463 7.98832631,23.8550892 7.5890406,23.3986606 C7.55761203,22.8643749 7.8840406,22.6883035 8.00082631,22.3018749 C8.84725488,22.402232 9.38046917,22.2758035 10.0579692,22.7136606 C10.0411835,23.1079463 10.1333263,23.612232 9.92082631,23.8108035 Z M7.17868345,25.4568749 C7.38332631,23.8304463 9.63332631,24.9565177 10.6072549,24.4965177 C10.7443977,25.227232 11.2108263,25.629732 11.430112,26.2800892 C9.62225488,26.1061606 7.74689774,26.6975892 7.17868345,25.4568749 Z M29.2590406,156.435625 C28.1608263,156.911339 27.5490406,156.545268 26.5158263,156.572768 C25.3383263,156.604911 24.012612,156.483161 23.2247549,157.120661 C24.3886835,156.906732 25.187612,157.776018 25.8304692,156.983839 C26.6915406,157.728482 28.6122549,157.041018 29.5336835,157.669196 C28.4993977,158.233518 26.7522549,158.006732 25.8304692,158.493518 C27.1990406,158.820268 28.6322549,158.406018 29.807612,159.042446 C29.3958263,160.063875 28.2990406,158.897446 28.1618977,160.139196 C29.1447549,160.262446 30.4086835,159.740303 30.3568977,161.098839 C29.8922549,161.268125 28.3793977,160.729232 27.7508263,161.373518 C28.3511835,161.699911 28.9072549,161.699911 29.6704692,161.646732 C29.7940406,161.935303 29.8836835,162.257411 30.0818977,162.470303 C29.5654692,162.297446 28.6122549,162.440661 28.4365406,163.018125 C29.1868977,162.979946 29.780112,162.789911 29.9443977,163.568161 C29.6704692,163.978125 28.6208263,163.614589 28.5736835,164.253839 C28.9540406,164.444589 29.8215406,164.072446 29.9443977,164.802053 C28.9986835,165.452089 28.340112,164.853518 27.4768977,165.487803 C28.302612,166.119553 29.6215406,165.663482 29.9443977,166.584196 C29.3336835,166.828518 28.292612,167.265661 27.7508263,167.132768 C27.3690406,165.743482 25.6233263,167.033161 24.870112,166.310982 C24.922612,165.060625 25.0618977,162.574196 24.7329692,161.235982 C23.1111835,160.758125 21.9833263,161.655268 20.7561835,161.235982 C21.0004692,159.516732 20.6040406,158.458518 20.6190406,156.983839 C19.825112,156.840625 19.0129692,156.432446 18.1504692,156.435625 C15.6668977,156.446696 13.1418977,156.454196 10.6072549,156.298875 C8.52189774,156.170661 6.50939774,156.281732 5.12046917,156.709946 C4.26475488,156.267768 2.93475488,157.148875 2.9265406,155.887446 C10.1565406,155.925625 13.5040406,155.723875 21.0304692,155.612768 C21.1022549,155.409589 21.232612,155.267411 21.3043977,155.064553 C15.1904692,154.887089 9.0515406,155.478839 4.02368345,155.201696 C4.05261203,154.577803 3.08261203,154.955268 2.9265406,154.516375 C5.3190406,154.000268 7.80975488,154.395661 9.78368345,154.378875 C11.6611835,154.362446 12.9079692,154.496018 15.1322549,154.516375 C15.9686835,154.521696 18.2836835,154.174232 17.0533263,153.967803 C17.4308263,153.843161 18.0161835,153.924553 18.287612,153.693482 C18.5068977,153.152411 17.6947549,153.645625 17.7393977,153.280268 C21.112612,153.385661 25.9672549,153.012411 29.3965406,153.555982 C28.2658263,153.883125 26.7429692,154.021732 25.967612,153.967803 C26.8697549,154.913482 29.9561835,153.485625 30.3568977,155.201696 C28.7858263,155.931696 26.2754692,154.637803 25.1440406,155.749946 C26.460112,155.916339 27.9883263,155.844196 29.2590406,156.435625 Z M30.0818977,171.933839 C26.6879692,171.739232 23.3811835,171.589553 20.0697549,171.658839 C20.8918977,170.617803 23.1115406,171.075661 24.5958263,171.384911 C24.7797549,171.066018 25.3897549,171.174232 25.6933263,170.973518 C26.5797549,171.428125 27.890112,170.943161 28.847612,171.110661 C29.225112,171.177411 30.1933263,171.100268 30.0818977,171.933839 Z M20.0697549,172.344911 C22.1468977,172.327768 24.5497549,172.007446 26.7911835,172.482411 C26.4990406,172.675982 25.3433263,172.504911 24.870112,172.893161 C23.3618977,172.146339 21.1361835,173.608125 20.0697549,172.344911 Z M29.5336835,174.128839 C27.4586835,174.547768 24.6815406,174.473875 23.087612,173.854589 C22.8290406,173.869911 22.9922549,174.307053 22.6765406,174.266018 C16.5104692,173.800661 8.33725488,174.626375 2.37832631,173.717411 C2.61332631,173.365982 2.22082631,173.236339 2.51582631,173.030661 C4.6740406,173.352446 7.00689774,172.885303 8.6865406,172.893161 C13.2633263,172.914553 19.200112,173.541732 23.910112,173.167411 C25.4408263,173.748161 27.3358263,172.814946 29.1218977,173.306339 C29.1990406,173.640303 29.652612,173.597053 29.5336835,174.128839 Z M24.3211835,175.088482 C23.4372549,175.052803 22.5115406,175.489232 21.5786835,174.951339 C21.3729692,175.111732 21.2436835,175.347053 20.8933263,175.362053 C19.2365406,174.886732 17.2272549,175.993125 15.9558263,174.813839 C19.3561835,174.088875 23.6429692,174.818839 27.3393977,175.088482 C28.3190406,175.159196 28.7872549,174.573839 29.2590406,175.499911 C27.587612,176.028482 26.0658263,175.158161 24.3211835,175.088482 Z M10.6072549,175.088482 C9.78082631,175.080303 9.02582631,175.351732 8.41225488,174.951339 C7.7140406,174.800268 7.19261203,175.325268 6.90368345,174.813839 C10.4108263,174.604911 12.3311835,174.557053 15.6815406,174.813839 C14.617612,175.770982 12.3904692,175.105982 10.6072549,175.088482 Z M4.57189774,174.539911 C5.20511203,174.349232 5.77225488,174.399946 6.35475488,174.813839 C5.7740406,174.709196 4.73011203,175.066339 4.57189774,174.539911 Z M2.65261203,174.539911 C2.99296917,174.643518 3.42618345,174.062803 3.61225488,174.539911 C3.49689774,174.668125 2.73796917,174.832803 2.65261203,174.539911 Z M6.35475488,172.070268 C8.0165406,172.121696 9.2865406,172.315625 10.4693977,172.482411 C7.9765406,172.619232 4.55332631,172.400303 2.37832631,172.619232 C3.08832631,171.602089 4.88689774,172.025625 6.35475488,172.070268 Z M5.25725488,170.836696 C5.5640406,171.174232 5.8915406,171.054946 6.21832631,170.836696 C7.26118345,171.544911 9.58725488,170.906375 11.0183263,170.973518 C11.4736835,170.994911 12.362612,170.924196 12.2529692,171.658839 C9.66046917,172.475625 6.39761203,171.018161 3.33796917,171.796696 C3.15511203,171.437411 2.7290406,171.534553 2.37832631,171.658839 C2.9015406,170.529911 4.19118345,171.542089 5.25725488,170.836696 Z M7.04118345,169.877053 C8.68796917,169.863125 10.6508263,169.476018 11.8411835,170.288125 C9.40261203,170.944196 6.73582631,170.491732 4.16046917,170.562446 C3.53368345,170.579553 2.86546917,170.968839 2.37832631,170.288125 C3.83796917,169.288482 5.38225488,169.891018 7.04118345,169.877053 Z M4.16046917,168.642446 C4.91296917,168.600982 5.7165406,168.755661 6.62939774,168.642446 C8.93225488,168.355661 10.6833263,168.234553 11.8411835,169.327768 C8.73868345,169.201696 6.21046917,169.252803 2.65261203,169.327768 C2.72475488,168.509196 3.78332631,168.663161 4.16046917,168.642446 Z M6.7665406,168.093125 C6.66975488,167.757089 5.97868345,168.570303 5.94368345,167.956018 C6.02118345,167.723125 7.3115406,167.744911 6.7665406,168.093125 Z M24.870112,167.407446 C25.100112,166.961696 26.7447549,166.834589 27.0654692,167.407446 C26.590112,167.495268 25.2783263,167.422768 24.870112,167.407446 Z M20.0697549,169.739946 C21.5797549,170.086018 24.2740406,169.602446 25.6933263,169.877053 C27.4090406,169.049589 28.612612,170.696696 29.807612,169.465982 C28.1158263,169.126696 26.2147549,169.137446 24.4586835,169.191375 C24.392612,168.225661 25.7161835,168.873839 25.2815406,168.093125 C27.1811835,167.601018 28.0443977,167.707768 30.0818977,168.093125 L30.0818977,170.425268 C26.9329692,170.441018 23.2565406,170.813161 19.932612,170.288125 C19.9018977,170.029196 20.087612,169.984553 20.0697549,169.739946 Z M3.33796917,157.395625 C6.35118345,156.972089 9.78761203,156.548482 12.9383263,157.258518 C12.7854692,157.384946 12.8954692,157.514196 12.8011835,157.944196 C9.13046917,157.954589 7.19761203,158.097803 4.70939774,157.806339 C4.23046917,157.750982 3.62296917,158.089946 3.33796917,157.395625 Z M13.0754692,159.316339 C11.5940406,159.790625 9.62546917,159.364232 8.27546917,159.316339 C8.10261203,159.310303 7.86582631,159.607803 7.5890406,159.590625 C5.44796917,159.459553 3.80011203,159.725982 2.51582631,158.767768 C6.54225488,158.284553 9.65261203,158.743482 12.9383263,158.630625 C12.8243977,159.017768 13.1311835,158.985625 13.0754692,159.316339 Z M12.9383263,160.413518 C11.1533263,160.020268 8.57582631,161.260625 6.62939774,160.139196 C8.59725488,160.117803 10.765112,159.947768 12.9383263,160.139196 C12.7722549,160.168482 12.8540406,160.291339 12.9383263,160.413518 Z M12.5272549,153.143125 C13.9283263,153.857053 15.9379692,152.764911 16.9165406,153.555982 C14.2883263,153.816696 12.4568977,153.822803 10.4693977,153.693482 C11.0361835,152.946339 11.8861835,153.705661 12.5272549,153.143125 Z M10.7443977,36.7033035 C11.5615406,37.4543749 12.7661835,38.0390177 13.7615406,38.7604463 C14.7747549,39.4943749 15.7268977,40.2358035 16.7783263,40.6804463 C19.0233263,41.6293749 21.5136835,42.1115177 23.910112,43.1486606 C25.3879692,43.7886606 26.1890406,44.7068749 27.8883263,45.6179463 C28.2315406,46.4393749 29.407612,47.3283035 29.9443977,48.4979463 C30.317612,49.3079463 30.970112,51.172232 30.7679692,51.7900892 C30.430112,52.8250892 28.7172549,52.7600892 28.2990406,53.9833035 C28.3918977,56.1640177 28.472612,57.9233035 30.2186835,58.6468749 C28.5808263,62.4361606 30.1736835,67.1179463 30.2186835,72.2254463 C30.307612,81.959732 27.3761835,92.3775892 27.6136835,101.986875 C27.7186835,106.217589 28.1536835,110.605446 28.847612,114.742946 C29.5397549,118.861875 30.622612,122.935803 30.6311835,126.948303 C30.637612,130.369732 29.1711835,134.219732 30.4940406,137.097232 C30.1311835,138.035089 29.2408263,138.408303 28.9847549,139.430089 C28.515112,141.309018 29.6186835,142.908661 30.4940406,144.092946 C30.405112,146.517589 30.6733263,149.300089 30.3568977,151.498161 C21.0304692,152.034196 11.4140406,151.590661 0.182969169,151.498161 C-0.311673688,154.497411 0.374754883,157.461732 0.319754883,161.510268 C4.45796917,161.799911 10.0568977,162.104589 14.0354692,161.646732 C14.3572549,160.475982 13.7536835,159.362446 13.7615406,158.081018 C15.3193977,157.578875 17.7086835,157.945303 19.2468977,158.081018 C19.660112,159.097411 18.4840406,161.262053 19.3843977,161.921732 C20.0022549,162.470303 22.1797549,162.024589 23.087612,162.332803 C23.4283263,164.654589 22.8547549,165.584911 23.3618977,167.818518 C22.042612,168.204911 20.3929692,167.784946 18.9729692,167.818518 C18.7233263,168.789232 19.3808263,170.668518 19.1097549,171.658839 C17.6190406,172.225982 15.1361835,171.799232 13.350112,172.070268 C12.4733263,170.751339 13.3658263,169.468518 13.350112,167.681339 C9.08296917,167.514946 4.83225488,167.329911 0.45689774,167.269946 C0.115469169,169.926375 -0.0988165456,173.039946 0.0458263115,175.774232 C3.48618345,176.639553 6.18511203,176.295982 9.92082631,176.322803 C12.792612,176.342411 15.8611835,176.589911 18.9729692,176.733482 C19.2643977,176.747411 19.5015406,176.624232 19.7958263,176.596375 C20.925112,176.490661 22.9629692,176.849232 24.3211835,176.870982 C26.0340406,176.898482 27.9190406,176.753482 29.807612,177.282053 C30.0322549,179.024911 29.5765406,182.279553 29.9443977,183.455661 C31.6504692,185.699553 35.0929692,187.203125 38.0371477,185.648482 C38.6350049,185.332803 39.7864335,184.688482 40.0946477,184.003518 C40.520362,183.054196 40.3132192,180.575982 40.3685763,179.477446 C40.7542906,171.797768 40.4264335,155.240303 40.9171477,143.818661 C42.5642906,142.884732 44.1267906,141.671875 43.9346477,139.841161 C43.7814335,138.382589 42.442862,137.798303 41.3282192,136.822589 C42.2925049,133.665089 40.9546477,129.304018 41.1910763,125.029018 C41.4771477,119.868661 42.9235763,114.844375 43.522862,109.805089 C44.8142906,98.9383035 42.7925049,87.7875892 41.7407192,77.8483035 C41.3046477,73.7383035 41.4232192,70.0850892 41.8775049,65.9165177 C42.0092906,64.7054463 42.4767906,63.3943749 42.4257192,62.2133035 C42.3857192,61.2886606 41.5567906,60.1425892 41.7407192,59.1950892 C41.9932192,57.8879463 43.9682192,57.8958035 44.3460763,56.4529463 C44.7567906,53.8079463 42.6139335,53.8311606 42.1517906,52.3386606 C41.4185763,49.9750892 43.3242906,46.1500892 44.6200049,44.932232 C47.5492906,42.1779463 53.7114335,41.6111606 57.375362,39.5825892 C60.8646477,37.652232 63.9607192,33.854732 65.6042906,29.844732 C66.6542906,27.2843749 67.2996477,23.9411606 66.8389335,20.519732 C64.9960763,6.83258917 51.7167906,0.972232029 36.3907192,0.0833034576 C27.4733263,-0.432767971 19.2033263,1.41687489 12.6643977,6.53044631 C6.31225488,11.4965177 2.6565406,19.3858035 6.21832631,29.2965177 C7.24511203,32.1550892 8.58832631,34.7215177 10.7443977,36.7033035 Z M40.7796477,110.353661 C41.3046477,110.409018 41.1257192,109.277946 41.1910763,108.432232 C41.5657192,103.646161 41.7196477,97.0440177 41.0539335,92.3861606 C40.8946477,92.3640177 40.8100049,92.4168749 40.7796477,92.5233035 C41.4671477,98.3725892 40.9671477,104.731875 40.7796477,110.353661 Z M50.7917906,9.82080346 C51.1557192,10.5883035 52.565362,10.489732 53.397862,10.5075892 C54.5550049,10.5311606 56.152862,10.7179463 56.8271477,9.95830346 C54.867862,10.1165177 52.942862,9.53294631 50.7917906,9.82080346 Z M56.4160763,34.7818749 C57.4100049,34.2115177 59.1039335,35.4240177 59.8442906,34.2333035 C59.0860763,34.6836606 57.0921477,33.7133035 56.4160763,34.7818749 Z M61.6271477,29.9829463 C61.2682192,29.9440177 60.940362,29.9361606 61.077862,30.3940177 C61.4371477,30.4325892 61.6685763,30.3440177 61.6271477,29.9829463 Z M30.9047549,54.532232 C31.8922549,54.9633035 33.4547549,54.9261606 34.4708263,54.9443749 C33.920112,55.4754463 31.8329692,54.7336606 30.9047549,55.7675892 C32.5361835,55.7636606 33.9508263,55.872232 34.6079692,56.1790177 C34.102612,56.5015177 33.2608263,55.8908035 32.6879692,56.4529463 C33.9947549,57.319732 36.3946477,56.9575892 38.585362,56.8643749 C38.3207192,56.0329463 36.6260763,56.6293749 36.1167906,56.0418749 C36.9664335,55.592232 37.9060763,56.0843749 38.585362,55.492232 C37.9832192,54.9525892 36.6260763,55.1668749 35.9796477,54.6700892 C37.4089335,54.3965177 37.8396477,54.3333035 39.4082192,54.1208035 C38.0957192,53.2411606 33.2429692,53.0236606 30.9047549,54.532232 Z M33.3733263,122.970446 C33.2608263,120.752946 33.0379692,118.644375 32.6879692,116.662232 C32.557612,118.576875 32.8286835,121.275803 33.3733263,122.970446 Z M32.0029692,105.141875 C32.6222549,102.869375 32.172612,99.3068749 32.1397549,96.7754463 C31.4590406,99.3279463 32.0797549,102.562946 32.0029692,105.141875 Z M34.6079692,67.1504463 C34.6233263,70.5968749 34.5861835,74.714732 34.6079692,77.7111606 C35.1347549,77.2686606 35.1547549,76.3815177 35.1572549,75.6540177 C35.162612,73.1308035 34.8379692,69.7708035 35.1572549,67.0133035 L35.1572549,66.602232 C34.8043977,66.6150892 34.9604692,67.1365177 34.6079692,67.1504463 Z M40.7796477,100.615446 C39.9935763,102.435446 40.4367906,105.483303 40.0946477,107.747232 C41.1835763,106.331161 40.597862,103.057232 40.7796477,100.615446 Z"></path>
                    </g>
                    <g id="Key" transform="translate(90.571429, 90.214286) scale(-1, 1) rotate(-315.000000) translate(-90.571429, -90.214286) translate(57.000000, -3.000000)">
                        <path d="M27.3393977,160.002089 C26.9233263,159.328518 25.2158263,159.362446 24.7329692,159.864589 C25.3447549,159.989911 26.7004692,160.120268 27.3393977,160.002089 Z M23.2247549,158.081018 C22.975112,158.379553 22.1033263,158.057768 21.8536835,158.354911 C21.972612,158.877089 23.0154692,158.473518 23.3618977,158.767768 C23.4747549,158.379553 23.1683263,158.412411 23.2247549,158.081018 Z M10.3318977,20.519732 C9.81225488,22.1204463 7.40511203,22.2125892 6.7665406,20.7936606 C7.47761203,20.0258035 9.37689774,19.4658035 10.3318977,20.519732 Z M10.6072549,18.5990177 C10.4193977,19.8636606 7.23189774,19.874732 7.04118345,18.4615177 C8.04975488,18.1154463 9.49082631,18.3233035 10.6072549,18.5990177 Z M8.96082631,15.9936606 C9.92761203,15.8708035 11.9665406,15.9204463 11.9790647,16.5425892 C11.9879692,17.0550892 9.51868345,18.2215177 8.41225488,17.7761606 C7.09618345,17.2454463 7.87011203,16.1311606 8.96082631,15.9936606 Z M10.4693977,13.6615177 C12.0268977,13.447232 13.960112,13.9250892 15.2693977,14.0729463 C15.0097549,15.4454463 8.78546917,15.6950892 8.82368345,14.4840177 C8.83618345,14.0883035 10.3511835,13.6786606 10.4693977,13.6615177 Z M11.1554692,12.0165177 C15.042612,11.7729463 19.3990406,12.4183035 23.087612,12.1529463 C24.4111835,12.0579463 25.2340406,11.9086606 25.8304692,12.8390177 C24.2747549,13.5983035 22.4172549,12.8265177 20.7561835,12.8390177 C19.2579692,12.8493749 17.8990406,13.3658035 16.5043977,13.3875892 C15.9365406,13.3965177 15.2886835,13.0250892 14.7211835,13.1133035 C13.3533263,13.3258035 10.9040406,13.5190177 9.92082631,12.427232 C9.92868345,11.8386606 10.8893977,11.544732 11.1554692,12.0165177 Z M13.4868977,9.54651774 C14.187612,10.2043749 14.8843977,9.73651774 15.8186835,9.82080346 C16.4768977,9.88080346 17.1272549,10.232232 17.7393977,10.232232 C20.390112,10.2375892 24.4183263,9.27937489 26.1047549,10.9186606 C25.1658263,11.8243749 23.8011835,11.167232 22.8133263,11.1925892 C18.9268977,11.292232 15.0911835,11.4500892 11.1554692,10.7815177 C11.2872549,9.72508917 12.4118977,9.6611606 13.4868977,9.54651774 Z M14.3097549,7.62723203 C18.5922549,8.18937489 23.1640406,7.43330346 27.202612,8.17580346 L27.202612,8.99794631 C25.7547549,9.4711606 23.6204692,9.18044631 22.265112,9.13473203 C19.1836835,9.03544631 15.5483263,9.5036606 13.350112,8.44973203 C13.6508263,8.15580346 14.1115406,8.02330346 14.3097549,7.62723203 Z M29.9443977,5.84437489 C30.1111835,5.87223203 30.0293977,5.99580346 29.9443977,6.11758917 C27.7215406,7.40794631 25.0822549,6.92687489 22.265112,6.94151774 C20.2404692,6.9511606 17.6858263,7.40580346 15.8186835,6.39187489 C20.0647549,5.26080346 25.9736835,6.40758917 29.9443977,5.84437489 Z M58.8835763,23.262232 C59.0625049,24.1261606 58.5785763,24.3290177 58.4721477,24.9079463 C58.2596477,24.7733035 58.497862,23.5086606 58.8835763,23.262232 Z M23.4993977,4.47187489 C24.0104692,4.4861606 24.492612,4.2286606 25.0072549,4.19794631 C27.5093977,4.05044631 29.6490406,4.31080346 31.8658263,4.33508917 C34.130112,4.35973203 36.520362,4.35080346 38.7225049,4.47187489 C41.7767906,4.64187489 44.8667906,4.87937489 47.5007192,3.92401774 C43.8489335,3.97901774 40.5071477,3.50937489 37.2146477,3.78651774 C36.8721477,3.8086606 36.7889335,3.57044631 36.5282192,3.51258917 C33.9811835,3.82008917 31.4008263,3.64187489 29.2590406,3.51258917 C27.4079692,3.40080346 25.3247549,4.12294631 23.6365406,3.1011606 C25.9054692,2.47723203 28.1222549,3.28044631 30.2186835,3.1011606 C34.2093977,2.75901774 38.4239335,2.61258917 42.4257192,2.68937489 C42.6096477,2.46151774 43.1457192,2.58651774 43.1114335,2.14080346 C40.307862,2.20580346 37.5721477,1.94544631 34.4708263,1.86723203 C32.1786835,1.8086606 29.6536835,2.45580346 27.8883263,1.59294631 C31.535112,0.0140177434 37.6460763,1.20401774 41.0539335,1.18008917 C49.9871477,3.13223203 58.3721477,5.9136606 62.8617906,12.8390177 C63.3025049,14.7393749 64.6039335,17.7361606 65.7414335,20.107232 C65.7617906,22.5804463 66.490362,24.2633035 65.1932192,27.1029463 C64.7146477,27.504732 62.7342906,27.0686606 62.312862,27.9250892 C63.0264335,28.1283035 64.2485763,27.927232 64.3696477,28.7479463 C64.5542906,29.9943749 62.4932192,29.447232 61.9017906,30.3940177 C62.4957192,30.7658035 63.0214335,30.3629463 63.5471477,30.8050892 C63.4232192,31.869732 61.9442906,31.5790177 61.6271477,32.4515177 C61.7810763,32.7525892 62.2310763,32.7615177 62.5871477,32.8625892 C62.225362,33.9179463 60.6707192,33.7811606 59.9810763,34.5083035 C60.5321477,34.4600892 60.3425049,35.1533035 60.6664335,35.3315177 C59.8110763,36.9186606 56.5500049,35.5893749 55.455362,37.1143749 C56.5542906,37.1061606 57.6082192,36.6100892 58.3357192,37.2518749 C56.3417906,38.9311606 53.5007192,38.2483035 50.9292906,38.7604463 C52.1589335,38.9508035 53.2421477,38.8754463 54.0832192,39.0343749 C51.6646477,41.0043749 48.2014335,41.9304463 45.1689335,43.2861606 C43.2171477,44.6265177 42.2046477,46.9043749 41.4664335,49.457232 C41.765362,50.3893749 40.9125049,51.1304463 40.642862,51.9268749 C40.2721477,52.242232 39.1400049,51.794732 38.9967906,52.3386606 C39.3850049,53.5954463 41.6607192,52.9665177 42.2889335,53.9833035 C42.0639335,54.8936606 42.7371477,54.907232 42.8371477,55.492232 C42.5510763,55.9929463 42.7467906,56.1243749 42.5632192,56.7275892 C40.8964335,57.8536606 36.8657192,58.084732 33.922612,57.687232 C33.2308263,57.5925892 32.2847549,57.0643749 31.5904692,56.8643749 C29.7168977,56.322232 29.6704692,55.2200892 30.7679692,53.572232 C32.7586835,52.4511606 36.1071477,53.8986606 38.1739335,52.2011606 C36.5750049,51.982232 35.2468977,51.7768749 33.922612,51.6525892 C34.2090406,50.9333035 35.6640406,51.382232 36.2539335,50.9668749 C36.2232192,50.7065177 36.4085763,50.6633035 36.3907192,50.4179463 C35.6304692,49.8436606 33.7208263,50.6500892 33.3733263,49.594732 C34.3893977,49.157232 35.9125049,49.1100892 37.6257192,49.3204463 C37.5671477,48.9415177 38.1371477,49.192232 38.1739335,48.9093749 C36.4025049,47.5433035 34.1397549,48.8350892 32.2768977,47.5379463 C33.6040406,46.0515177 37.5432192,47.5704463 38.585362,46.0300892 C36.9442906,46.3700892 33.8343977,45.754732 31.5904692,46.3036606 C31.2118977,45.9958035 30.272612,45.6736606 30.7679692,44.932232 C33.3047549,44.1915177 36.5839335,44.9604463 39.2707192,43.9715177 C37.582862,43.7654463 35.6590406,43.9393749 33.6479692,43.9715177 C31.2015406,44.0118749 28.7658263,43.9358035 27.4768977,42.6008035 C32.3986835,42.2090177 36.2300049,42.7050892 40.7796477,42.0518749 C35.6647549,41.277232 30.7008263,42.0850892 25.0072549,41.7775892 C24.5008263,41.1865177 23.4518977,41.1386606 22.9504692,40.5429463 C28.9015406,39.6950892 35.5829692,41.3493749 41.8775049,39.994732 C37.562862,39.1868749 33.1597549,40.2765177 28.847612,39.5825892 C24.2633263,40.0418749 19.7433263,40.152232 16.6415406,37.8004463 C19.0733263,37.3558035 21.5722549,38.5908035 24.1843977,37.8004463 C25.7497549,38.1850892 27.4068977,38.3254463 29.5336835,38.4861606 C31.7515406,38.6529463 34.1640406,38.0065177 35.842862,38.7604463 C37.9057192,38.5043749 40.3810763,39.0911606 42.0150049,38.4861606 C41.4232192,37.6183035 39.2317906,38.492232 38.4485763,37.9368749 C42.3832192,37.1804463 43.7664335,33.4668749 44.2085763,29.9829463 C50.267862,30.367232 57.4400049,30.9940177 59.7064335,25.3193749 C61.9421477,20.0565177 58.1485763,15.9293749 54.0832192,14.4840177 C54.2060763,14.4040177 54.8664335,14.1958035 54.4950049,14.0729463 C53.6767906,13.9500892 51.2775049,14.0808035 49.9696477,13.7990177 C48.0696477,13.3890177 45.5857192,14.2440177 44.6200049,13.7990177 C42.1796477,12.6725892 46.035362,12.1704463 47.2260763,12.1529463 C47.8410763,12.8790177 48.8689335,12.294732 49.5571477,12.2900892 C51.0289335,12.2793749 53.3185763,13.0150892 54.0832192,11.7418749 C50.1085763,11.6279463 46.5192906,12.1054463 43.522862,11.329732 C43.3657192,10.7615177 43.8107192,10.7958035 43.7971477,10.3700892 C44.8921477,10.3829463 45.2525049,10.5025892 45.8546477,10.0950892 C46.287862,10.4175892 47.7889335,10.5415177 47.6375049,9.95830346 C48.512862,10.7004463 49.965362,10.129732 50.6550049,9.82080346 C48.9950049,10.0918749 47.1160763,9.0361606 45.1689335,10.0950892 C45.2725049,9.23901774 42.782862,9.97044631 42.4257192,9.13473203 C42.4232192,8.81258917 42.6617906,8.73223203 42.5632192,8.31223203 C44.9360763,8.36401774 46.7864335,8.36187489 49.0085763,8.44973203 C49.7060763,8.47794631 50.4196477,8.4436606 51.0660763,8.44973203 C52.4860763,8.46437489 54.4307192,8.67901774 54.9067906,7.49008917 C52.1067906,7.45758917 49.9375049,7.28330346 47.0892906,7.35294631 C44.1039335,7.42437489 41.2150049,7.9986606 39.6825049,6.39187489 C44.3135763,6.01544631 49.1364335,6.71223203 52.1639335,5.9811606 C50.2110763,5.26080346 49.0285763,5.77723203 46.677862,5.56973203 C46.5350049,5.80473203 45.7075049,5.57223203 46.1289335,5.9811606 C43.0275049,5.25151774 39.8875049,5.4386606 37.0775049,5.56973203 C36.2807192,4.77901774 35.3086835,5.44508917 34.3333263,5.02080346 C31.1204692,5.50187489 27.2797549,5.30758917 24.1843977,5.29508917 C22.4358263,5.28830346 20.5333263,5.35544631 18.8358263,4.7461606 C19.9143977,3.33330346 21.8633263,4.42937489 23.4993977,4.47187489 Z M41.8775049,95.2675892 C41.9042906,96.1018749 41.6000049,96.9100892 41.6035763,97.7350892 C41.6189335,103.758661 41.7082192,108.394375 41.1910763,113.782232 C40.3482192,117.157946 39.7742906,119.548303 39.9567906,122.696518 C39.4967906,125.847946 39.4482192,128.031518 39.8196477,131.336875 C40.0321477,133.224732 40.1489335,135.644732 39.4082192,136.822589 C39.0860763,137.049375 38.3542906,136.866161 38.3110763,137.371875 C38.995362,138.468661 41.0935763,137.587232 42.0150049,138.605089 C42.3835763,139.679375 41.7325049,139.502232 42.2889335,140.389732 C41.9839335,140.495803 41.5450049,140.467946 41.4664335,140.800803 C41.810362,140.777946 41.7992906,141.107232 42.0150049,141.212589 C41.7232192,141.671518 40.6625049,142.131518 41.1910763,142.583303 C39.8257192,142.934375 39.0817906,143.019375 37.9000049,142.857589 C37.5071477,142.644732 38.1857192,142.218303 37.762862,142.034732 C37.4300049,142.124018 37.1557192,142.037946 36.9400049,141.760803 C37.4732192,141.783303 38.3907192,141.637589 38.7225049,141.074732 C38.1571477,140.634018 36.8246477,140.962589 36.5282192,140.252232 C36.5410763,139.716161 37.4714335,140.098303 37.4889335,139.566875 C36.277862,138.800803 35.0658263,138.868661 34.0593977,139.018303 C35.1561835,138.411161 37.0585763,138.647232 37.6257192,136.960089 C35.932862,136.732232 33.8643977,136.881518 32.2768977,136.548661 C30.8522549,133.432589 32.2997549,129.295803 32.1397549,126.399732 C31.9154692,125.866518 31.7811835,125.503303 32.2768977,125.165089 C32.7683263,127.821161 32.0661835,131.161875 32.2768977,133.531518 C33.2340406,127.684375 33.4233263,121.659375 31.4533263,115.565089 C31.6422549,117.778661 32.4479692,119.868661 32.4140406,121.736518 C32.3983263,122.604375 32.6004692,123.873303 32.0029692,124.480089 C32.1554692,120.383661 30.9904692,117.336161 30.4940406,113.506875 C30.430112,113.016161 30.3140406,111.647589 30.7679692,111.450089 C30.9108263,112.199018 30.6333263,114.241875 31.4533263,115.016518 C31.9172549,111.582589 30.2483263,108.295446 30.9047549,104.866875 C31.1254692,106.594375 31.5429692,110.954732 32.2768977,114.056161 C31.3222549,107.516518 31.172612,98.887232 31.8658263,92.6604463 C31.0218977,95.6936606 30.9797549,99.2675892 30.9047549,101.575089 C30.412612,95.1533035 31.3154692,89.9829463 32.0029692,84.157232 C32.0908263,83.4093749 32.4815406,82.6593749 32.5515406,81.9629463 C32.7443977,80.027232 32.5961835,77.949732 32.6879692,75.9279463 C32.8836835,71.6011606 32.902612,66.789732 33.0993977,62.3500892 C33.497612,61.9668749 34.0797549,61.0486606 34.4708263,61.1165177 C33.2908263,62.6308035 33.2933263,65.7425892 33.3733263,68.109732 C33.6190406,75.2936606 32.7868977,83.2829463 32.2768977,89.6433035 C33.0843977,85.8790177 33.115112,81.3386606 34.1965406,77.8483035 C34.1368977,74.5550892 33.9315406,71.1450892 34.0593977,67.8361606 C34.142612,65.6750892 34.035112,62.7908035 35.4315406,61.2533035 C36.8107192,61.1125892 38.1742906,60.7511606 38.8592906,62.0761606 C38.437862,62.1786606 38.6925049,61.6033035 38.1739335,61.802232 C38.0442906,63.1218749 38.9982192,64.2408035 39.1339335,65.2300892 C39.4050049,67.2025892 38.8942906,69.479732 38.8592906,71.402232 C38.7960763,74.9950892 38.532862,79.6061606 40.0946477,84.4315177 C39.5557192,78.9779463 39.0860763,72.6615177 39.6825049,67.0133035 C39.7489335,66.392232 39.777862,65.4990177 40.3685763,65.0936606 C40.6664335,69.8154463 39.4467906,74.4990177 39.9567906,78.944732 C40.1510763,80.639732 40.672862,82.2368749 40.7796477,83.882232 C41.0346477,87.8158035 41.7492906,91.5361606 41.8775049,95.2675892 Z M42.5632192,107.335446 C43.1389335,101.649732 42.7785763,95.229732 42.2889335,90.0536606 C43.1910763,95.127232 43.4071477,102.087232 42.5632192,107.335446 Z M38.9967906,150.127589 C39.1507192,148.621875 38.4675049,147.234375 39.4082192,146.286518 C39.0657192,148.169375 39.5989335,149.324375 38.9967906,150.127589 Z M38.7225049,179.614553 C38.6157192,176.953875 38.7460763,175.384196 39.1339335,173.306339 C39.352862,175.663482 39.0632192,177.587446 38.7225049,179.614553 Z M39.2707192,160.687411 C39.2510763,163.397768 39.1392906,165.917446 38.8592906,169.327768 C38.7696477,167.285625 38.8267906,165.372089 38.7225049,163.431339 C38.5100049,159.454553 38.892862,154.625625 38.8592906,150.539018 C39.0350049,150.531161 39.0500049,150.362946 39.2707192,150.401518 C39.3775049,151.922089 39.3589335,153.593482 39.1339335,154.790303 C38.7296477,156.947411 39.2842906,158.814196 39.2707192,160.687411 Z M34.3333263,183.318161 C34.2397549,178.918482 34.5208263,174.409553 34.7447549,170.013839 C34.9543977,165.914553 34.5029692,159.613875 34.8822549,154.516375 C35.0208263,152.656732 34.9915406,151.244196 35.0190406,149.305089 C35.0554692,146.867946 35.0622549,143.601518 38.585362,144.229732 C39.0514335,145.014018 39.1610763,145.376518 39.2707192,146.149732 C38.8685763,146.307232 38.7617906,145.491875 38.585362,145.875446 C38.252862,146.952232 38.1621477,148.172589 38.1739335,149.305089 C38.230362,154.413125 37.7810763,161.805982 38.0371477,166.858875 C38.1664335,169.416018 38.4575049,171.823839 38.3110763,174.266018 C38.187862,176.311339 37.5610763,180.045982 38.3110763,182.630982 C38.6782192,182.291696 38.0160763,180.703518 38.7225049,180.574196 C38.512862,181.629946 38.5367906,182.576732 39.4082192,182.904911 C38.3357192,183.889553 35.7739335,182.865303 34.3333263,183.318161 Z M33.922612,162.607053 C33.8043977,167.884911 33.742612,172.882411 32.962612,177.008125 C33.1872549,166.755625 33.5168977,154.551339 33.922612,146.560803 C33.9529692,146.454375 34.0365406,146.402232 34.1965406,146.423661 C34.0840406,151.347446 34.0393977,157.404553 33.922612,162.607053 Z M32.962612,183.180625 C32.7793977,182.116696 32.6461835,179.426339 33.0993977,177.967768 C33.0986835,179.030625 33.3154692,180.012053 33.3733263,180.985625 C33.407612,181.543482 33.560112,183.005661 32.962612,183.180625 Z M32.962612,145.601161 C32.540112,157.843839 32.4740406,170.441018 31.7283263,182.356696 C32.1140406,170.208125 32.3215406,157.031732 32.962612,145.601161 Z M31.4533263,160.687411 L31.4533263,158.767768 C31.5197549,154.736375 31.7668977,150.624553 31.7283263,146.149732 C31.7572549,145.995446 31.8804692,145.935446 32.0029692,145.875446 C31.8722549,150.544732 31.6747549,155.147768 31.5904692,159.864589 L31.5904692,160.687411 C31.690112,161.183839 31.3543977,161.183839 31.4533263,160.687411 Z M31.8658263,139.292589 C31.9454692,138.443303 32.8418977,139.098303 32.962612,139.430089 C32.4540406,139.527232 32.3736835,139.195803 31.8658263,139.292589 Z M31.4533263,139.292589 C32.260112,140.731518 33.5261835,139.337232 34.8822549,140.252232 C33.7922549,140.487946 32.5361835,140.557589 31.8658263,141.212589 C32.7497549,141.598661 34.2665406,141.307232 35.0190406,141.760803 C34.2708263,141.967232 32.4833263,141.601161 32.0029692,142.445803 C30.3061835,142.666518 29.2097549,139.707232 31.4533263,139.292589 Z M31.7283263,81.414732 C31.1740406,81.7961606 31.8386835,83.4404463 31.042612,83.882232 C31.2293977,82.7486606 31.0815406,81.589732 31.7283263,81.414732 Z M31.8658263,70.579732 C32.6168977,70.8304463 32.0815406,71.719732 32.0029692,71.9508035 C31.5915406,71.6568749 31.9690406,71.2850892 31.8658263,70.579732 Z M32.0029692,70.4425892 C31.615112,69.4879463 31.5297549,67.8708035 31.8658263,67.5618749 C31.7040406,68.4111606 32.2540406,69.607232 32.0029692,70.4425892 Z M29.9443977,96.7754463 C29.9461835,94.8093749 30.277612,90.2600892 30.7679692,87.037232 C30.9565406,87.0440177 31.0690406,86.9729463 31.1797549,86.9004463 C31.025112,89.5454463 30.4079692,92.6090177 30.2186835,95.129732 C30.197612,95.4193749 30.4440406,97.0000892 29.9443977,96.7754463 Z M28.9847549,36.4293749 C29.4472549,36.9718749 30.1758263,37.2504463 30.7679692,37.6633035 C27.275112,37.6208035 22.777612,37.7033035 19.1097549,37.1143749 C17.1997549,36.807232 15.0704692,36.9133035 13.7615406,35.7429463 C18.3615406,35.6911606 23.9804692,35.6650892 28.9847549,36.4293749 Z M11.9790406,33.9600892 C13.8129692,33.0829463 16.1240406,33.907232 18.4247549,33.9600892 C19.745112,33.9904463 20.7154692,33.8661606 21.9911835,33.9600892 C24.017612,34.109732 26.4918977,33.9011606 27.4768977,35.3315177 C23.4329692,35.457232 18.1086835,35.229732 13.7615406,35.057232 C13.3211835,34.5375892 12.1772549,34.7208035 11.9790406,33.9600892 Z M9.78368345,31.4915177 C12.4918977,30.839732 15.3372549,31.5918749 18.1504692,31.6290177 C19.5340406,31.6458035 20.2154692,31.8790177 21.3043977,31.9033035 C21.920112,31.9168749 22.4758263,31.7065177 23.087612,31.7658035 C24.0922549,31.864732 25.7465406,31.864732 26.2415406,32.8625892 C23.3440406,34.1865177 19.1179692,33.1115177 15.5443977,32.999732 C14.8718977,32.9783035 14.152612,33.3308035 13.4868977,33.2740177 C12.1936835,33.1633035 10.4383263,32.4779463 9.78368345,31.4915177 Z M9.23546917,29.4340177 C10.0311835,28.724732 11.7265406,29.0425892 12.9383263,29.1593749 C15.2654692,28.3961606 17.7036835,30.5533035 20.3443977,30.6683035 C20.8347549,30.689732 21.3129692,30.402232 21.7158263,30.3940177 C22.157612,30.3854463 22.5461835,30.679732 22.9504692,30.6683035 C24.050112,30.6383035 24.7418977,29.8800892 25.967612,29.844732 C26.0072549,31.7425892 23.7886835,30.9661606 22.6765406,30.9425892 C21.3011835,30.9129463 19.7297549,31.1711606 18.1504692,31.0804463 C17.165112,31.022232 16.1693977,30.7211606 15.2693977,30.6683035 C13.3061835,30.5536606 10.1718977,31.5993749 9.23546917,29.4340177 Z M22.5390406,27.1029463 C21.9115406,27.1425892 20.2415406,27.509732 19.6586835,26.8279463 C20.5983263,26.929732 21.7861835,26.3711606 22.5390406,27.1029463 Z M30.7679692,36.0179463 C28.9865406,35.6879463 27.3593977,33.372232 27.6136835,31.354732 C26.705112,29.9204463 27.567612,27.8318749 28.9847549,26.9658035 C29.2683263,28.1911606 28.9708263,29.0986606 28.9847549,29.9829463 C29.0029692,31.0743749 30.2118977,32.7293749 31.1797549,33.5483035 C32.5297549,34.6929463 34.4804692,34.6486606 35.7054692,35.3315177 C35.0379692,35.9036606 33.8715406,35.4661606 33.3733263,35.057232 C32.9786835,35.0736606 33.1358263,35.6415177 32.6879692,35.6058035 C31.4240406,35.6404463 30.897612,33.5165177 29.807612,34.6450892 C29.9404692,35.2411606 31.0458263,35.4529463 30.7679692,36.0179463 Z M37.0775049,34.7818749 C36.9925049,35.2079463 36.4685763,35.4868749 36.2539335,35.057232 C36.6860763,35.1236606 36.5646477,34.6361606 37.0775049,34.7818749 Z M39.1339335,8.31223203 C39.1492906,8.14473203 39.1757192,7.98794631 39.4082192,8.0386606 C40.5139335,9.12687489 41.6660763,10.1686606 42.0150049,12.0165177 C40.9632192,10.8725892 40.457862,9.18294631 39.1339335,8.31223203 Z M39.2707192,9.82080346 C39.2864335,9.6536606 39.3121477,9.49687489 39.5457192,9.54651774 C40.387862,10.8086606 41.2210763,12.0768749 41.3282192,14.0729463 C40.570362,12.7279463 40.3846477,10.8108035 39.2707192,9.82080346 Z M55.8664335,17.502232 C55.922862,17.7661606 56.3989335,17.6093749 56.2785763,18.0504463 C55.175362,17.6883035 54.4146477,16.2575892 53.1235763,16.5425892 C54.1600049,17.289732 55.167862,18.0643749 56.140362,18.8733035 C54.9750049,18.8200892 54.6642906,17.8583035 53.8092906,18.187232 C53.9646477,18.4954463 54.8182192,18.8161606 54.4950049,19.147232 C50.827862,17.019732 46.790362,16.9150892 42.8371477,17.6393749 C42.1950049,17.7565177 41.6775049,18.4590177 41.0539335,17.9136606 C42.2257192,16.9918749 43.1889335,15.2508035 44.7567906,15.1690177 C44.9989335,15.0461606 45.1817906,14.8633035 45.3064335,14.6211606 C48.5007192,14.4393749 53.6950049,14.0361606 55.5921477,16.5425892 C56.3492906,16.694732 57.8771477,17.7593749 58.0610763,18.4615177 C57.5510763,17.999732 56.5775049,16.8908035 55.8664335,17.502232 Z M48.0489335,27.2400892 C48.830362,27.1629463 50.0150049,27.017232 50.3807192,27.3768749 C49.6521477,27.3633035 48.5010763,27.8158035 48.0489335,27.2400892 Z M49.6942906,28.8850892 C50.5539335,28.717232 51.6707192,29.0175892 52.575362,28.8850892 C52.787862,28.8543749 52.8739335,28.5400892 53.1235763,28.4736606 C53.5317906,28.3665177 53.9785763,28.677232 54.357862,28.6108035 C55.2432192,28.4565177 56.1807192,27.6150892 56.0035763,27.2400892 C56.4757192,27.8454463 57.4889335,26.0840177 57.2382192,26.8279463 C56.8364335,28.252232 55.2639335,28.5108035 54.0832192,28.7479463 C53.5342906,28.8590177 53.0771477,29.2129463 52.575362,29.2965177 C49.4582192,29.8136606 45.5764335,29.424732 43.3857192,28.062232 C43.4460763,27.4079463 42.895362,27.364732 42.8371477,26.8279463 C44.3517906,26.7161606 45.6732192,26.9115177 47.2260763,27.2400892 C47.4460763,27.7786606 46.6332192,27.2875892 46.677862,27.6515177 C47.1339335,28.1643749 49.2875049,27.8950892 49.6942906,28.8850892 Z M30.9047549,20.107232 C30.8683263,17.9211606 30.0579692,14.6475892 31.1797549,12.7018749 C31.4572549,12.2200892 32.1829692,11.7143749 32.5515406,11.329732 C33.0704692,10.787232 33.5158263,10.239732 34.1965406,10.0950892 C35.5261835,10.2429463 37.0117906,10.2340177 38.0371477,10.6443749 C40.2039335,13.0558035 39.9585763,16.459732 39.4082192,19.147232 C42.5985763,19.3208035 46.122862,17.4633035 49.8310763,18.0504463 C50.692862,18.1858035 51.8742906,18.9240177 52.8496477,19.4218749 C53.4500049,19.7293749 53.9885763,19.7650892 54.357862,20.107232 C56.0232192,21.652232 54.8996477,24.7243749 53.5350049,25.5936606 C52.9867906,25.942232 51.0585763,26.344732 50.3807192,26.417232 C48.4525049,26.6211606 45.3439335,26.2279463 43.522862,25.8679463 C42.2471477,25.6154463 41.157862,24.7511606 39.8196477,25.0443749 C39.9260763,26.7461606 40.6942906,28.0911606 40.3685763,29.7075892 C40.1107192,30.9850892 39.1139335,31.884732 38.7225049,32.999732 C36.9985763,33.9011606 35.6347549,34.4358035 33.785112,33.9600892 C30.4408263,33.099732 29.7890406,28.4229463 30.3568977,24.6329463 C26.1490406,25.9090177 20.6736835,26.8529463 16.5043977,24.2218749 C15.9293977,23.1943749 15.4386835,21.9779463 15.8186835,20.9308035 C16.7908263,18.2443749 21.615112,18.0104463 24.3211835,18.3243749 C26.5429692,18.8008035 28.3393977,20.4340177 30.9047549,20.107232 Z M27.6136835,10.6443749 C28.5165406,7.93401774 31.7718977,5.69794631 35.1572549,6.80473203 C34.3743977,7.16544631 32.5961835,6.5286606 32.6879692,7.76437489 C33.352612,7.98258917 34.8358263,7.21830346 35.4315406,8.0386606 C34.695112,8.07901774 33.680112,7.8411606 33.6479692,8.58723203 C35.0854692,8.6586606 36.4735763,8.77973203 37.2146477,9.54651774 C35.6486835,9.4311606 34.4490406,8.79401774 33.0993977,9.27223203 C31.3065406,9.9086606 29.6304692,12.9958035 29.3965406,14.8958035 C29.2636835,15.9743749 29.5904692,17.044732 29.5336835,18.0504463 C28.9615406,16.644732 27.3561835,15.1950892 27.202612,13.3875892 C27.1161835,12.379732 27.8511835,11.7104463 27.6136835,10.6443749 Z M20.2068977,13.9361606 C21.4683263,13.6765177 23.2897549,13.8265177 24.4586835,14.6211606 C23.8386835,14.594732 23.1586835,14.5086606 23.3618977,15.3075892 C24.5186835,15.2936606 25.4818977,15.4736606 26.1047549,15.9936606 C25.3968977,16.0440177 24.6165406,15.3129463 24.3211835,16.1300892 C24.4697549,16.6683035 25.2547549,16.5690177 25.6933263,16.8165177 C25.6015406,17.0540177 25.5861835,17.6343749 26.1047549,17.9136606 C22.1004692,16.8579463 15.577612,17.0665177 14.8579692,21.2050892 C14.1829692,25.0886606 16.8458263,25.8568749 19.5215406,26.8279463 C18.1286835,27.019732 16.7429692,26.0508035 15.5443977,25.5936606 C14.2833263,26.0365177 14.132612,25.1415177 13.350112,24.7700892 C12.6311835,25.3418749 13.6508263,26.1983035 14.0354692,26.8279463 C10.880112,25.4254463 10.9236835,21.199732 12.3904692,18.187232 C14.1247549,16.2450892 16.8440406,13.8929463 20.0697549,14.3468749 C20.157612,14.0483035 19.6818977,13.9111606 20.2068977,13.9361606 Z M7.5890406,27.1029463 C9.01832631,26.9625892 12.4733263,26.6340177 13.4868977,28.3368749 C10.982612,27.8018749 8.7265406,29.274732 7.5890406,27.1029463 Z M9.92082631,23.8108035 C9.18296917,24.1404463 7.98832631,23.8550892 7.5890406,23.3986606 C7.55761203,22.8643749 7.8840406,22.6883035 8.00082631,22.3018749 C8.84725488,22.402232 9.38046917,22.2758035 10.0579692,22.7136606 C10.0411835,23.1079463 10.1333263,23.612232 9.92082631,23.8108035 Z M7.17868345,25.4568749 C7.38332631,23.8304463 9.63332631,24.9565177 10.6072549,24.4965177 C10.7443977,25.227232 11.2108263,25.629732 11.430112,26.2800892 C9.62225488,26.1061606 7.74689774,26.6975892 7.17868345,25.4568749 Z M29.2590406,156.435625 C28.1608263,156.911339 27.5490406,156.545268 26.5158263,156.572768 C25.3383263,156.604911 24.012612,156.483161 23.2247549,157.120661 C24.3886835,156.906732 25.187612,157.776018 25.8304692,156.983839 C26.6915406,157.728482 28.6122549,157.041018 29.5336835,157.669196 C28.4993977,158.233518 26.7522549,158.006732 25.8304692,158.493518 C27.1990406,158.820268 28.6322549,158.406018 29.807612,159.042446 C29.3958263,160.063875 28.2990406,158.897446 28.1618977,160.139196 C29.1447549,160.262446 30.4086835,159.740303 30.3568977,161.098839 C29.8922549,161.268125 28.3793977,160.729232 27.7508263,161.373518 C28.3511835,161.699911 28.9072549,161.699911 29.6704692,161.646732 C29.7940406,161.935303 29.8836835,162.257411 30.0818977,162.470303 C29.5654692,162.297446 28.6122549,162.440661 28.4365406,163.018125 C29.1868977,162.979946 29.780112,162.789911 29.9443977,163.568161 C29.6704692,163.978125 28.6208263,163.614589 28.5736835,164.253839 C28.9540406,164.444589 29.8215406,164.072446 29.9443977,164.802053 C28.9986835,165.452089 28.340112,164.853518 27.4768977,165.487803 C28.302612,166.119553 29.6215406,165.663482 29.9443977,166.584196 C29.3336835,166.828518 28.292612,167.265661 27.7508263,167.132768 C27.3690406,165.743482 25.6233263,167.033161 24.870112,166.310982 C24.922612,165.060625 25.0618977,162.574196 24.7329692,161.235982 C23.1111835,160.758125 21.9833263,161.655268 20.7561835,161.235982 C21.0004692,159.516732 20.6040406,158.458518 20.6190406,156.983839 C19.825112,156.840625 19.0129692,156.432446 18.1504692,156.435625 C15.6668977,156.446696 13.1418977,156.454196 10.6072549,156.298875 C8.52189774,156.170661 6.50939774,156.281732 5.12046917,156.709946 C4.26475488,156.267768 2.93475488,157.148875 2.9265406,155.887446 C10.1565406,155.925625 13.5040406,155.723875 21.0304692,155.612768 C21.1022549,155.409589 21.232612,155.267411 21.3043977,155.064553 C15.1904692,154.887089 9.0515406,155.478839 4.02368345,155.201696 C4.05261203,154.577803 3.08261203,154.955268 2.9265406,154.516375 C5.3190406,154.000268 7.80975488,154.395661 9.78368345,154.378875 C11.6611835,154.362446 12.9079692,154.496018 15.1322549,154.516375 C15.9686835,154.521696 18.2836835,154.174232 17.0533263,153.967803 C17.4308263,153.843161 18.0161835,153.924553 18.287612,153.693482 C18.5068977,153.152411 17.6947549,153.645625 17.7393977,153.280268 C21.112612,153.385661 25.9672549,153.012411 29.3965406,153.555982 C28.2658263,153.883125 26.7429692,154.021732 25.967612,153.967803 C26.8697549,154.913482 29.9561835,153.485625 30.3568977,155.201696 C28.7858263,155.931696 26.2754692,154.637803 25.1440406,155.749946 C26.460112,155.916339 27.9883263,155.844196 29.2590406,156.435625 Z M30.0818977,171.933839 C26.6879692,171.739232 23.3811835,171.589553 20.0697549,171.658839 C20.8918977,170.617803 23.1115406,171.075661 24.5958263,171.384911 C24.7797549,171.066018 25.3897549,171.174232 25.6933263,170.973518 C26.5797549,171.428125 27.890112,170.943161 28.847612,171.110661 C29.225112,171.177411 30.1933263,171.100268 30.0818977,171.933839 Z M20.0697549,172.344911 C22.1468977,172.327768 24.5497549,172.007446 26.7911835,172.482411 C26.4990406,172.675982 25.3433263,172.504911 24.870112,172.893161 C23.3618977,172.146339 21.1361835,173.608125 20.0697549,172.344911 Z M29.5336835,174.128839 C27.4586835,174.547768 24.6815406,174.473875 23.087612,173.854589 C22.8290406,173.869911 22.9922549,174.307053 22.6765406,174.266018 C16.5104692,173.800661 8.33725488,174.626375 2.37832631,173.717411 C2.61332631,173.365982 2.22082631,173.236339 2.51582631,173.030661 C4.6740406,173.352446 7.00689774,172.885303 8.6865406,172.893161 C13.2633263,172.914553 19.200112,173.541732 23.910112,173.167411 C25.4408263,173.748161 27.3358263,172.814946 29.1218977,173.306339 C29.1990406,173.640303 29.652612,173.597053 29.5336835,174.128839 Z M24.3211835,175.088482 C23.4372549,175.052803 22.5115406,175.489232 21.5786835,174.951339 C21.3729692,175.111732 21.2436835,175.347053 20.8933263,175.362053 C19.2365406,174.886732 17.2272549,175.993125 15.9558263,174.813839 C19.3561835,174.088875 23.6429692,174.818839 27.3393977,175.088482 C28.3190406,175.159196 28.7872549,174.573839 29.2590406,175.499911 C27.587612,176.028482 26.0658263,175.158161 24.3211835,175.088482 Z M10.6072549,175.088482 C9.78082631,175.080303 9.02582631,175.351732 8.41225488,174.951339 C7.7140406,174.800268 7.19261203,175.325268 6.90368345,174.813839 C10.4108263,174.604911 12.3311835,174.557053 15.6815406,174.813839 C14.617612,175.770982 12.3904692,175.105982 10.6072549,175.088482 Z M4.57189774,174.539911 C5.20511203,174.349232 5.77225488,174.399946 6.35475488,174.813839 C5.7740406,174.709196 4.73011203,175.066339 4.57189774,174.539911 Z M2.65261203,174.539911 C2.99296917,174.643518 3.42618345,174.062803 3.61225488,174.539911 C3.49689774,174.668125 2.73796917,174.832803 2.65261203,174.539911 Z M6.35475488,172.070268 C8.0165406,172.121696 9.2865406,172.315625 10.4693977,172.482411 C7.9765406,172.619232 4.55332631,172.400303 2.37832631,172.619232 C3.08832631,171.602089 4.88689774,172.025625 6.35475488,172.070268 Z M5.25725488,170.836696 C5.5640406,171.174232 5.8915406,171.054946 6.21832631,170.836696 C7.26118345,171.544911 9.58725488,170.906375 11.0183263,170.973518 C11.4736835,170.994911 12.362612,170.924196 12.2529692,171.658839 C9.66046917,172.475625 6.39761203,171.018161 3.33796917,171.796696 C3.15511203,171.437411 2.7290406,171.534553 2.37832631,171.658839 C2.9015406,170.529911 4.19118345,171.542089 5.25725488,170.836696 Z M7.04118345,169.877053 C8.68796917,169.863125 10.6508263,169.476018 11.8411835,170.288125 C9.40261203,170.944196 6.73582631,170.491732 4.16046917,170.562446 C3.53368345,170.579553 2.86546917,170.968839 2.37832631,170.288125 C3.83796917,169.288482 5.38225488,169.891018 7.04118345,169.877053 Z M4.16046917,168.642446 C4.91296917,168.600982 5.7165406,168.755661 6.62939774,168.642446 C8.93225488,168.355661 10.6833263,168.234553 11.8411835,169.327768 C8.73868345,169.201696 6.21046917,169.252803 2.65261203,169.327768 C2.72475488,168.509196 3.78332631,168.663161 4.16046917,168.642446 Z M6.7665406,168.093125 C6.66975488,167.757089 5.97868345,168.570303 5.94368345,167.956018 C6.02118345,167.723125 7.3115406,167.744911 6.7665406,168.093125 Z M24.870112,167.407446 C25.100112,166.961696 26.7447549,166.834589 27.0654692,167.407446 C26.590112,167.495268 25.2783263,167.422768 24.870112,167.407446 Z M20.0697549,169.739946 C21.5797549,170.086018 24.2740406,169.602446 25.6933263,169.877053 C27.4090406,169.049589 28.612612,170.696696 29.807612,169.465982 C28.1158263,169.126696 26.2147549,169.137446 24.4586835,169.191375 C24.392612,168.225661 25.7161835,168.873839 25.2815406,168.093125 C27.1811835,167.601018 28.0443977,167.707768 30.0818977,168.093125 L30.0818977,170.425268 C26.9329692,170.441018 23.2565406,170.813161 19.932612,170.288125 C19.9018977,170.029196 20.087612,169.984553 20.0697549,169.739946 Z M3.33796917,157.395625 C6.35118345,156.972089 9.78761203,156.548482 12.9383263,157.258518 C12.7854692,157.384946 12.8954692,157.514196 12.8011835,157.944196 C9.13046917,157.954589 7.19761203,158.097803 4.70939774,157.806339 C4.23046917,157.750982 3.62296917,158.089946 3.33796917,157.395625 Z M13.0754692,159.316339 C11.5940406,159.790625 9.62546917,159.364232 8.27546917,159.316339 C8.10261203,159.310303 7.86582631,159.607803 7.5890406,159.590625 C5.44796917,159.459553 3.80011203,159.725982 2.51582631,158.767768 C6.54225488,158.284553 9.65261203,158.743482 12.9383263,158.630625 C12.8243977,159.017768 13.1311835,158.985625 13.0754692,159.316339 Z M12.9383263,160.413518 C11.1533263,160.020268 8.57582631,161.260625 6.62939774,160.139196 C8.59725488,160.117803 10.765112,159.947768 12.9383263,160.139196 C12.7722549,160.168482 12.8540406,160.291339 12.9383263,160.413518 Z M12.5272549,153.143125 C13.9283263,153.857053 15.9379692,152.764911 16.9165406,153.555982 C14.2883263,153.816696 12.4568977,153.822803 10.4693977,153.693482 C11.0361835,152.946339 11.8861835,153.705661 12.5272549,153.143125 Z M10.7443977,36.7033035 C11.5615406,37.4543749 12.7661835,38.0390177 13.7615406,38.7604463 C14.7747549,39.4943749 15.7268977,40.2358035 16.7783263,40.6804463 C19.0233263,41.6293749 21.5136835,42.1115177 23.910112,43.1486606 C25.3879692,43.7886606 26.1890406,44.7068749 27.8883263,45.6179463 C28.2315406,46.4393749 29.407612,47.3283035 29.9443977,48.4979463 C30.317612,49.3079463 30.970112,51.172232 30.7679692,51.7900892 C30.430112,52.8250892 28.7172549,52.7600892 28.2990406,53.9833035 C28.3918977,56.1640177 28.472612,57.9233035 30.2186835,58.6468749 C28.5808263,62.4361606 30.1736835,67.1179463 30.2186835,72.2254463 C30.307612,81.959732 27.3761835,92.3775892 27.6136835,101.986875 C27.7186835,106.217589 28.1536835,110.605446 28.847612,114.742946 C29.5397549,118.861875 30.622612,122.935803 30.6311835,126.948303 C30.637612,130.369732 29.1711835,134.219732 30.4940406,137.097232 C30.1311835,138.035089 29.2408263,138.408303 28.9847549,139.430089 C28.515112,141.309018 29.6186835,142.908661 30.4940406,144.092946 C30.405112,146.517589 30.6733263,149.300089 30.3568977,151.498161 C21.0304692,152.034196 11.4140406,151.590661 0.182969169,151.498161 C-0.311673688,154.497411 0.374754883,157.461732 0.319754883,161.510268 C4.45796917,161.799911 10.0568977,162.104589 14.0354692,161.646732 C14.3572549,160.475982 13.7536835,159.362446 13.7615406,158.081018 C15.3193977,157.578875 17.7086835,157.945303 19.2468977,158.081018 C19.660112,159.097411 18.4840406,161.262053 19.3843977,161.921732 C20.0022549,162.470303 22.1797549,162.024589 23.087612,162.332803 C23.4283263,164.654589 22.8547549,165.584911 23.3618977,167.818518 C22.042612,168.204911 20.3929692,167.784946 18.9729692,167.818518 C18.7233263,168.789232 19.3808263,170.668518 19.1097549,171.658839 C17.6190406,172.225982 15.1361835,171.799232 13.350112,172.070268 C12.4733263,170.751339 13.3658263,169.468518 13.350112,167.681339 C9.08296917,167.514946 4.83225488,167.329911 0.45689774,167.269946 C0.115469169,169.926375 -0.0988165456,173.039946 0.0458263115,175.774232 C3.48618345,176.639553 6.18511203,176.295982 9.92082631,176.322803 C12.792612,176.342411 15.8611835,176.589911 18.9729692,176.733482 C19.2643977,176.747411 19.5015406,176.624232 19.7958263,176.596375 C20.925112,176.490661 22.9629692,176.849232 24.3211835,176.870982 C26.0340406,176.898482 27.9190406,176.753482 29.807612,177.282053 C30.0322549,179.024911 29.5765406,182.279553 29.9443977,183.455661 C31.6504692,185.699553 35.0929692,187.203125 38.0371477,185.648482 C38.6350049,185.332803 39.7864335,184.688482 40.0946477,184.003518 C40.520362,183.054196 40.3132192,180.575982 40.3685763,179.477446 C40.7542906,171.797768 40.4264335,155.240303 40.9171477,143.818661 C42.5642906,142.884732 44.1267906,141.671875 43.9346477,139.841161 C43.7814335,138.382589 42.442862,137.798303 41.3282192,136.822589 C42.2925049,133.665089 40.9546477,129.304018 41.1910763,125.029018 C41.4771477,119.868661 42.9235763,114.844375 43.522862,109.805089 C44.8142906,98.9383035 42.7925049,87.7875892 41.7407192,77.8483035 C41.3046477,73.7383035 41.4232192,70.0850892 41.8775049,65.9165177 C42.0092906,64.7054463 42.4767906,63.3943749 42.4257192,62.2133035 C42.3857192,61.2886606 41.5567906,60.1425892 41.7407192,59.1950892 C41.9932192,57.8879463 43.9682192,57.8958035 44.3460763,56.4529463 C44.7567906,53.8079463 42.6139335,53.8311606 42.1517906,52.3386606 C41.4185763,49.9750892 43.3242906,46.1500892 44.6200049,44.932232 C47.5492906,42.1779463 53.7114335,41.6111606 57.375362,39.5825892 C60.8646477,37.652232 63.9607192,33.854732 65.6042906,29.844732 C66.6542906,27.2843749 67.2996477,23.9411606 66.8389335,20.519732 C64.9960763,6.83258917 51.7167906,0.972232029 36.3907192,0.0833034576 C27.4733263,-0.432767971 19.2033263,1.41687489 12.6643977,6.53044631 C6.31225488,11.4965177 2.6565406,19.3858035 6.21832631,29.2965177 C7.24511203,32.1550892 8.58832631,34.7215177 10.7443977,36.7033035 Z M40.7796477,110.353661 C41.3046477,110.409018 41.1257192,109.277946 41.1910763,108.432232 C41.5657192,103.646161 41.7196477,97.0440177 41.0539335,92.3861606 C40.8946477,92.3640177 40.8100049,92.4168749 40.7796477,92.5233035 C41.4671477,98.3725892 40.9671477,104.731875 40.7796477,110.353661 Z M50.7917906,9.82080346 C51.1557192,10.5883035 52.565362,10.489732 53.397862,10.5075892 C54.5550049,10.5311606 56.152862,10.7179463 56.8271477,9.95830346 C54.867862,10.1165177 52.942862,9.53294631 50.7917906,9.82080346 Z M56.4160763,34.7818749 C57.4100049,34.2115177 59.1039335,35.4240177 59.8442906,34.2333035 C59.0860763,34.6836606 57.0921477,33.7133035 56.4160763,34.7818749 Z M61.6271477,29.9829463 C61.2682192,29.9440177 60.940362,29.9361606 61.077862,30.3940177 C61.4371477,30.4325892 61.6685763,30.3440177 61.6271477,29.9829463 Z M30.9047549,54.532232 C31.8922549,54.9633035 33.4547549,54.9261606 34.4708263,54.9443749 C33.920112,55.4754463 31.8329692,54.7336606 30.9047549,55.7675892 C32.5361835,55.7636606 33.9508263,55.872232 34.6079692,56.1790177 C34.102612,56.5015177 33.2608263,55.8908035 32.6879692,56.4529463 C33.9947549,57.319732 36.3946477,56.9575892 38.585362,56.8643749 C38.3207192,56.0329463 36.6260763,56.6293749 36.1167906,56.0418749 C36.9664335,55.592232 37.9060763,56.0843749 38.585362,55.492232 C37.9832192,54.9525892 36.6260763,55.1668749 35.9796477,54.6700892 C37.4089335,54.3965177 37.8396477,54.3333035 39.4082192,54.1208035 C38.0957192,53.2411606 33.2429692,53.0236606 30.9047549,54.532232 Z M33.3733263,122.970446 C33.2608263,120.752946 33.0379692,118.644375 32.6879692,116.662232 C32.557612,118.576875 32.8286835,121.275803 33.3733263,122.970446 Z M32.0029692,105.141875 C32.6222549,102.869375 32.172612,99.3068749 32.1397549,96.7754463 C31.4590406,99.3279463 32.0797549,102.562946 32.0029692,105.141875 Z M34.6079692,67.1504463 C34.6233263,70.5968749 34.5861835,74.714732 34.6079692,77.7111606 C35.1347549,77.2686606 35.1547549,76.3815177 35.1572549,75.6540177 C35.162612,73.1308035 34.8379692,69.7708035 35.1572549,67.0133035 L35.1572549,66.602232 C34.8043977,66.6150892 34.9604692,67.1365177 34.6079692,67.1504463 Z M40.7796477,100.615446 C39.9935763,102.435446 40.4367906,105.483303 40.0946477,107.747232 C41.1835763,106.331161 40.597862,103.057232 40.7796477,100.615446 Z"></path>
                    </g>
                </g>
            </g>
        </g>
    </g>
</svg>