<?xml version="1.0" encoding="UTF-8"?>
<svg width="322px" height="323px" viewBox="0 0 322 323" version="1.1" xmlns="http://www.w3.org/2000/svg" xmlns:xlink="http://www.w3.org/1999/xlink">
    <!-- Generator: Sketch 60.1 (88133) - https://sketch.com -->
    <title>Fill 9</title>
    <desc>Created with Sketch.</desc>
    <g id="Page-1" stroke="none" stroke-width="1" fill="none" fill-rule="evenodd" opacity="0.203776042">
        <path d="M212.518271,281.543781 C214.205027,285.878372 216.966627,289.136333 218.098463,294.027283 C222.470831,295.493867 223.133735,290.413453 226.256283,289.291712 C227.295133,289.829025 227.24014,291.463018 228.82991,291.442969 C229.903755,289.948317 228.772919,287.683784 227.973034,286.707398 C225.741357,285.899424 223.172729,286.888841 221.531966,286.276345 C221.85292,285.159616 223.118737,283.690025 221.961904,282.405887 C218.476409,282.702612 222.12688,286.532972 220.245153,287.138451 C218.093464,286.858768 218.309433,284.202277 217.670525,282.405887 C218.503405,280.514265 220.983046,280.275683 221.531966,278.100367 C217.918489,275.571187 217.08061,282.258527 212.518271,281.543781 Z M138.247017,130.895685 C138.099039,133.053959 140.147742,133.006844 140.393707,134.768147 C138.795938,138.664668 139.661812,141.575781 142.970334,142.518084 C145.442976,143.221803 150.023313,140.724702 150.268278,144.667335 C148.013604,148.218011 141.222587,149.27359 142.112458,154.568528 C144.501112,154.114418 146.859771,150.592814 149.409402,148.972855 C151.448107,147.678693 153.653788,145.86827 153.274843,142.949137 C152.609939,137.845667 145.906909,138.963398 142.541396,135.632259 C143.677231,133.952154 146.638803,132.117671 145.545961,129.605533 C143.070319,128.66724 141.678521,132.556744 138.247017,130.895685 Z M67.4132663,112.818515 C69.3659837,113.227515 70.1148753,111.009094 69.129018,109.805152 C67.1763005,109.393146 66.4244093,111.615576 67.4132663,112.818515 Z M83.2959681,127.882322 C78.9216011,131.60141 71.4036889,135.10497 64.8346394,130.895685 C63.0229015,130.884658 62.0630404,131.729723 60.5432603,130.895685 C59.4994113,128.86372 57.7006716,125.242873 60.5432603,124.00986 C64.1687357,123.958735 63.7497963,127.967531 66.1244527,129.17448 C72.6215127,130.112772 78.2876928,130.842556 79.0015895,124.440914 C78.6886348,123.175823 77.7017776,122.58939 76.8568998,121.855597 C72.8454803,125.574684 58.6195386,124.448933 64.4057014,116.692982 C68.0421753,116.920538 68.35513,120.482241 70.8457696,121.855597 C73.3604057,121.222049 74.2392786,118.944484 78.1447135,119.70434 C78.8816069,114.80537 75.4401048,114.095636 72.563521,112.818515 C69.8879082,112.717268 70.1148753,115.528136 66.9833285,114.969772 C66.9703303,114.55175 66.4564047,114.634954 66.1244527,114.538718 C64.0097587,110.439703 66.4963989,107.075483 70.4158318,107.652894 C70.1688675,107.616805 77.8967494,111.894257 79.4325272,113.248566 C83.5789272,116.906504 84.8997361,121.642075 83.2959681,127.882322 Z M159.282973,80.1045816 C156.425387,70.7376945 149.051454,84.9113265 156.708346,86.1313074 C158.559078,85.8345824 159.260977,84.3870455 161.859601,84.8411551 C166.154979,87.2951512 159.911882,92.3474962 162.289538,95.1713961 C168.211681,93.0472058 168.258675,78.7502725 159.282973,80.1045816 Z M85.8705956,47.3926529 C85.9305869,49.4867697 85.3436719,52.2274663 87.5893469,52.1272214 C89.9630035,51.2099802 90.4139382,48.361019 91.0258497,45.6724497 C87.8243129,44.290072 84.1108502,43.4219508 84.5827819,38.3555715 C84.0358611,38.3295079 83.9898677,37.8022195 83.2959681,37.9245183 C81.1362806,41.2476381 84.2378319,45.1772397 85.8705956,47.3926529 Z M158.425098,31.8997974 C159.336966,30.9334362 158.732053,29.0618632 157.566222,28.8844296 C156.136429,29.3896641 156.776336,31.9890154 158.425098,31.8997974 Z M158.425098,27.163224 C159.72291,25.3076902 160.424808,22.8556989 161.430663,20.7084523 C157.045297,9.85593513 146.166871,29.8357541 158.425098,27.163224 Z M157.136284,9.51610478 C156.12443,16.5733485 165.218115,13.4126256 167.441793,15.9718789 C162.661485,18.7486637 165.626056,25.1883987 166.581917,28.4533764 C165.372092,29.2513261 162.565498,28.4453568 161.430663,29.3154829 C159.749906,30.7860761 160.787756,34.9833318 158.425098,35.7732619 C156.132429,34.3417641 155.564511,31.1790363 153.701781,29.3154829 C151.476103,29.1109832 148.373552,29.7806194 146.833775,28.8844296 C146.58981,26.0585248 148.440542,25.329744 148.980464,23.290762 C148.152584,20.2453207 145.566958,18.9641904 144.689085,15.9718789 C151.765061,17.6650159 153.491811,12.4422546 157.136284,9.51610478 Z M166.152979,319.851382 C167.128838,319.538618 169.502495,320.626276 169.157545,318.990278 C168.447647,317.891594 166.334953,318.997295 166.152979,319.851382 Z M144.689085,318.990278 C146.274856,319.775196 149.719357,320.427791 150.697216,318.559225 C150.082305,318.235434 145.727935,317.459538 144.689085,318.990278 Z M140.393707,318.559225 C141.912487,318.179297 142.606386,319.666932 142.970334,318.131179 C142.418414,317.538732 140.402705,317.380345 140.393707,318.559225 Z M132.665825,316.838019 C135.485417,317.484599 136.184316,317.813403 139.107893,318.559225 C138.934918,316.480145 133.835655,315.084735 132.665825,316.838019 Z M190.624438,316.838019 C193.17007,316.810953 196.157638,317.221958 196.633569,315.115811 C194.684851,313.882799 191.604297,317.134744 190.624438,316.838019 Z M124.080067,315.547867 C125.357882,316.02804 129.396298,317.730199 130.948073,315.97892 C129.816237,315.129846 125.127915,313.655243 124.080067,315.547867 Z M198.35232,315.115811 C199.32118,315.356399 203.105633,314.729868 203.931513,313.394606 C201.990794,312.345041 199.153204,313.637198 198.35232,315.115811 Z M112.059806,311.244352 C113.673573,314.806054 118.59986,313.226194 122.363315,315.115811 C121.596426,311.408753 115.554301,311.57115 112.059806,311.244352 Z M207.795954,312.535507 C209.599693,311.903963 212.095332,311.965113 212.947209,310.383248 C210.213604,310.080508 208.645831,310.948629 207.795954,312.535507 Z M216.382711,309.522144 C217.203593,308.164827 221.540965,308.985833 222.391842,306.508781 C219.965193,306.807511 215.813794,307.648566 216.382711,309.522144 Z M224.538531,305.648679 C229.055878,304.583076 233.082295,303.023264 235.699916,300.053007 C231.399539,301.335139 227.496103,303.01725 224.538531,305.648679 Z M237.847606,298.330799 C238.753475,299.18689 240.226261,298.187448 240.424233,297.037639 C239.327392,297.232114 238.448519,297.643118 237.847606,298.330799 Z M241.711047,297.037639 C246.655331,296.112378 247.844159,291.42292 252.874431,290.581865 C255.693024,286.6673 260.915268,285.156609 263.176941,280.682677 C264.725717,280.919255 266.439469,279.109834 265.32263,278.100367 C258.729584,285.693922 249.202963,290.346289 241.711047,297.037639 Z M266.610444,277.669314 C273.652425,274.540669 276.631994,267.34208 282.495145,263.03656 C285.273743,256.490566 291.392858,253.307789 293.652531,246.24854 C293.562544,245.913722 293.292583,245.74932 292.802654,245.817487 C285.083771,257.447905 275.607142,267.320026 266.610444,277.669314 Z M4.73333558,156.289734 C5.25426021,150.587801 8.22083097,142.9341 6.01914953,137.353464 C6.45808602,143.1386 2.32968337,149.800879 4.73333558,156.289734 Z M9.02671436,124.00986 C7.58992225,126.630263 5.95215923,133.495037 6.88002497,135.632259 C9.86659284,135.448811 7.06099879,127.564546 10.314528,125.731066 C9.99457432,118.716928 15.1068346,111.377996 15.0358449,104.639531 C12.3432345,110.40562 9.77060672,116.292002 9.02671436,124.00986 Z M302.671226,92.588084 C303.341129,89.8253335 301.511394,86.0711605 298.811785,85.2722083 C299.571675,88.2334438 301.131449,90.4007394 302.671226,92.588084 Z M16.3256583,103.777424 C18.1283974,97.1221626 22.9846947,91.2347773 24.0505405,85.2722083 C21.1469606,90.4769256 15.1808239,98.7300915 16.3256583,103.777424 Z M25.3383542,83.1199494 C26.9811165,83.188116 26.7351521,81.3606507 27.4860434,80.5346324 C25.8552794,80.4794977 25.4613364,81.6613856 25.3383542,83.1199494 Z M28.3449192,78.8144293 C29.8467019,76.5348593 34.90497,73.1165069 32.6362982,71.0664979 C31.4184744,73.5786361 28.0539613,76.2210927 28.3449192,78.8144293 Z M33.4971737,70.2053938 C35.7568467,70.9251525 34.5200257,68.9593492 35.2129254,68.053135 C37.3146213,65.3104334 40.724128,63.9561243 40.7941178,60.3052036 C38.4464575,63.6904752 35.4258946,66.4031033 33.4971737,70.2053938 Z M43.370745,58.5819931 C43.5167239,57.3880758 47.4421559,56.0467985 45.0864968,55.1405843 C45.0664997,56.5760918 41.8069713,56.9901034 43.370745,58.5819931 Z M299.241722,84.8411551 C293.73252,71.4223674 284.403869,61.8389512 275.626139,51.6961681 C275.121212,51.7643347 274.408316,51.6239918 274.339326,52.1272214 C284.113911,61.5482408 291.31287,73.5555797 299.241722,84.8411551 Z M46.3743104,54.2804827 C47.9080885,53.8103339 48.9109434,52.8028723 49.3818753,51.2681222 C47.8470973,51.7392735 47.0722095,52.967274 46.3743104,54.2804827 Z M50.6676892,49.975965 C52.0124946,50.1764548 52.5844119,49.6020513 52.3844408,48.2547593 C51.2935987,48.3058843 50.7206815,48.8812902 50.6676892,49.975965 Z M273.48145,50.837069 C272.678566,49.2010716 271.996665,47.4467851 270.044947,46.9626021 C270.487883,48.9604837 272.551584,49.3273802 273.48145,50.837069 Z M66.1244527,36.6343659 C66.9353354,36.7306011 67.0713157,36.148178 67.8402045,36.2033127 C67.7682149,35.5597402 67.9941822,34.6144304 67.4132663,34.4801022 C67.2792856,35.4975883 65.9194824,35.2820617 66.1244527,36.6343659 Z M269.617009,46.1025005 C264.882694,41.9533624 260.165376,35.4935785 254.161245,34.0490489 C259.665449,37.4293083 264.69872,43.5713158 269.617009,46.1025005 Z M253.304369,32.3288457 C251.712599,30.6948532 250.224815,29.9911338 248.580053,29.3154829 C249.106976,31.0938281 251.617613,33.1448396 253.304369,32.3288457 Z M245.14455,27.163224 C244.212685,26.7842981 242.902874,24.5678825 241.711047,25.8730716 C242.365952,26.5316809 244.116699,28.3060163 245.14455,27.163224 Z M232.265413,19.8463458 C234.271123,22.1429574 238.458517,24.5358041 241.283109,24.5829192 C234.941026,21.1816084 229.127867,17.2510043 221.531966,15.1127798 C224.293567,17.2600264 228.714927,19.9165173 232.265413,19.8463458 Z M99.1806697,16.8329829 C99.7535868,16.8329829 100.325504,16.8329829 100.898421,16.8329829 C100.825432,16.1894104 101.052399,15.2451031 100.468483,15.1127798 C100.595465,16.2425402 98.8027244,15.4496028 99.1806697,16.8329829 Z M218.098463,14.2506733 C218.04947,12.721938 216.678669,12.5194432 215.093898,12.5294677 C214.891927,14.3098178 217.102607,13.6732624 218.098463,14.2506733 Z M212.947209,12.0984144 C211.654396,10.2368659 208.665828,10.0794813 206.078202,9.51610478 C206.64612,12.0322528 210.886507,12.4272178 212.947209,12.0984144 Z M197.922383,8.65500075 C198.348321,9.03192172 201.640845,9.85393023 201.355886,8.2259524 C200.489011,7.18340503 198.209341,7.04907681 197.922383,8.65500075 Z M294.082469,244.527334 C297.851923,241.54204 299.591672,236.622019 301.811351,232.475888 C304.191006,228.040049 306.620655,223.118023 307.820481,217.412081 C308.440391,216.023688 310.480096,216.052759 310.830046,214.398718 C311.339972,208.15847 313.099717,203.187324 315.119425,198.471802 C315.309397,189.309414 318.568926,181.493316 318.988865,173.506802 C319.658768,160.683469 318.068998,148.711216 317.269114,133.047944 C315.189415,126.594175 312.469808,118.733969 312.119859,111.956409 C308.470387,106.264501 307.230566,96.9196679 303.101164,93.0171324 C308.980313,108.365635 315.809325,128.241199 315.979301,147.252652 C316.109282,161.481419 318.388952,177.436404 312.549797,190.29382 C316.289256,166.848533 315.239408,139.663108 308.680357,117.123033 C308.090442,116.426331 307.470532,115.758699 306.970604,114.969772 C304.101019,99.4769163 294.922347,86.5934366 288.073338,73.6488075 C277.385885,58.9709434 264.456755,46.5395684 250.725742,34.9131603 C244.517641,31.2361759 237.857604,28.0143035 232.265413,23.7218152 C220.95605,18.1341623 208.478855,14.9072776 197.922383,10.8062572 C187.910831,10.0343711 179.572038,7.00396659 168.298669,7.79289426 C166.809884,7.56533825 166.014999,6.64408725 164.435228,6.50274189 C161.402667,8.68707913 158.119142,7.03003027 154.990594,6.93179023 C141.647525,6.52880557 128.189472,12.1505418 115.924247,13.8226274 C109.518174,16.7267233 102.686163,19.0724549 96.1771043,21.9986047 C91.5427749,24.0816945 87.4593657,27.4900225 82.4360926,28.8844296 C69.4719684,37.6939549 57.9916295,47.9921176 46.3743104,58.1539472 C43.7306929,63.6664164 38.2614843,68.6114993 34.7839875,73.6488075 C33.9801038,74.8116488 33.2852043,75.9905293 32.6362982,77.0932237 C22.9556989,93.5734918 12.7691729,113.42199 10.7424661,133.047944 C8.16883849,138.98445 9.38766213,146.062745 7.3069632,152.415267 C7.75189882,158.763779 8.07285238,169.124093 6.88002497,174.367906 C3.6944859,168.669984 8.04785599,161.712985 4.30339779,157.15184 C2.30168742,176.560263 6.90002208,192.518255 9.02671436,207.509886 C11.7543197,209.077716 10.8154555,212.494064 11.6013418,214.827766 C12.713181,218.134847 15.4337873,221.34469 16.7535963,224.728959 C17.2085305,225.89581 17.1615373,227.47567 17.6124721,228.601421 C19.9731305,234.504845 24.8504248,239.092054 26.1992296,245.386434 C31.4844649,250.004718 34.082089,256.243963 38.2174907,261.744403 C39.7782648,263.818471 42.617854,265.755203 44.6595585,268.201179 C57.7916584,283.958682 74.5642316,294.678875 92.3126635,304.787575 C98.2098102,305.491295 102.033257,310.508554 107.766427,309.952195 C101.988264,304.411657 91.4887827,303.603682 85.8705956,297.899745 C82.5100819,296.822112 79.3905332,295.503891 78.1447135,292.306078 C76.184997,292.692021 75.7110656,291.589326 74.2812725,291.442969 C73.2554209,288.631098 69.5029639,289.934282 69.129018,285.847296 C70.8307718,286.688351 74.2412783,287.74794 73.4233966,289.722766 C78.9126024,290.132767 82.6700587,294.826236 87.160409,297.46769 C90.2679593,299.300167 94.1603961,299.555792 96.6050424,302.636319 C97.9938415,303.166615 96.9319951,301.240909 98.3237937,301.774212 C100.360499,305.270756 104.443908,304.311412 108.625303,305.648679 C111.312914,306.506776 113.411611,308.722189 115.924247,309.522144 C118.029942,310.19178 120.032653,309.494075 121.933378,309.952195 C123.617134,310.356182 125.053926,311.78367 126.656694,312.104453 C128.06949,312.385139 130.00521,311.934037 131.378011,312.104453 C137.931063,312.914432 144.279144,314.806054 150.697216,315.115811 C172.323087,316.162369 194.227917,312.814188 212.089333,306.508781 C223.199725,302.587199 236.059864,295.549002 244.717612,289.722766 C251.966563,284.84184 257.877707,280.379937 264.463754,274.655951 C269.453033,270.32537 274.787261,265.266008 277.773829,261.31335 C278.633704,260.176572 278.657701,258.606736 279.49058,257.440888 C280.743399,255.687604 282.94908,254.791414 284.213897,253.137372 C287.003493,249.479435 289.003204,245.265137 291.512841,241.513972 C296.782078,233.628705 301.021465,224.980574 304.390977,216.119923 C306.480675,210.613469 308.190428,202.163823 310.830046,197.610698 C310.770054,194.680538 311.000021,192.038082 312.979735,191.153921 C310.25013,211.517678 302.461257,228.132275 294.082469,244.527334 Z M111.629868,311.6734 C112.001815,308.700135 109.650155,309.84794 107.766427,309.952195 C108.124376,311.457874 109.741142,311.702471 111.629868,311.6734 Z M190.624438,5.64163785 C189.611585,5.6526648 189.358622,4.9018302 188.047811,5.21058461 C187.398905,7.53325987 190.747421,7.35783123 190.624438,5.64163785 Z M133.5257,5.64163785 C133.627686,7.08316009 139.134889,7.13628991 138.676955,5.21058461 C136.810225,5.20456992 134.815514,5.0702417 133.5257,5.64163785 Z M185.043246,5.21058461 C184.160374,4.08683884 181.685732,4.55999495 180.320929,3.92043224 C178.59118,5.91630899 184.46633,7.03604497 185.043246,5.21058461 Z M175.596613,4.78253872 C175.728594,3.6457611 174.700743,3.67082234 173.879861,3.48937899 C173.447924,4.92989878 174.475775,4.9018302 175.596613,4.78253872 Z M142.541396,4.78253872 C143.363277,5.85515958 145.971899,5.09329803 145.975899,3.92043224 C145.133021,3.20368092 142.58139,3.38111446 142.541396,4.78253872 Z M170.445358,4.35148548 C169.843445,4.24121604 169.956429,3.40818059 169.587482,3.0613331 C168.032707,3.51143288 164.606203,2.08494739 164.435228,3.92043224 C166.083989,5.4050598 167.081845,2.57715004 169.587482,3.48937899 C169.096553,4.37454181 170.262385,5.54339781 170.445358,4.35148548 Z M313.83961,108.083947 C316.009296,118.471327 319.248827,128.663231 320.698618,139.502716 C321.558493,145.887316 321.878447,152.765121 321.988431,159.304099 C322.158406,168.704067 320.428657,178.251395 318.558927,186.419353 C319.268825,193.983836 315.269403,202.067588 314.259549,207.941941 C314.209557,209.605005 312.519801,209.639088 312.119859,210.956307 C311.979879,212.524137 312.189849,213.756148 312.549797,214.827766 C307.510526,224.012208 303.811061,236.732288 297.521971,243.237182 C296.902061,246.401915 294.83236,250.217237 292.372716,250.124009 C293.042619,251.472304 293.24259,251.289858 292.802654,253.137372 C285.663687,260.252758 282.559136,268.760546 273.909388,274.2259 C245.592485,308.071599 188.33577,330.43825 132.665825,320.711484 C110.590019,316.855061 92.7785961,307.858078 75.1381485,298.760849 C69.59895,292.777229 61.4321317,289.857094 55.3920056,284.127093 C54.6931068,283.465476 54.5361295,281.949773 53.6732543,281.11373 C52.2054667,279.687245 50.005785,279.085775 48.5209998,277.669314 C47.0922066,276.30498 46.5342873,273.950227 45.0864968,272.504695 C42.9658036,270.382509 40.8821051,269.090352 39.0773663,266.909022 C35.6708591,262.789958 32.6203005,258.241845 29.202795,253.567423 C27.1350942,250.735504 23.7165888,246.708664 21.4749132,242.806129 C20.6240363,241.323506 20.2050969,239.296554 19.3292237,237.64151 C15.2038206,229.842453 11.8583047,221.532148 8.59677657,211.816408 C8.27482315,210.859069 7.15798475,210.043075 6.88002497,209.234099 C5.43023474,205.025816 5.44823214,201.408979 4.30339779,196.749594 C-11.0543801,134.198756 17.1715359,77.3558654 49.8118131,45.2413965 C56.6778196,38.4828826 63.3658519,33.2791678 71.7046453,27.5942772 C77.2188475,23.8360944 83.1769854,20.040821 89.3050987,16.4019297 C111.954821,6.08071069 137.694097,-0.623670888 164.864166,0.04596531 C171.370224,0.208362113 179.151099,0.00686978346 186.33006,1.33812259 C188.358766,1.71504356 190.443465,3.32798464 192.34119,3.48937899 C201.388881,4.26126503 212.440282,7.63149991 219.387277,10.3782113 C221.533966,11.2262835 223.980612,11.6663587 225.826345,12.5294677 C226.651226,12.9134058 227.126157,14.2316268 227.973034,14.6817265 C229.515811,15.4977203 231.640504,15.2100174 233.125289,15.9718789 C234.266124,16.5583118 235.014016,18.0700055 236.130854,18.5541886 C237.425667,19.11957 238.850461,18.831867 239.994295,19.416295 C244.793601,21.8702912 249.463925,26.3191616 254.591183,29.7455336 C257.215803,31.5008225 259.942409,32.4200686 262.318065,34.4801022 C277.721836,47.84576 292.372716,65.1590636 302.671226,83.5510027 C303.711076,85.3975145 304.660938,87.6339791 305.680791,89.5747211 C308.640362,95.2195137 310.000166,102.344924 313.83961,108.083947 Z M151.557091,303.497423 C153.165858,304.422684 151.431109,306.143889 152.413967,307.369885 C155.566511,307.01602 153.840761,301.787244 152.844905,300.48406 C153.330835,298.602462 153.534805,295.847731 151.557091,295.316433 C152.219995,299.782345 148.340557,302.778667 145.116023,299.622956 C145.34499,298.129306 146.265857,297.330354 146.403837,295.746484 C144.893055,295.461788 144.412125,295.452766 142.541396,294.888387 C138.262015,301.984727 145.108024,305.701809 151.557091,303.497423 Z M177.743302,304.356522 C177.977268,305.881247 176.224522,305.414106 176.456488,306.938832 C182.556606,306.900739 179.642028,300.677533 177.314364,298.760849 C177.96427,297.546883 178.352214,296.069273 178.17324,294.027283 C177.560329,293.922026 177.449345,293.316547 176.886426,293.167182 C173.184962,296.128417 174.450779,302.143114 177.743302,304.356522 Z M158.425098,303.06637 C160.982727,304.349505 162.612492,302.10903 165.724041,302.636319 C166.930867,303.144561 165.950009,305.850172 167.868731,305.648679 C169.919434,304.806622 168.84059,302.153138 168.298669,300.48406 C165.193118,299.654032 163.054428,300.14423 160.572787,300.913108 C160.468802,300.297604 159.864889,300.187335 159.713911,299.622956 C159.537936,294.854304 167.365804,298.112265 168.728607,294.888387 C163.240401,290.366338 154.721633,296.22766 158.425098,303.06637 Z M192.34119,295.316433 C192.443175,294.703937 193.048088,294.591662 193.199066,294.027283 C192.61815,293.891953 192.379185,293.411779 191.481315,293.595228 C191.362332,294.576626 191.5843,295.212179 192.34119,295.316433 Z M197.492445,291.442969 C194.418889,294.101465 196.252624,301.677977 192.34119,303.497423 C189.583589,302.603238 187.190935,303.836251 185.473184,303.497423 C186.325061,300.762741 189.737567,300.598339 191.481315,298.760849 C191.631293,296.602576 189.581589,296.647686 189.333625,294.888387 C190.826409,292.737131 194.125932,290.303184 197.492445,291.442969 Z M135.66939,287.999555 C135.248451,289.718756 136.954204,289.296725 136.529266,291.012918 C133.506703,291.924145 130.190183,293.65337 130.091197,296.17854 C129.960216,299.523713 133.726671,299.054567 134.812514,302.205266 C134.861507,303.800163 132.819802,304.725423 133.954638,306.077728 C139.695807,304.24525 137.005197,298.955325 134.382576,295.746484 C134.744524,293.813762 136.550263,293.328576 137.818079,292.306078 C136.200313,290.279125 137.870072,289.725773 138.247017,287.568502 C137.370144,286.652263 136.548263,287.689798 135.66939,287.999555 Z M145.545961,291.012918 C146.504822,292.060478 148.349555,292.219867 149.84034,292.737131 C150.39026,291.42292 152.409968,291.582309 152.413967,289.722766 C151.110156,288.591 151.790058,285.469373 149.409402,285.417245 C148.59252,287.754957 146.508822,288.820561 145.545961,291.012918 Z M138.247017,286.276345 C139.590823,286.478839 140.16374,285.905438 139.963769,284.555139 C139.391851,284.555139 138.819934,284.555139 138.247017,284.555139 C138.247017,285.131547 138.247017,285.704948 138.247017,286.276345 Z M68.2701423,286.276345 C68.2001524,282.761757 65.134596,282.250508 63.1188876,280.682677 C62.4129898,283.34819 66.1634471,285.024285 68.2701423,286.276345 Z M62.2600119,269.922385 C63.0239014,270.304318 63.3498542,271.125324 64.8346394,270.783489 C65.3985578,268.958029 62.4439853,268.459811 62.2600119,269.922385 Z M231.408537,272.935748 C231.481527,274.583775 234.168138,273.611399 233.984165,275.518058 C233.273268,276.956573 232.671355,278.507362 230.121724,278.100367 C228.316985,277.614179 228.906899,274.727125 226.686221,274.655951 C224.808492,278.911349 230.016739,279.581988 231.408537,281.974834 C230.757632,283.1888 230.370688,284.664406 230.551661,286.707398 C231.314551,288.163957 235.113001,288.761417 235.271978,286.276345 C233.712204,284.743599 230.859617,280.451111 234.84304,279.39052 C237.282687,280.534314 237.47066,283.930613 239.994295,284.986192 C241.337101,280.540329 235.974877,279.505801 235.271978,275.518058 C234.724058,272.410465 236.740766,268.806659 234.413103,267.340075 C233.984165,267.340075 233.555227,267.340075 233.125289,267.340075 C232.260414,268.910914 231.678498,270.76745 231.408537,272.935748 Z M245.574488,275.948108 C246.530349,277.141023 249.262954,274.239935 247.292239,273.794847 C246.861301,274.653946 245.393514,274.47551 245.574488,275.948108 Z M240.853171,265.61887 C243.753751,266.616307 241.539072,271.545351 244.717612,272.935748 C247.193253,271.545351 246.259389,266.735598 249.438928,266.048921 C250.453782,267.117532 249.441928,268.581108 249.438928,269.922385 C250.561766,270.077765 251.949565,270.297301 254.161245,270.352436 C254.763158,271.190484 255.563042,273.125211 254.591183,274.2259 C253.378358,274.731135 252.766447,274.313113 251.585618,273.794847 C248.673039,274.891527 248.958998,279.199052 244.287674,278.531421 C242.952867,274.670988 239.759329,270.488769 240.853171,265.61887 Z M246.004425,265.61887 C246.59734,264.921165 247.522206,264.558278 247.292239,263.03656 C246.785312,262.538343 245.774459,262.547365 244.717612,262.607512 C244.059707,263.953801 244.836594,264.983317 246.004425,265.61887 Z M75.1381485,270.352436 C75.8090514,269.733925 76.6329322,269.268788 76.8568998,268.201179 C75.4171082,267.798195 73.9833156,269.578545 75.1381485,270.352436 Z M69.9868939,266.048921 C69.1850099,266.468947 70.7247871,268.145042 71.2757074,268.630228 C73.1724329,267.522521 76.1150072,267.457362 76.426962,264.756763 C74.4962414,263.843532 70.7017904,264.351774 69.9868939,266.048921 Z M76.8568998,275.948108 C74.492242,276.167645 72.5945166,275.91603 71.7046453,274.655951 C71.6336556,273.295627 72.8464801,273.219441 72.563521,271.644593 C70.0018917,269.476295 67.138306,267.614747 63.5478256,266.477969 C68.1911537,263.217001 80.4623781,258.273923 79.8624649,268.201179 C79.675492,271.280704 77.1908515,272.194938 76.8568998,275.948108 Z M251.15568,262.607512 C252.783445,264.302654 255.478055,265.129675 258.454624,264.328717 C258.447625,266.483984 258.786576,268.301424 259.3115,269.922385 C263.500894,269.084337 258.097676,263.684143 261.029251,261.744403 C264.117805,261.950907 263.545887,265.82337 267.040382,265.61887 C270.550874,262.006042 265.862552,257.05695 262.318065,257.440888 C259.321499,257.766684 259.944408,261.389536 256.736873,261.31335 C252.769447,259.071873 255.952986,255.522199 256.736873,252.275266 C253.308369,252.471746 250.455781,256.847438 251.15568,262.607512 Z M273.909388,255.288629 C276.208055,255.578337 276.17506,251.202645 274.339326,250.985114 C273.383464,251.573551 273.076508,254.237059 273.909388,255.288629 Z M58.3965709,252.275266 C56.0589091,252.228151 53.5042788,251.964507 53.2453163,253.998476 C54.498135,256.363255 58.0346233,254.899678 59.6843846,253.998476 C63.6978039,256.043473 59.183457,259.000699 57.5376952,260.453248 C60.628248,262.663649 64.1437393,258.308006 64.8346394,255.288629 C66.4514054,255.881076 70.158869,255.292639 72.1335833,254.857576 C71.8076304,251.970521 68.6360893,250.325502 66.5533907,250.55406 C66.6413779,252.362479 66.7083682,254.151851 65.2645772,254.427525 C63.6778067,253.580455 62.2380151,252.58402 61.4011362,250.985114 C61.5951081,249.744081 62.9199164,249.636819 62.6899497,247.971751 C59.8883551,246.447025 60.317293,251.517414 58.3965709,252.275266 Z M66.1244527,247.109644 C66.90334,247.673021 68.7130782,248.336642 69.5589558,247.5417 C69.9688965,246.128246 66.032466,245.440566 66.1244527,247.109644 Z M124.510005,260.884301 C124.937943,260.884301 125.366881,260.884301 125.796819,260.884301 C125.916801,259.901901 125.694833,259.265346 124.937943,259.161091 C124.803962,259.745519 124.328031,259.985104 124.510005,260.884301 Z M130.091197,263.466611 C131.144045,261.794525 134.192604,262.127339 135.66939,260.884301 C136.965203,255.184374 134.724527,249.566648 130.521135,247.971751 C125.774822,250.464842 128.702398,258.241845 127.086632,262.176459 C125.118917,263.070643 122.114351,262.634578 121.50344,260.884301 C121.828393,258.196734 123.401165,256.75822 125.366881,255.717677 C124.934943,252.125901 126.669692,250.712447 127.086632,247.971751 C123.909092,245.679149 118.846824,248.47899 117.640999,250.985114 C117.819973,252.854682 119.162778,254.227035 118.069937,256.147728 C116.399178,257.913041 112.116798,256.919614 111.629868,254.857576 C115.803265,249.220803 120.19163,240.253893 129.661259,242.375076 C138.347003,244.32083 140.607676,256.868489 136.100328,266.477969 C133.413716,268.257317 130.109195,266.798753 130.091197,263.466611 Z M193.629004,248.402804 C184.022394,252.629131 191.471316,255.8089 197.062507,259.161091 C201.912805,257.99825 202.08678,252.146952 201.785824,245.817487 C198.650277,245.058633 196.644567,247.076563 193.629004,248.402804 Z M204.790389,262.607512 C197.915384,269.346979 193.23706,256.175797 186.759998,254.427525 C184.801281,254.184932 184.942261,256.052495 182.897557,255.717677 C181.448766,255.25655 180.539898,254.394444 180.320929,253.567423 C178.925131,248.2785 183.541463,249.289972 188.047811,248.402804 C193.669998,247.29209 200.880954,243.12591 201.355886,239.361713 C205.072348,238.596844 208.179898,239.085037 208.65483,241.513972 C209.060771,243.595057 206.516139,243.957943 205.649265,245.817487 C203.256611,250.957045 204.175478,257.604287 204.790389,262.607512 Z M267.040382,249.692956 C271.0628,248.705544 272.050657,244.674695 273.909388,241.513972 C273.144498,241.132038 272.817546,240.312035 271.332761,240.65387 C271.051801,244.580464 264.610733,244.465183 267.040382,249.692956 Z M278.631704,241.084923 C277.496869,244.811028 282.067207,247.705099 278.631704,249.692956 C276.890956,249.85836 278.158773,247.009399 277.773829,245.817487 C272.891535,246.950255 271.230775,251.312914 270.044947,256.147728 C266.478463,253.851116 262.236077,250.391663 264.035816,244.096281 C266.2245,241.842775 269.340049,240.520544 270.903823,237.64151 C274.296332,237.970313 276.091072,239.900028 278.631704,241.084923 Z M164.00629,235.056193 C159.881887,235.99248 162.62449,241.905929 164.864166,242.806129 C168.594626,242.028228 166.91187,235.417074 164.00629,235.056193 Z M167.441793,247.5417 C164.540213,244.881199 162.006579,246.80089 159.282973,244.527334 C160.377815,241.44781 159.775902,239.347678 158.855035,236.349352 C156.773337,236.844562 155.351542,238.001389 155.420532,240.65387 C155.762483,242.175588 157.568221,242.230723 157.99516,243.665228 C157.408245,245.373402 157.412244,247.670013 154.990594,247.5417 C152.887899,243.793542 151.113155,237.3919 153.701781,233.76604 C156.95931,229.2069 166.584917,229.55475 169.157545,235.920304 C170.356371,238.887554 170.971282,246.549275 167.441793,247.5417 Z M51.0986269,269.922385 C48.7439676,267.294965 46.5522847,263.052599 43.799683,260.023197 C43.5147242,259.709431 42.3958861,259.887867 42.0819315,259.592144 C39.2493414,256.923624 39.1783516,252.712334 36.0718011,252.275266 C36.0957977,251.724921 36.6217216,251.678809 36.5017389,250.985114 C29.4937529,242.709894 25.2593656,232.331535 19.7591615,224.297906 C22.5037643,231.896472 25.699302,240.275947 31.3494844,246.678591 C31.3494844,247.39835 31.3494844,248.114098 31.3494844,248.83085 C36.7387046,253.539355 40.1632091,258.937545 44.2296208,265.61887 C50.4597193,270.660188 55.0190596,277.325474 61.831074,280.682677 C61.1641705,278.127433 59.3104387,276.698943 57.1077574,276.810215 C58.1326091,274.857444 55.0050616,273.385848 54.1031921,273.365799 C55.2490263,271.666647 52.1174794,271.059163 51.0986269,269.922385 Z M206.50914,210.526256 C201.557857,210.661586 207.679971,219.369864 208.65483,222.5767 C213.756092,223.009758 214.809939,216.317406 218.527401,216.550977 C221.004043,216.704351 221.200014,220.522681 223.679656,219.992385 C224.327562,218.189981 221.92391,216.123933 220.67509,214.827766 C215.308867,214.038838 213.97606,217.296799 211.229457,219.133286 C208.084912,217.490272 210.514561,210.411977 206.50914,210.526256 Z M102.185235,218.27118 C102.539184,219.349815 103.690017,219.634511 104.331924,220.423439 C106.037678,220.117692 108.834273,218.580937 109.484179,220.853489 C109.723144,222.754134 106.907552,223.123035 108.196365,224.728959 C110.523029,225.644195 112.605727,222.926555 112.059806,219.563337 C110.873978,217.737877 106.977542,218.634067 106.908552,215.68887 C108.905263,212.899054 114.879398,218.889691 116.782123,214.827766 C111.576876,214.306492 111.299916,208.847153 105.620738,208.803045 C105.81671,213.304043 102.70616,214.489941 102.185235,218.27118 Z M282.925083,210.095203 C285.43372,214.824759 301.291426,217.764943 298.381847,208.803045 C295.762226,213.246903 288.143328,211.939709 283.783959,208.371992 C283.563991,209.007545 283.148051,209.456642 282.925083,210.095203 Z M279.920518,210.095203 C279.898521,208.393043 279.039645,207.532942 277.343891,207.509886 C277.577857,208.935369 278.756686,210.946282 279.920518,210.095203 Z M211.229457,207.941941 C211.243455,209.898722 212.819227,210.837015 214.66396,211.816408 C219.637241,206.809173 211.184464,201.142327 211.229457,207.941941 Z M20.1880994,223.436802 C16.9805635,216.179068 15.0548421,207.634189 11.6013418,200.624061 C12.5672021,209.094758 14.8088777,217.724845 20.1880994,223.436802 Z M287.653399,204.496523 C289.383149,203.110135 287.413434,200.888707 285.933648,200.196015 C284.993784,201.664603 285.963644,204.284003 287.653399,204.496523 Z M297.951909,207.509886 C299.261719,204.328111 294.702379,200.743352 291.942778,198.902855 C289.843082,202.733214 295.362284,205.595207 297.951909,207.509886 Z M11.6013418,200.196015 C12.3832287,198.7575 11.5383509,195.826338 9.88459023,195.458439 C9.21468716,197.114485 9.67862003,199.865206 11.6013418,200.196015 Z M71.2757074,190.724873 C67.6642299,193.373344 60.1633153,192.788916 59.2534469,197.179644 C58.029624,203.115147 68.5251054,208.975467 65.6945149,216.981027 C66.8073539,221.976233 74.2892713,223.632279 73.4233966,215.68887 C71.623657,213.475462 68.0721709,213.018345 68.2701423,208.803045 C72.190575,206.393157 78.0337295,207.006656 82.4360926,207.08184 C84.699765,203.490063 82.5890704,200.236113 80.2914029,200.196015 C78.0317298,200.152909 77.9867363,202.684094 75.9970242,204.065469 C72.9814606,206.166603 70.075881,205.891932 67.8402045,206.651789 C65.4515501,204.166717 63.1168879,201.628515 61.831074,198.041751 C66.1034558,194.866994 71.3426977,192.584416 77.2858378,193.305178 C78.1347149,192.152361 79.177564,191.186 79.0015895,189.003667 C76.4969519,184.857536 72.1815763,186.137664 71.2757074,190.724873 Z M294.512407,194.166282 C292.952632,193.54777 289.743097,191.307296 288.933214,193.736231 C291.442851,196.386707 296.572109,196.414776 300.101598,198.041751 C298.831782,193.055568 301.321421,189.99509 304.390977,187.280457 C299.501685,181.459233 296.252155,190.319883 294.512407,194.166282 Z M294.082469,189.43472 C293.692525,187.105028 292.022767,186.048446 290.223027,185.1292 C287.983351,187.187229 291.972774,190.404089 294.082469,189.43472 Z M251.15568,208.803045 C252.05455,209.744345 252.769447,209.688208 253.304369,208.371992 C252.756448,207.785559 251.200674,207.706366 251.15568,208.803045 Z M256.306935,185.559251 C256.011977,187.845838 254.622178,189.033741 254.161245,191.153921 C257.702733,195.134648 259.667448,187.003781 261.888127,186.419353 C264.536744,185.725658 266.402474,186.807301 266.610444,189.003667 C266.986389,192.936276 262.996967,191.741356 259.3115,192.876129 C256.075968,193.876574 253.570331,197.037297 250.725742,197.610698 C250.224815,202.454533 255.103109,205.533055 257.16581,209.234099 C255.875997,211.850491 250.069837,213.71605 248.580053,210.095203 C249.859868,206.105454 250.885719,202.988839 248.151115,199.763959 C244.240681,201.150347 242.830885,205.046867 237.847606,205.357627 C237.425667,204.776206 236.702771,204.49953 236.130854,204.065469 C235.462951,200.385478 237.510654,199.426134 239.136419,198.041751 C245.440507,199.132416 249.272952,196.86688 252.443494,193.736231 C252.368505,190.22866 249.249956,189.765529 247.722177,187.71151 C246.973285,180.565048 254.877142,180.825685 256.306935,185.559251 Z M24.9094162,181.254733 C22.0618283,184.075626 27.6520194,187.414785 29.202795,183.839048 C28.0819572,182.668187 27.1030988,181.353976 24.9094162,181.254733 Z M8.59677657,185.559251 C8.43180044,183.183446 8.43180044,183.20149 8.59677657,180.82368 C8.04785599,180.801626 8.00186265,180.273335 7.3069632,180.392627 C6.70705,181.648696 7.34395784,184.790372 8.59677657,185.559251 Z M18.0404101,175.660063 C17.8804333,179.795167 19.9791296,182.908775 17.1825343,185.1292 C17.7694494,186.086539 20.426065,186.395294 21.4749132,185.559251 C22.070827,183.412004 19.8581471,180.6683 19.7591615,177.812322 C22.837716,174.475168 28.0739584,178.487973 30.9195466,177.812322 C29.8896956,173.953894 21.0599732,173.54289 18.0404101,175.660063 Z M143.829209,175.230012 C144.767074,174.23859 143.701228,172.826139 142.112458,173.077754 C141.999474,174.481183 142.620384,175.148814 143.829209,175.230012 Z M137.391141,170.926497 C137.391141,171.35755 137.391141,171.785596 137.391141,172.21665 C137.942061,172.809097 139.253871,172.640686 140.393707,172.647703 C140.329716,171.16508 138.468985,170.056371 137.391141,170.926497 Z M139.963769,166.189924 C140.423702,167.799858 138.898923,167.417924 139.107893,168.774238 C141.421558,171.728457 146.217864,171.420705 146.403837,175.230012 C146.558814,178.344623 142.71937,179.151594 141.253582,182.117842 C138.538975,181.270773 140.626673,177.473494 142.112458,176.951218 C141.320572,173.29729 135.814369,175.279132 135.241452,171.35755 C134.961493,169.431845 137.153175,165.546351 139.963769,166.189924 Z M158.855035,164.038667 C159.162991,165.594469 161.347675,165.26767 161.430663,167.05203 C160.554789,168.755192 157.682205,168.456462 155.84947,169.205292 C153.861758,168.469494 153.900752,165.703736 151.127153,165.760875 C151.036167,166.243054 150.651222,166.428507 150.268278,166.620977 C150.317271,170.303976 154.224705,170.113511 154.561657,173.506802 C148.323559,175.948769 153.949745,188.048333 157.136284,179.102474 C156.505375,178.014817 154.806621,177.997775 154.561657,176.52217 C161.549645,172.15149 161.489654,179.166631 164.435228,181.684784 C167.774745,181.096346 167.04785,176.355763 166.581917,173.077754 C165.588061,171.636231 163.241401,171.549018 162.719476,169.63434 C163.526359,166.85956 165.069136,164.820578 166.152979,162.317462 C164.299248,160.647381 158.795044,161.101491 158.855035,164.038667 Z M177.314364,169.63434 C176.985412,168.240935 176.126536,167.381836 174.738737,167.05203 C174.57776,168.93463 176.108539,169.122088 177.314364,169.63434 Z M176.886426,161.024302 C175.695599,168.123649 186.740001,172.234694 178.17324,176.52217 C176.879427,175.591897 177.511336,173.870691 178.17324,172.647703 C177.351359,170.387179 174.332796,171.235252 173.022985,169.205292 C171.104263,166.230022 172.654039,161.553595 176.886426,161.024302 Z M30.9195466,164.038667 C30.3866237,162.809664 22.7857235,158.332725 19.7591615,159.304099 C15.7587403,160.587234 18.6163268,166.021512 16.7535963,168.342183 C15.8777231,167.877046 14.9998501,166.279142 13.7490311,167.482081 C13.2321059,170.593684 16.7475972,170.940531 18.8992859,170.064391 C17.2295275,160.817797 23.459626,160.777699 28.7728572,164.899771 C29.9196913,165.32882 28.2039396,168.624873 30.0616708,168.342183 C31.3724811,167.277581 31.4554691,165.26767 30.9195466,164.038667 Z M190.624438,167.05203 C190.660433,165.135347 187.22493,164.451677 185.900122,165.330825 C187.29792,166.189924 189.115657,168.868469 190.624438,167.05203 Z M188.047811,158.013946 C188.210788,159.610848 186.309063,159.139697 186.759998,161.024302 C187.146942,163.649717 190.703427,163.095362 192.34119,164.468718 C194.365897,168.106607 191.392327,173.335383 189.333625,173.937855 C187.695862,173.715311 188.771707,170.773122 188.047811,169.63434 C185.861128,167.623426 181.497759,166.027527 182.034681,161.456358 C182.297643,159.239942 184.077386,156.454135 188.047811,158.013946 Z M224.967469,162.317462 C227.633084,164.143925 229.807769,168.023404 233.125289,167.913134 C236.480803,167.799858 236.57079,164.148937 239.994295,163.176561 C241.035144,163.999572 240.6542,166.245058 242.569922,166.189924 C244.876589,159.915593 236.02187,159.52564 233.125289,162.745508 C232.21942,161.64983 230.463674,161.395208 230.121724,159.735152 C231.405538,157.435533 234.726057,157.181913 234.84304,153.707424 C234.218131,153.0428 232.643359,153.328498 231.408537,153.276371 C232.016449,157.712209 226.437257,158.638472 224.967469,162.317462 Z M20.6180372,148.542805 C21.2189502,148.656081 21.1059666,149.487112 21.4749132,149.834962 C23.625602,149.46606 24.4774787,149.46606 26.6291674,149.834962 C27.2130829,148.985887 27.0371084,147.376956 27.4860434,146.390546 C25.0973891,144.362591 20.9449899,145.173572 20.6180372,148.542805 Z M30.4916085,142.08703 C29.9516867,145.132472 32.0853779,147.875173 32.2073603,149.834962 C31.096521,150.896556 30.612591,148.905691 29.202795,148.972855 C28.919836,150.547703 30.1316606,150.62389 30.0616708,151.984213 C27.337065,153.658304 26.8931292,151.16822 24.0505405,151.556167 C20.2380922,152.076439 17.8814331,157.878616 15.0358449,151.984213 C15.9367145,150.784281 17.2355266,151.359687 18.4693481,151.984213 C18.5273397,146.706317 20.6680299,141.070547 28.3449192,143.377183 C28.7368624,142.622338 29.1428037,141.880526 30.4916085,142.08703 Z M166.152979,140.794873 C166.21597,142.173241 168.543633,142.578231 169.157545,142.08703 C168.887584,140.213452 167.698756,140.543258 166.152979,140.794873 Z M176.886426,131.326739 C176.837433,135.577124 172.43607,135.465852 172.16211,138.643617 C171.821159,142.640382 177.890281,143.828285 178.602178,148.542805 C178.168241,149.685597 177.89628,150.990786 176.456488,151.125114 C173.75288,149.963275 173.904858,145.932426 170.445358,145.529442 C168.977571,145.347998 169.154545,146.819594 168.298669,147.252652 C169.181541,149.460046 173.68489,150.06753 172.16211,153.276371 C169.74046,153.842755 170.145402,151.571204 168.298669,151.556167 C166.055993,151.494016 162.896451,153.786617 161.859601,151.125114 C161.594639,148.563856 164.080279,148.762341 165.724041,148.113756 C165.920013,146.761452 167.25482,145.128462 166.581917,144.239289 C162.661485,143.963616 155.651499,136.612654 161.859601,134.338097 C162.409521,135.572112 161.230692,137.609089 162.719476,138.643617 C165.757037,138.297772 168.041706,138.903251 169.587482,137.78151 C169.750459,135.895903 168.35966,135.570107 168.298669,133.907043 C170.494351,132.367281 174.213813,127.18963 176.886426,131.326739 Z M288.073338,133.907043 C289.943068,131.415957 288.643256,125.929551 285.933648,125.300013 C285.623693,127.566551 286.493567,132.128698 288.073338,133.907043 Z M295.372282,124.440914 C295.402278,126.999165 299.861633,125.103533 299.67166,127.882322 C299.931623,130.155878 296.972051,129.195531 295.80222,130.036586 C294.07247,129.049174 295.822217,124.564215 292.802654,124.870964 C291.192887,126.200212 290.852936,131.45405 292.802654,132.616891 C296.262153,132.503614 298.36185,131.028009 301.381413,130.465635 C302.701222,128.41763 305.080877,121.256132 300.101598,121.426548 C299.871631,123.787317 298.531825,125.022334 295.372282,124.440914 Z M280.778394,118.414188 C280.653412,120.077251 285.193755,121.105765 285.073772,118.844239 C284.643835,117.7235 281.713259,117.693427 280.778394,118.414188 Z M288.503276,111.525356 C288.083337,112.78343 288.303305,117.222276 291.512841,116.692982 C292.602683,115.919091 291.082903,112.53382 292.802654,112.387462 C294.322434,113.303701 295.332288,114.722167 294.942344,117.554086 C290.442995,121.695205 288.733243,114.016442 285.073772,113.248566 C284.273888,118.138514 293.162602,122.564328 297.521971,118.414188 C299.371704,111.683743 290.053052,106.938147 288.503276,111.525356 Z M32.2073603,109.374099 C33.1102297,109.905397 33.8811181,110.566012 34.7839875,111.095305 C36.3937545,109.90239 35.2409214,107.503529 33.4971737,107.22184 C33.363193,108.237322 32.0043897,108.0238 32.2073603,109.374099 Z M248.580053,110.235203 C240.363242,110.759484 236.242838,125.816274 245.14455,128.744429 C251.690603,129.490251 256.428917,126.877868 261.888127,127.882322 C268.213212,121.858604 258.121672,117.347582 256.736873,124.870964 C253.722309,126.266374 247.463214,127.366061 247.292239,122.717703 C250.527771,120.245663 254.950131,119.629157 259.742438,119.70434 C261.980114,116.23386 259.58946,113.843019 257.595748,113.679619 C255.475055,113.502186 254.727163,115.899042 252.443494,117.123033 C249.188965,118.868297 245.782458,119.70434 244.717612,120.134391 C244.849593,118.567563 244.646622,117.33455 244.287674,116.261929 C246.638334,111.156454 255.773012,112.856608 257.16581,106.793794 C254.527192,103.377447 248.165113,105.524694 248.580053,110.235203 Z M274.339326,103.349378 C274.353324,104.912197 275.602143,105.238995 277.343891,105.070584 C277.76483,103.099768 275.2082,102.692774 274.339326,103.349378 Z M103.045111,104.208477 C104.118955,105.29413 104.729867,103.716275 106.049676,103.777424 C107.806422,106.177288 107.022535,109.423219 104.761862,110.235203 C102.237227,111.141417 101.192379,108.471895 99.1806697,109.374099 C99.2846547,112.141862 102.877135,111.408069 104.331924,112.818515 C105.359776,114.534709 102.879135,119.621137 106.479614,120.134391 C107.011537,118.087389 109.390192,117.888904 109.913117,115.830876 C109.081237,114.455515 106.597597,116.330096 106.479614,113.679619 C108.150372,110.021682 112.129796,113.517223 114.635434,114.110673 C115.195353,111.316846 110.486034,110.292343 109.055241,108.083947 C109.107233,103.441604 106.595597,101.368538 104.761862,98.6128049 C103.579033,99.7114894 101.986264,102.250694 103.045111,104.208477 Z M33.0672359,97.7537058 C31.8374138,98.9606548 32.1843636,101.745459 30.4916085,102.487272 C29.2087942,102.583507 29.0328196,100.899392 27.9159812,102.057221 C27.9179809,104.351828 28.981827,105.575818 30.9195466,105.931688 C33.0032451,105.577823 32.1303714,102.265731 34.3540497,102.057221 C36.3527605,103.356395 36.3327634,106.674503 39.0773663,107.22184 C40.7401257,103.568915 36.4007535,99.195228 33.0672359,97.7537058 Z M209.941643,104.208477 C210.971494,106.478023 213.300157,107.444384 212.947209,111.095305 C212.613257,111.190538 212.449281,111.457189 212.518271,111.956409 C209.769668,114.222947 202.033788,111.489267 201.785824,116.261929 C205.879231,114.769282 212.764235,116.078481 215.093898,112.818515 C215.823792,109.126494 213.592115,106.904064 214.234022,104.639531 C218.860353,105.318189 221.239009,98.8303364 217.670525,96.4615485 C216.984624,100.93949 211.355439,100.462324 209.941643,104.208477 Z M288.933214,101.195115 C286.483568,101.325433 285.523707,102.938374 282.925083,102.918325 C281.810245,102.169495 282.134198,99.9801459 279.920518,100.334011 C276.739978,109.629724 296.272152,105.262052 292.372716,96.4615485 C291.822796,96.4374897 291.772803,95.9091989 291.082903,96.0325001 C289.693104,97.0800598 289.983062,99.808727 288.933214,101.195115 Z M42.0819315,97.3226525 C43.8586744,95.3738909 44.9615149,92.7484759 46.3743104,90.4368276 C40.2351987,83.4437406 34.3250539,94.3143019 42.0819315,97.3226525 Z M48.5209998,90.4368276 C47.8141021,92.4517509 48.3860194,93.8210968 48.9509376,95.6014469 C48.7599652,96.8444842 48.0460685,97.5632404 46.8032484,97.7537058 C45.8893806,97.9541956 45.9873664,97.1392043 45.9463724,96.4615485 C44.5975675,96.2580513 44.8125364,97.6213824 43.799683,97.7537058 C43.7706872,99.4739089 47.5631384,100.580613 45.0864968,102.057221 C39.8832496,98.5356163 34.2110704,93.3479407 35.6408635,85.7002542 C39.8332569,85.9498641 45.9583706,85.5639211 48.5209998,90.4368276 Z M275.195202,90.4368276 C274.86125,91.8633131 278.959657,94.5869681 281.63727,93.0171324 C281.339313,90.0929875 276.943949,86.8560783 275.195202,90.4368276 Z M280.349456,79.6755333 C280.133487,81.4669104 278.847673,82.1876715 278.631704,83.9790486 C280.423445,87.6339791 283.484002,90.0208111 285.933648,93.0171324 C281.586277,98.7872311 273.834399,94.4546448 271.332761,90.0057744 C274.566293,87.0776197 276.421024,82.7680897 278.631704,78.8144293 C279.802535,78.5006626 279.495579,79.6695186 280.349456,79.6755333 Z M48.0920619,71.9276019 C51.6675445,73.7961676 54.1211895,76.7904839 54.9620679,81.3967389 C54.5301303,81.394734 54.4511418,81.7465938 54.1031921,81.8297971 C49.7398235,81.3265675 50.3267385,75.858206 46.3743104,74.9409648 C46.3743104,75.9454191 46.3743104,76.9478685 46.3743104,77.9553301 C44.7145506,77.7688745 44.8475313,77.4831765 43.799683,78.3853809 C43.799683,79.1001274 43.799683,79.8188836 43.799683,80.5346324 C48.602988,82.9595575 52.7383896,86.1072486 57.9666331,86.1313074 C55.4589959,80.3241181 55.1460412,72.3185572 48.9509376,70.2053938 C48.664979,70.2053938 48.3800202,70.2053938 48.0920619,70.2053938 C48.0920619,70.7807998 48.0920619,71.3521959 48.0920619,71.9276019 Z M109.913117,70.2053938 C110.017102,69.5908924 110.621014,69.4806229 110.770993,68.9152415 C110.192076,68.7799108 109.951111,68.3027449 109.055241,68.4841882 C108.935258,69.4645837 109.158226,70.103144 109.913117,70.2053938 Z M131.378011,64.1806729 C131.309021,64.6798927 131.472997,64.9465443 131.807949,65.041777 C132.046914,68.0080248 130.405152,69.0856579 129.231322,70.6354446 C128.408441,75.2637535 128.262462,80.5677133 126.227756,83.9790486 C120.648563,84.8622065 118.199918,76.7985035 113.34862,75.8030713 C112.319769,75.5895496 110.794989,76.5769622 109.913117,76.2341245 C105.826708,74.6322104 104.333924,66.844181 111.629868,66.7629826 C113.282629,74.0006673 119.259764,76.9057656 124.080067,80.9656857 C127.209614,77.7588501 128.104485,68.9934325 126.227756,64.6117262 C127.272605,63.3125518 129.994211,62.8263638 131.378011,64.1806729 Z M51.0986269,65.041777 C52.5064232,68.0441129 55.1610391,64.9164708 57.1077574,64.6117262 C58.1096124,64.754074 58.9584896,65.0528039 59.2534469,65.9018786 C58.5475491,67.4907609 56.9007873,68.1323285 57.1077574,70.6354446 C60.0463322,72.0579203 60.4242775,69.3472971 60.9711984,67.1940358 C62.1800235,67.9909831 63.5568243,68.6185164 63.9777633,70.2053938 C63.779792,71.9215872 60.538261,74.0307407 62.6899497,75.372018 C71.8156293,69.8274704 57.5196978,57.6266588 51.0986269,65.041777 Z M191.481315,62.4574624 C188.895689,59.5844425 183.676444,61.3377265 184.18637,66.3319294 C188.210788,69.3432874 192.500167,63.7045095 196.633569,65.4728302 C195.234771,67.2431559 195.273766,71.4444213 192.770128,74.510914 C191.240349,76.382487 188.380763,76.2381343 188.477749,78.8144293 C188.593732,81.9150053 194.588865,84.04922 196.633569,79.6755333 C196.4186,77.8821513 195.132786,77.1633951 194.917817,75.372018 C196.334612,71.4845193 197.824397,67.6691969 201.785824,66.3319294 C203.903517,68.5714013 201.181911,70.0409921 200.067072,71.4975511 C201.112921,72.8899533 201.102922,75.3399397 202.644699,76.2341245 C203.501575,76.2341245 204.360451,76.2341245 205.220327,76.2341245 C207.506996,71.6960361 202.176767,66.6667475 203.931513,61.1673101 C200.105067,60.2610958 195.705703,62.3441856 191.481315,62.4574624 Z M246.004425,54.7115359 C247.190254,55.4794122 250.268808,55.1686529 249.868866,52.9883254 C248.097123,53.0785459 246.101411,52.9442176 246.004425,54.7115359 Z M246.004425,59.8751528 C249.805875,61.0369916 252.970417,58.0136042 255.450059,56.4327415 C255.291082,54.7265727 255.844002,52.3086647 255.020121,51.2681222 C254.4712,51.2440635 254.426207,50.7157726 253.731307,50.837069 C253.510339,56.2112002 248.571054,56.8527678 246.004425,59.8751528 Z M224.538531,49.1158634 C225.65237,50.103276 227.444111,49.1649834 227.116158,47.3926529 C225.51239,47.2222365 224.595523,47.736493 224.538531,49.1158634 Z M211.229457,42.2300385 C212.573263,42.1408205 214.381001,42.5197463 215.093898,41.7989852 C215.188884,40.9849963 214.609968,40.8486632 214.66396,40.0767772 C212.641253,39.9133779 210.977494,40.1128653 211.229457,42.2300385 Z M240.424233,39.2146707 C238.760474,42.1167617 237.26469,44.4715153 234.84304,47.3926529 C236.687773,47.2503051 242.062996,43.7206807 244.287674,47.3926529 C241.253113,51.6841387 234.692062,49.0587238 230.9786,51.2681222 C232.29041,52.391868 234.266124,52.8499874 235.699916,53.8504319 C238.219552,49.9408792 246.677328,52.7026273 247.292239,46.1025005 C241.822031,45.3606879 242.353954,41.3729442 240.424233,39.2146707 Z M136.100328,226.880215 C135.814369,226.880215 135.52941,226.880215 135.241452,226.880215 C120.565576,234.118902 104.029968,239.488021 90.1659741,247.5417 C87.0794207,248.178255 84.305822,249.127575 82.8670302,251.416167 C100.715448,267.69795 127.03264,280.803973 157.566222,280.251624 C151.550092,261.317359 142.576391,245.35235 136.100328,226.880215 Z M185.900122,224.297906 C178.153243,242.355027 171.139258,261.146943 164.435228,280.251624 C175.593613,280.461136 186.022104,279.552916 195.774693,276.379162 C202.250756,274.273016 208.157902,270.533879 214.66396,269.062284 C223.614665,261.534891 235.956879,257.409812 242.569922,247.5417 C223.468686,240.006288 205.520283,231.312044 185.900122,224.297906 Z M162.719476,214.827766 C155.486523,218.912747 146.291853,221.030923 139.533831,225.588058 C145.773928,242.865273 153.813765,262.066189 161.859601,278.961471 C170.013421,261.164987 177.196381,242.402142 183.756432,223.007753 C176.85743,220.164807 170.534345,216.748459 162.719476,214.827766 Z M167.868731,213.537614 C173.498916,215.785105 178.598179,218.560888 184.613308,220.423439 C187.968823,215.321974 189.806557,208.699793 191.911252,202.345266 C183.611453,205.789682 174.625753,208.546418 167.868731,213.537614 Z M128.801384,200.624061 C131.446001,208.30583 134.28659,215.78711 138.247017,222.146649 C144.227152,219.962312 152.962888,216.812616 158.855035,213.106561 C149.930327,208.133409 138.201024,203.692558 128.801384,200.624061 Z M237.419668,235.489251 C233.593221,226.764934 227.271136,212.123158 223.252717,201.485165 C222.016896,198.218182 220.004187,189.846727 217.240587,190.724873 C210.145614,192.981386 202.299749,197.979599 194.917817,200.624061 C192.440176,207.755486 189.175648,214.092971 187.188936,221.715596 C204.50543,228.887119 221.638951,236.244095 239.136419,243.237182 C238.193556,241.557077 238.336535,237.579358 237.419668,235.489251 Z M126.227756,199.333908 C119.414742,195.690005 111.852836,192.799943 104.331924,189.862766 C96.5830456,208.350941 89.2341089,227.239092 82.4360926,246.678591 C91.6187639,244.847116 100.00655,239.094059 109.055241,235.489251 C118.312901,231.79723 127.485574,227.844572 135.66939,223.007753 C132.566839,215.070359 128.858376,207.742454 126.227756,199.333908 Z M105.1918,187.280457 C110.938968,190.268758 117.239057,192.705713 123.651129,195.028388 C120.814539,185.536195 116.610148,177.41435 112.918682,168.774238 C112.489744,168.774238 112.059806,168.774238 111.629868,168.774238 C109.828129,175.287152 106.71458,180.488862 105.1918,187.280457 Z M209.512706,167.05203 C209.084767,167.05203 208.65483,167.05203 208.225892,167.05203 C204.373449,176.8209 199.931092,185.994314 197.062507,196.749594 C204.360451,194.023934 211.678392,191.316318 217.670525,187.280457 C215.374857,180.112943 212.215314,173.811547 209.512706,167.05203 Z M43.799683,164.899771 C43.709696,164.3795 43.322752,164.63312 42.9408072,164.899771 C42.6768454,164.92383 42.4338806,164.963928 42.5108694,165.330825 C42.5398653,184.401422 49.2638923,204.431363 55.3920056,218.702233 C59.4724152,222.502519 61.6640981,228.194426 64.8346394,232.904936 C65.7065132,233.896359 66.8983408,234.568 67.8402045,235.489251 C70.9557537,239.844893 74.7812002,245.726264 79.4325272,247.109644 C87.1764067,228.047066 94.8682937,208.926347 101.757297,189.003667 C83.0400052,180.365561 63.3138594,172.735918 43.799683,164.899771 Z M221.531966,189.003667 C226.723215,203.56224 233.307263,218.059663 238.706481,231.614784 C240.518219,236.163899 242.010003,241.464852 245.574488,244.95538 C255.219092,239.130147 259.080533,227.506746 266.610444,219.563337 C272.088651,203.624392 281.175336,185.418908 280.349456,163.176561 C260.385345,171.425717 241.115133,180.371575 221.531966,189.003667 Z M262.318065,155.428629 C248.417076,149.910146 234.122145,143.514518 220.245153,138.212563 C219.403274,138.498262 219.315287,138.98445 218.957339,139.502716 C217.309577,141.895563 210.286594,159.036445 210.371581,161.886409 C210.479566,165.530312 213.478132,170.559601 215.093898,174.367906 C216.856643,178.522056 218.477408,182.675204 220.245153,186.419353 C238.92545,178.60526 258.094676,171.282367 275.195202,161.886409 C272.184637,157.891648 266.742425,157.185923 262.318065,155.428629 Z M110.771612,165.330825 C110.836983,159.444442 105.614739,152.095485 103.045111,145.960495 C101.729301,142.820823 101.523331,139.606971 99.1806697,137.353464 C82.3531046,144.010731 66.3944137,151.539126 49.8118131,158.445 C47.2361857,159.657963 44.6265633,160.27447 44.2296208,161.886409 C53.765241,166.134789 63.6568098,170.094464 73.4233966,174.367906 C83.2159797,178.652375 93.3095193,183.044106 103.045111,185.559251 C104.5029,178.234353 110.690004,172.642691 110.771612,165.330825 Z M197.062507,129.605533 C200.737975,139.406481 204.245468,149.376842 209.084767,158.013946 C212.241311,151.421839 215.313866,144.744524 217.240587,136.922411 C210.560554,134.711008 203.596562,130.530794 197.062507,129.605533 Z M102.185235,136.491358 C103.015115,140.376852 104.609884,144.731492 106.479614,148.972855 C108.239359,152.967616 109.964109,157.516732 112.489744,160.596256 C117.280051,149.758776 121.369459,138.218578 125.366881,126.59217 C125.276894,126.109992 124.89195,125.920529 124.510005,125.731066 C117.282051,129.530349 108.997249,132.273051 102.185235,136.491358 Z M141.68252,118.414188 C137.826078,120.128376 131.572983,121.527796 129.231322,124.00986 C127.677546,125.657887 126.120772,130.515757 124.937943,133.477995 C121.840391,141.229936 120.173632,146.478761 117.211061,154.138477 C114.013524,162.41069 113.533593,165.486204 116.782123,173.077754 C120.442593,181.633659 124.182052,189.972033 127.51457,197.179644 C139.804792,201.93326 151.641079,207.141987 164.00629,211.816408 C168.379657,209.382461 173.666892,207.742454 179.031116,205.357627 C182.294644,203.908085 191.50931,200.822546 193.629004,198.471802 C195.290763,196.6293 195.895676,192.309745 197.062507,189.43472 C198.400313,186.135659 199.440163,182.95188 200.49701,180.392627 C202.345743,175.92471 207.505996,167.326701 207.366016,162.317462 C207.299026,159.871485 205.110342,156.613525 203.931513,153.707424 C200.092069,144.237284 197.03951,135.80468 193.199066,127.451269 C180.837855,122.341785 168.515637,117.189195 155.84947,112.387462 C151.743064,114.186859 147.14473,115.985253 141.68252,118.414188 Z M136.100328,105.070584 C133.761666,109.89838 131.485995,114.788328 130.091197,120.565444 C134.046625,119.778522 137.716094,117.873868 141.253582,116.261929 C144.79207,114.647985 149.181435,113.730744 151.557091,110.666256 C146.827776,108.642311 141.051611,105.443495 136.100328,105.070584 Z M182.464619,101.626168 C181.916698,101.603111 181.871705,101.075823 181.177805,101.195115 C174.255807,104.874104 165.550067,106.761716 159.713911,111.525356 C169.944431,115.477011 181.175806,120.70679 191.054376,123.578807 C189.669577,116.486478 185.410193,108.587176 182.464619,101.626168 Z M100.468483,133.477995 C104.980831,132.437453 109.005248,129.737856 113.778558,127.882322 C118.11593,126.1952 124.278038,125.298008 127.086632,122.28665 C131.302022,117.767608 130.099196,109.936473 133.5257,103.777424 C115.867255,95.9432821 98.1588176,88.1612675 79.0015895,81.8297971 C84.8057497,98.6809715 93.4375007,116.422321 100.468483,133.477995 Z M84.5827819,141.223921 C89.2381084,139.296211 94.1903918,137.517866 97.8938559,134.338097 C97.3859294,129.829079 94.5173445,125.689966 92.7396017,121.426548 C87.0474253,107.768175 81.9921568,93.5484305 75.5680863,80.9656857 C75.1381485,80.968693 75.0571602,80.6178357 74.7102104,80.5346324 C56.6158286,99.5109996 43.7256937,126.172144 42.5108694,158.445 C56.4708495,154.096374 70.960753,146.873726 84.5827819,141.223921 Z M185.043246,99.9049622 C187.769852,109.224734 191.821265,117.211249 195.345755,125.731066 C202.907661,128.76548 210.367582,131.904149 218.098463,134.768147 C225.92733,115.786768 233.889178,96.9407193 240.424233,76.6621704 C240.138274,76.6621704 239.850316,76.6621704 239.564357,76.6621704 C220.183162,83.1991429 202.969652,91.9084233 185.043246,99.9049622 Z M244.287674,75.372018 C235.253981,94.292248 228.366977,115.366742 220.67509,135.632259 C240.210264,144.021758 260.247365,151.912037 280.349456,159.735152 C279.437588,122.167358 264.998677,94.5137893 244.287674,75.372018 Z M170.875296,73.2187567 C167.565775,64.9114586 163.222403,52.6986175 158.855035,46.5315488 C158.764048,46.0132825 158.378104,46.2689071 157.99516,46.5315488 C151.236138,65.2933918 143.13131,82.7059378 137.391141,102.487272 C144.088172,104.522244 149.577378,107.77018 156.278408,109.805152 C164.383235,105.876553 173.216957,102.681747 181.177805,98.6128049 C178.497193,90.172181 174.368791,81.9871816 170.875296,73.2187567 Z M114.635434,50.837069 C101.562325,58.9659312 86.7514682,65.3485265 78.1447135,77.9553301 C96.421069,85.7433595 116.115219,94.4035199 134.812514,100.334011 C142.5134,81.3686703 149.827342,62.0163847 156.708346,42.2300385 C141.298576,41.3358536 128.291458,46.7851685 114.635434,50.837069 Z M214.66396,53.8504319 C199.362174,45.6503958 182.023683,41.814022 162.289538,41.3669295 C162.197552,40.8456558 161.813607,41.1012804 161.430663,41.3669295 C161.406666,41.9162718 160.879742,41.9633869 161.000725,42.6610917 C168.7746,60.6911466 175.800583,79.4730385 183.756432,97.3226525 C203.271609,89.6308583 221.860919,81.008791 240.853171,72.7897084 C234.236128,64.4072265 224.233575,58.9749532 214.66396,53.8504319 Z M159.713911,38.3555715 C159.633923,37.9886751 159.880887,37.9495795 160.143849,37.9245183 C221.588958,39.7670203 267.655293,77.1714147 280.349456,133.047944 C283.045066,144.917948 284.363875,161.769122 282.925083,173.077754 C279.345601,201.22152 267.623297,224.31996 252.443494,242.806129 C231.933461,267.785163 193.080083,287.231679 149.84034,284.127093 C127.763534,282.541218 107.484468,273.152277 92.3126635,263.03656 C87.3203858,259.706423 81.5052272,256.121664 77.2858378,251.846218 C59.6023964,233.924427 47.2571827,212.238439 41.2240556,184.698147 C31.0025346,138.061194 53.6902519,91.4984215 80.2914029,69.7743406 C88.0952737,63.4047771 98.2088104,56.0187299 107.766427,51.2681222 C112.72571,48.8030992 117.983949,47.1089597 123.222191,45.6724497 C127.008643,44.6309048 132.279881,42.0726539 137.391141,40.9348738 C144.371131,39.3890969 151.861047,38.6853774 159.713911,38.3555715 Z M220.67509,42.2300385 C220.563107,43.4881125 221.64495,43.5522692 221.531966,44.8103432 C220.945051,45.6564105 218.943341,45.0860168 218.957266,46.5315488 C219.277293,47.5039247 221.363991,46.6999603 222.391842,46.9626021 C222.986756,46.4122574 222.653804,44.9316396 223.252717,44.3802924 C225.593379,44.863473 225.65537,43.0620715 227.116158,42.6610917 C228.441967,42.7633415 227.839054,44.8013212 229.691786,44.3802924 C231.39054,43.0430249 229.433823,42.6520697 229.691786,40.5068279 C231.786483,39.594599 234.49809,39.2998789 236.559792,38.3555715 C236.627782,36.7085472 234.806046,36.9561522 233.984165,36.2033127 C232.3594,37.4854455 229.436823,41.4350961 226.686221,38.7856223 C225.969324,36.1541927 229.914753,34.7517659 227.543097,33.1899498 C223.965614,34.9131603 225.976323,42.2360532 220.67509,42.2300385 Z M95.7461667,43.9512441 C97.1219676,44.3241553 97.0889724,43.2876226 97.4639181,42.6610917 C96.9149976,42.635028 96.8690042,42.1057347 96.1771043,42.2300385 C96.0401242,42.8104567 95.564193,43.0510445 95.7461667,43.9512441 Z M101.327359,31.8997974 C99.9445592,35.6790316 103.929983,37.4293083 103.902986,42.2300385 C100.435488,40.8266093 98.9896974,31.4837809 93.5984774,36.2033127 C95.3702211,38.7174558 99.5386179,39.0081661 99.1806697,43.0891376 C99.0346909,44.7481914 97.1549628,46.7190069 95.7461667,46.9626021 C93.8964343,46.2458508 92.9355734,43.0109465 94.458353,41.3669295 C93.0995496,39.4301973 91.4697855,37.7641264 91.8817258,34.0490489 C92.4996364,33.810466 92.9295742,33.3794127 93.1685397,32.7588965 C97.1429646,32.9684085 98.5127664,33.0345701 101.327359,31.8997974 Z M107.766427,31.8997974 C108.363341,34.0430342 105.788714,34.4359944 106.908552,35.7732619 C109.498177,35.7872962 108.822275,32.5263283 111.199931,32.3288457 C111.612871,33.2069914 112.076804,34.0320073 112.489744,34.9131603 C111.82384,35.5336765 110.816986,35.8173697 109.913117,36.2033127 C109.603162,37.5195287 110.65401,37.4674014 110.343055,38.7856223 C111.960821,39.1144257 112.395758,38.2613413 113.778558,38.3555715 C114.754416,38.6663308 113.380615,41.3338487 115.065371,40.9348738 C117.245056,37.4593818 113.240635,33.5057213 112.489744,30.1765869 C109.293207,29.9380039 108.114377,27.6774805 105.620738,26.7331732 C103.867992,29.3856543 107.444474,29.9400088 107.766427,31.8997974 Z M203.931513,32.7588965 C206.481144,34.6785871 210.991492,34.3648205 211.229457,30.6076401 C208.327877,28.6268001 204.311458,28.5004915 203.931513,32.7588965 Z M221.104028,32.7588965 C221.246008,37.2057621 218.067468,38.3234932 215.522836,40.0767772 C214.693956,36.7306011 219.694232,37.0824608 218.957339,33.6189981 C218.470409,31.3284012 215.686812,32.2346155 214.234022,30.1765869 C210.967495,32.4972572 211.205461,38.3295079 206.078202,38.7856223 C206.935078,35.4765369 202.855669,35.3442135 200.49701,34.0490489 C200.711979,31.6842708 202.797677,31.1920681 203.501575,29.3154829 C203.279607,28.2468718 202.456726,27.7837402 201.785824,27.163224 C201.420876,25.3638273 202.947655,25.45906 203.501575,24.5829192 C205.893229,27.7195834 212.609257,29.8507908 216.382711,28.8844296 C217.761512,30.373067 220.113172,30.8803064 221.104028,32.7588965 L221.104028,32.7588965 Z" id="Fill-9" fill="#000000" style="mix-blend-mode: overlay;"></path>
    </g>
</svg>