<?xml version="1.0" encoding="UTF-8"?>
<svg width="267px" height="268px" viewBox="0 0 267 268" version="1.1" xmlns="http://www.w3.org/2000/svg" xmlns:xlink="http://www.w3.org/1999/xlink">
    <!-- Generator: Sketch 60.1 (88133) - https://sketch.com -->
    <title>Magick Circle Deco</title>
    <desc>Created with Sketch.</desc>
    <g id="Page" stroke="none" stroke-width="1" fill="none" fill-rule="evenodd" opacity="0.796154204">
        <g id="Desktop-HD" transform="translate(-1005.000000, -106.000000)" fill="#8B764B" fill-rule="nonzero">
            <g id="Magick-Circle-Deco" transform="translate(1005.000000, 106.000000)">
                <g id="Page-1" opacity="0.203776042">
                    <path d="M176.218566,233.602889 C177.617212,237.199392 179.90711,239.902592 180.84562,243.960718 C184.471155,245.177574 185.02083,240.962246 187.610023,240.031513 C188.47143,240.477333 188.42583,241.833092 189.744056,241.816457 C190.63448,240.576313 189.696799,238.697381 189.033541,237.887253 C187.183051,237.21686 185.053163,238.0378 183.692655,237.529599 C183.958788,236.603025 185.008394,235.383674 184.049156,234.318197 C181.15901,234.564396 184.185953,237.742528 182.625639,238.244907 C180.841475,238.012848 181.020555,235.8087 180.490777,234.318197 C181.181395,232.748678 183.237495,232.550721 183.692655,230.745815 C180.696387,228.647301 180.001624,234.19593 176.218566,233.602889 Z M114.633396,108.606946 C114.510694,110.397712 116.209463,110.35862 116.413415,111.820011 C115.088557,115.053037 115.806534,117.46845 118.549935,118.250299 C120.600232,118.834189 124.398213,116.762291 124.601336,120.033578 C122.731777,122.97965 117.100717,123.855486 117.838591,128.24881 C119.819245,127.872025 121.775028,124.950075 123.889163,123.60596 C125.579642,122.532166 127.408576,121.03002 127.094357,118.607953 C126.543024,114.373495 120.984921,115.3009 118.194263,112.536983 C119.136089,111.142964 121.591802,109.620854 120.685626,107.536479 C118.632842,106.757958 117.478774,109.985162 114.633396,108.606946 Z M55.898578,93.607932 C57.5177567,93.947288 58.138732,92.1066167 57.3212665,91.1076803 C55.7020877,90.7658301 55.0786251,92.6098278 55.898578,93.607932 Z M69.0683959,106.106694 C65.4412034,109.192501 59.2074066,112.09948 53.7603998,108.606946 C52.2581202,108.597797 51.4622105,109.298965 50.2020202,108.606946 C49.3364684,106.920981 47.8449668,103.916687 50.2020202,102.89363 C53.2082374,102.85121 52.8608559,106.177394 54.8299033,107.178826 C60.2172171,107.957346 64.9155714,108.562864 65.5075292,103.251285 C65.2480295,102.201612 64.4297348,101.715036 63.7291685,101.106192 C60.4029293,104.191998 48.6068845,103.257938 53.4047276,96.82266 C56.4200646,97.0114681 56.6795643,99.9666891 58.7447841,101.106192 C60.8299016,100.580524 61.5586565,98.6907793 64.797014,99.321248 C65.4080405,95.256468 62.5543726,94.6675865 60.1691308,93.607932 C57.9505326,93.5239252 58.138732,95.8561624 55.5420767,95.3928758 C55.5312987,95.0460341 55.1051554,95.1150702 54.8299033,95.0352211 C53.0764148,91.6341808 55.1383183,88.8428156 58.3882829,89.3219059 C58.1835019,89.291962 64.591404,92.8410553 65.8648595,93.9647545 C69.3030235,96.9998238 70.3982284,100.929028 69.0683959,106.106694 Z M132.076254,66.4644826 C129.706765,58.6925762 123.592355,70.4527415 129.941392,71.4649857 C131.476006,71.2187866 132.058015,70.0177343 134.212775,70.3945188 C137.77447,72.4306518 132.597741,76.6226903 134.569275,78.9657404 C139.479872,77.2032543 139.518839,65.3407834 132.076254,66.4644826 Z M71.2032578,39.3226965 C71.2530022,41.06023 70.7663366,43.3342445 72.6284336,43.2510691 C74.596652,42.4900145 74.9705637,40.1261706 75.4779561,37.8954072 C72.8232657,36.7484189 69.7440901,36.0281202 70.1354123,31.824437 C69.6819097,31.8028115 69.6437723,31.3653091 69.0683959,31.466783 C67.2775991,34.2240465 69.8493824,37.4845209 71.2032578,39.3226965 Z M131.36491,26.4679434 C132.121025,25.6661328 131.619435,24.1132487 130.652737,23.9660283 C129.467163,24.3852321 129.997769,26.5419694 131.36491,26.4679434 Z M131.36491,22.5379072 C132.441046,20.9983312 133.023055,18.9638616 133.857103,17.1822453 C130.22079,8.17767992 121.20048,24.7553625 131.36491,22.5379072 Z M130.296235,7.89571542 C129.457214,13.7512613 136.99763,11.128742 138.841487,13.2522091 C134.877691,15.5561668 137.335891,20.8993525 138.128484,23.6083742 C137.125306,24.2704501 134.798099,23.6017202 133.857103,24.3236824 C132.463431,25.543865 133.324009,29.0264177 131.36491,29.6818396 C129.463846,28.4940953 128.992933,25.8699125 127.448371,24.3236824 C125.602856,24.1540046 123.030243,24.7096161 121.753472,23.9660283 C121.551178,21.6213147 123.085791,21.0166297 123.53349,19.3248428 C122.847018,16.7979751 120.703037,15.7349939 119.975111,13.2522091 C125.842457,14.6570411 127.274266,10.3236044 130.296235,7.89571542 Z M137.772812,265.387524 C138.581987,265.128017 140.550205,266.03047 140.264176,264.673048 C139.675533,263.761446 137.923703,264.67887 137.772812,265.387524 Z M119.975111,264.673048 C121.29002,265.324311 124.146175,265.865783 124.957008,264.315394 C124.447129,264.046738 120.836518,263.40296 119.975111,264.673048 Z M116.413415,264.315394 C117.672776,264.00016 118.248152,265.234482 118.549935,263.960235 C118.092287,263.468669 116.420877,263.337252 116.413415,264.315394 Z M110.005513,262.887273 C112.343498,263.423754 112.92302,263.69657 115.347228,264.315394 C115.203798,262.590337 110.975528,261.432536 110.005513,262.887273 Z M158.064363,262.887273 C160.175182,262.864815 162.652451,263.205835 163.04709,261.45832 C161.431227,260.435264 158.876855,263.133472 158.064363,262.887273 Z M102.886267,261.816806 C103.945821,262.215216 107.294446,263.627534 108.581166,262.17446 C107.642656,261.469965 103.755134,260.246455 102.886267,261.816806 Z M164.472265,261.45832 C165.275637,261.657941 168.413677,261.138095 169.098491,260.030199 C167.489261,259.159353 165.136352,260.231483 164.472265,261.45832 Z M92.9191559,258.246088 C94.2572795,261.201308 98.3421199,259.890464 101.462749,261.45832 C100.82685,258.382495 95.8167651,258.517239 92.9191559,258.246088 Z M172.302856,259.317387 C173.798503,258.793381 175.867868,258.844119 176.574239,257.531611 C174.307554,257.280421 173.007568,258.00072 172.302856,259.317387 Z M179.422931,256.817135 C180.1036,255.69094 183.700117,256.372146 184.405658,254.316883 C182.393499,254.564746 178.951189,255.262587 179.422931,256.817135 Z M186.185676,253.603238 C189.931427,252.719085 193.270102,251.424875 195.440614,248.96039 C191.874773,250.024202 188.638073,251.419885 186.185676,253.603238 Z M197.221462,247.531437 C197.972602,248.241754 199.193825,247.412496 199.357982,246.458474 C198.44849,246.619835 197.719735,246.960853 197.221462,247.531437 Z M200.424999,246.458474 C204.524762,245.690766 205.510529,241.799822 209.681593,241.101981 C212.01875,237.853983 216.348996,236.60053 218.224358,232.888413 C219.508591,233.084707 220.929622,231.583392 220.003547,230.745815 C214.536643,237.04635 206.63724,240.906518 200.424999,246.458474 Z M221.071393,230.388161 C226.910551,227.792258 229.381188,221.819435 234.242869,218.247053 C236.546861,212.815702 241.620786,210.174884 243.49449,204.317674 C243.419873,204.039868 243.196024,203.903461 242.789778,203.96002 C236.389338,213.610026 228.531388,221.801136 221.071393,230.388161 Z M3.92484658,129.676931 C4.3567934,124.945915 6.81665177,118.595476 4.99103393,113.965103 C5.35499679,118.765154 1.93175609,124.292989 3.92484658,129.676931 Z M7.48488427,102.89363 C6.29350696,105.067834 4.93548607,110.763684 5.70486543,112.536983 C8.18130524,112.384772 5.85492757,105.843029 8.55272974,104.321751 C8.28742653,98.5019712 12.5264747,92.4127026 12.4676105,86.8216542 C10.234918,91.6059014 8.10171427,96.4899583 7.48488427,102.89363 Z M250.972725,76.8223112 C251.528203,74.5299981 250.011001,71.4150805 247.772505,70.7521728 C248.4026,73.2091732 249.695953,75.0074246 250.972725,76.8223112 Z M13.5371142,86.1063456 C15.031932,80.5843331 19.0587375,75.6994437 19.9425289,70.7521728 C17.5349021,75.070638 12.587826,81.918466 13.5371142,86.1063456 Z M21.0103744,68.9663976 C22.3725407,69.0229569 22.1685889,67.5066699 22.7912223,66.8213049 C21.439005,66.7755585 21.1123504,67.7561961 21.0103744,68.9663976 Z M23.5033957,65.3940156 C24.7486628,63.5026077 28.942941,60.6663277 27.0617752,58.9653914 C26.0519648,61.0497662 23.2621356,63.2422689 23.5033957,65.3940156 Z M27.7756068,58.250915 C29.6493108,58.8481141 28.623748,57.2170452 29.1982953,56.4651399 C30.9410059,54.1894618 33.7681434,53.0657626 33.8261784,50.0365157 C31.879516,52.8453478 29.3748878,55.0960733 27.7756068,58.250915 Z M35.9626985,48.6067311 C36.0837431,47.6161124 39.3386821,46.503226 37.3853871,45.7513207 C37.3688057,46.942392 34.666029,47.2859062 35.9626985,48.6067311 Z M248.129006,70.3945188 C243.560816,59.260664 235.825568,51.3090988 228.54714,42.893415 C228.128458,42.9499743 227.53733,42.8335288 227.480124,43.2510691 C235.585137,51.0678902 241.554461,61.0306358 248.129006,70.3945188 Z M38.4532325,45.037676 C39.7250299,44.6475835 40.5565897,43.8116711 40.9470829,42.5382562 C39.6744565,42.9291805 39.0319253,43.9480787 38.4532325,45.037676 Z M42.0132702,41.4661258 C43.1283729,41.6324764 43.6026024,41.1558816 43.4367879,40.0380046 C42.5322697,40.0804241 42.0572111,40.5578507 42.0132702,41.4661258 Z M226.76878,42.1806021 C226.103035,40.8231802 225.537607,39.3676112 223.919257,38.9658742 C224.286537,40.6235592 225.997742,40.9279811 226.76878,42.1806021 Z M54.8299033,30.396316 C55.5022812,30.4761644 55.6150351,29.9929155 56.2525919,30.0386619 C56.1928987,29.5046761 56.3802691,28.7203323 55.898578,28.6088774 C55.7874822,29.4531073 54.6599435,29.2742803 54.8299033,30.396316 Z M223.564414,38.2522295 C219.638756,34.809601 215.727191,29.4497803 210.74861,28.2512232 C215.312655,31.0558967 219.486206,36.1520515 223.564414,38.2522295 Z M210.038095,26.8239339 C208.718211,25.4681754 207.484552,24.8842844 206.120727,24.3236824 C206.557648,25.7992134 208.639449,27.5009815 210.038095,26.8239339 Z M203.272034,22.5379072 C202.499338,22.2235043 201.413253,20.3844969 200.424999,21.4674402 C200.968041,22.0139024 202.419747,23.4861064 203.272034,22.5379072 Z M192.592749,16.4669371 C194.255869,18.3724848 197.728025,20.3578808 200.070156,20.3969732 C194.811348,17.574833 189.99112,14.3135268 183.692655,12.5393962 C185.982554,14.3210126 189.648713,16.5251599 192.592749,16.4669371 Z M82.2398721,13.9666855 C82.7149307,13.9666855 83.1891601,13.9666855 83.6642187,13.9666855 C83.6036967,13.4326997 83.7918961,12.6491877 83.3077173,12.5393962 C83.4130098,13.4767826 81.9264827,12.8188655 82.2398721,13.9666855 Z M180.84562,11.8240881 C180.804995,10.5556637 179.668337,10.3876495 178.354257,10.395967 C178.186784,11.8731615 180.019864,11.3449979 180.84562,11.8240881 Z M176.574239,10.0383129 C175.502248,8.49374632 173.024149,8.36316095 170.878509,7.89571542 C171.349422,9.98341718 174.86552,10.3111281 176.574239,10.0383129 Z M164.115765,7.18123901 C164.468949,7.49397839 167.199086,8.17601641 166.9628,6.82524843 C166.243994,5.96022461 164.353708,5.84876961 164.115765,7.18123901 Z M243.850991,202.889553 C246.976595,200.41259 248.419181,196.330344 250.259723,192.89021 C252.232915,189.2097 254.247562,185.12579 255.242449,180.391448 C255.756473,179.239469 257.447781,179.26359 257.737957,177.891196 C258.160784,172.713529 259.619952,168.588863 261.294678,164.676294 C261.452202,157.074065 264.154979,150.588881 264.503189,143.9623 C265.058668,133.322507 263.740442,123.388873 263.077185,110.392721 C261.352714,105.037891 259.097636,98.5161105 258.807461,92.8926242 C255.781346,88.1699265 254.753295,80.4163189 251.329226,77.1783018 C256.204173,89.9132823 261.866738,106.404462 262.007681,122.178671 C262.115461,133.984583 264.005746,147.222775 259.163962,157.890848 C262.264694,138.437792 261.394168,115.881464 255.955451,97.1794825 C255.466298,96.601414 254.952273,96.0474654 254.537737,95.3928758 C252.158298,82.5381225 244.547412,71.8484242 238.868265,61.1079889 C230.006308,48.9294515 219.28557,38.6148741 207.899917,28.9681949 C202.752205,25.9173224 197.229752,23.2440661 192.592749,19.6824968 C183.21511,15.0463018 172.869113,12.3688867 164.115765,8.96618244 C155.81426,8.32573206 148.899795,5.8113407 139.552002,6.46593084 C138.317513,6.27712276 137.6584,5.51274112 136.348465,5.39546386 C133.833888,7.20785513 131.111214,5.83296629 128.517045,5.75145443 C117.453072,5.41708945 106.293755,10.0815641 96.1235216,11.4689292 C90.8116536,13.8785196 85.146601,15.8248233 79.749338,18.2527123 C75.9065866,19.9810964 72.5206542,22.8090589 68.3553936,23.9660283 C57.6056384,31.2754796 48.0862269,39.8200852 38.4532325,48.2515723 C36.2611646,52.8253857 31.7261376,56.9284267 28.8426232,61.1079889 C28.1760488,62.0728232 27.5998433,63.0509655 27.0617752,63.9658946 C19.0346944,77.6399251 10.588103,94.108648 8.90757282,110.392721 C6.77353999,115.318367 7.78417947,121.19138 6.05887942,126.462203 C6.42781672,131.729699 6.69394902,140.325873 5.70486543,144.676776 C3.06344017,139.949089 6.6732222,134.176718 3.56834537,130.392239 C1.90854205,146.495822 5.72144688,159.736509 7.48488427,172.175385 C9.74659429,173.476247 8.96809509,176.310864 9.61974615,178.247187 C10.5416749,180.991142 12.7975814,183.654418 13.8919572,186.462418 C14.2691852,187.430579 14.2302188,188.741423 14.6041306,189.675482 C16.5615709,194.573679 20.605787,198.379785 21.7242059,203.602366 C26.1066836,207.434255 28.2606142,212.61109 31.6896584,217.174923 C32.9838407,218.895821 35.3384069,220.502769 37.031373,222.532248 C47.9204124,235.606584 61.8281051,244.501358 76.5449725,252.888762 C81.4348426,253.472653 84.6052162,257.63558 89.359118,257.173957 C84.5679083,252.576855 75.8618167,251.906461 71.2032578,247.173782 C68.4167449,246.279647 65.8300384,245.185891 64.797014,242.532597 C63.1720317,242.852822 62.7790513,241.937893 61.5934775,241.816457 C60.742849,239.483388 57.6313396,240.564667 57.3212665,237.173608 C58.732348,237.871449 61.5603146,238.750613 60.8821332,240.389168 C65.4337417,240.729355 68.5493965,244.623626 72.2727615,246.815297 C74.849519,248.335742 78.0770986,248.54784 80.1041811,251.103819 C81.255763,251.543817 80.3752879,249.946017 81.5293569,250.38851 C83.2181777,253.289668 86.60411,252.493679 90.0712916,253.603238 C92.2998386,254.31522 94.0400625,256.153395 96.1235216,256.817135 C97.8695482,257.372746 99.5301812,256.793846 101.106248,257.173957 C102.502406,257.509154 103.693783,258.693571 105.022787,258.959732 C106.194267,259.192623 107.799351,258.818334 108.937668,258.959732 C114.371409,259.631789 119.635191,261.201308 124.957008,261.45832 C142.889019,262.326671 161.052341,259.548614 175.862894,254.316883 C185.075548,251.063063 195.73908,245.223321 202.91802,240.389168 C208.928796,236.33936 213.830273,232.637223 219.291374,227.88791 C223.428447,224.294734 227.851549,220.096874 230.327989,216.817269 C231.040991,215.87406 231.060889,214.571533 231.751506,213.604204 C232.790334,212.149467 234.619268,211.405879 235.668045,210.033485 C237.981157,206.998417 239.639303,203.501724 241.720275,200.389302 C246.089487,193.846727 249.604755,186.671188 252.398729,179.319317 C254.131491,174.750494 255.549206,167.739643 257.737957,163.961818 C257.688212,161.530601 257.878899,159.338099 259.520463,158.604492 C257.257095,175.500736 250.79862,189.286222 243.850991,202.889553 Z M92.5626545,258.602078 C92.8710702,256.135097 90.9210913,257.087455 89.359118,257.173957 C89.6559267,258.423251 90.996537,258.626199 92.5626545,258.602078 Z M158.064363,4.68098744 C157.224513,4.69013674 157.014758,4.06715323 155.927843,4.32333336 C155.389775,6.25050664 158.16634,6.10494975 158.064363,4.68098744 Z M110.718515,4.68098744 C110.803081,5.87704924 115.369613,5.92113219 114.989897,4.32333336 C113.442019,4.31834284 111.788019,4.20688785 110.718515,4.68098744 Z M153.43648,4.32333336 C152.704409,3.39093749 150.652455,3.78352522 149.52077,3.25286638 C148.086475,4.90888795 152.958106,5.83795682 153.43648,4.32333336 Z M145.603403,3.96817454 C145.71284,3.02496587 144.860554,3.04575971 144.179885,2.89521229 C143.821726,4.09044233 144.674012,4.06715323 145.603403,3.96817454 Z M118.194263,3.96817454 C118.875761,4.85815098 121.038811,4.22601818 121.042127,3.25286638 C120.343219,2.6581625 118.227426,2.8053829 118.194263,3.96817454 Z M141.33202,3.61052046 C140.832919,3.51902755 140.926604,2.82784024 140.620676,2.54005347 C139.331468,2.91351087 136.490237,1.72992539 136.348465,3.25286638 C137.715606,4.48469358 138.543021,2.13831644 140.620676,2.89521229 C140.213601,3.62965079 141.180301,4.59947558 141.33202,3.61052046 Z M260.233465,89.6795597 C262.032553,98.2981908 264.718748,106.754631 265.920904,115.748384 C266.633906,121.045823 266.899209,126.752484 266.990407,132.178014 C267.131349,139.977368 265.697054,147.89899 264.146688,154.67612 C264.73533,160.952533 261.419039,167.659794 260.581676,172.533871 C260.540223,173.91375 259.13909,173.94203 258.807461,175.034954 C258.69139,176.335816 258.865496,177.358042 259.163962,178.247187 C254.985436,185.867714 251.917867,196.421836 246.703001,201.819086 C246.188976,204.444933 244.472795,207.610587 242.433277,207.533233 C242.988756,208.651943 243.15457,208.500563 242.789778,210.033485 C236.8702,215.937273 234.29593,222.996366 227.123623,227.531087 C203.643458,255.613587 156.166617,274.171675 110.005513,266.101169 C91.7004195,262.901413 76.9313204,255.436424 62.3039927,247.888259 C57.7109306,242.923521 50.9390657,240.500623 45.9306382,235.746319 C45.3511165,235.197361 45.2209521,233.93975 44.5054624,233.246067 C43.2883839,232.062482 41.4644242,231.563429 40.2332514,230.388161 C39.0485067,229.256144 38.5858842,227.302356 37.3853871,226.102967 C35.6269241,224.342144 33.8991368,223.270013 32.4026609,221.460117 C29.5780105,218.042442 27.04851,214.268775 24.21474,210.390308 C22.5002179,208.040604 19.6656187,204.699449 17.806838,201.461432 C17.1012972,200.231268 16.7539158,198.549463 16.0276482,197.176237 C12.6068947,190.705193 9.83281787,183.809956 7.12838306,175.748599 C6.86142168,174.954274 5.9353476,174.277226 5.70486543,173.606002 C4.50271017,170.114299 4.51763348,167.113332 3.56834537,163.247341 C-9.16620959,111.347575 14.2385096,64.183814 41.3035842,37.5377531 C46.9968256,31.9300698 52.5424921,27.6124364 59.4569574,22.8955613 C64.0292928,19.7773167 68.9697363,16.6282973 74.0511222,13.6090315 C92.8321031,5.04529556 114.174919,-0.517473059 136.704138,0.0381383996 C142.098912,0.172882496 148.550756,0.0057000061 154.503497,1.1102689 C156.185685,1.42300828 157.914302,2.76129995 159.487881,2.89521229 C166.990159,3.53566263 176.153898,6.3320185 181.914295,8.61102362 C183.694313,9.31468724 185.723054,9.67982703 187.253522,10.395967 C187.937507,10.7145287 188.331317,11.8082848 189.033541,12.1817421 C190.3128,12.8587896 192.074579,12.6200764 193.305752,13.2522091 C194.251724,13.738785 194.87187,14.9930696 195.797944,15.3948066 C196.871593,15.8639157 198.053022,15.6252023 199.001481,16.1101147 C202.981029,18.1462478 206.853627,21.8375706 211.105111,24.6805047 C213.281427,26.1369054 215.542308,26.8996235 217.512184,28.6088774 C230.284876,39.6986492 242.433277,54.063867 250.972725,69.3240518 C251.834961,70.8561421 252.622579,72.7117845 253.468234,74.3220596 C255.922288,79.0056646 257.049827,84.9177698 260.233465,89.6795597 Z M125.67001,251.818295 C127.003988,252.586004 125.565547,254.014125 126.380525,255.03136 C128.994591,254.73775 127.563612,250.399323 126.737856,249.318044 C127.140786,247.756842 127.309916,245.471182 125.67001,245.030353 C126.219685,248.735816 123.002884,251.221928 120.329125,248.603567 C120.518982,247.364254 121.282558,246.701346 121.39697,245.387176 C120.144241,245.150957 119.745458,245.143471 118.194263,244.675194 C114.645832,250.563179 120.322492,253.647321 125.67001,251.818295 Z M147.383421,252.531108 C147.577424,253.796205 146.12406,253.408608 146.316405,254.673706 C151.374577,254.642099 148.957831,249.478572 147.027749,247.888259 C147.566646,246.881005 147.888327,245.655001 147.739923,243.960718 C147.231701,243.873384 147.139674,243.371005 146.672906,243.247074 C143.60368,245.704074 144.653286,250.694596 147.383421,252.531108 Z M131.36491,251.460641 C133.485677,252.525286 134.837066,250.666316 137.41714,251.103819 C138.417831,251.525518 137.604511,253.770421 139.195501,253.603238 C140.895928,252.904566 140.001359,250.702913 139.552002,249.318044 C136.976902,248.629352 135.203516,249.036079 133.145758,249.674034 C133.059535,249.163337 132.558774,249.071845 132.433585,248.603567 C132.287667,244.646915 138.778477,247.350115 139.908503,244.675194 C135.357724,240.923154 128.294025,245.786418 131.36491,251.460641 Z M159.487881,245.030353 C159.572446,244.522152 160.074036,244.428995 160.199226,243.960718 C159.717534,243.848432 159.519386,243.450021 158.774879,243.602233 C158.676219,244.416519 158.860274,244.943851 159.487881,245.030353 Z M163.759263,241.816457 C161.210694,244.022268 162.731213,250.308662 159.487881,251.818295 C157.201299,251.076371 155.217328,252.099428 153.792982,251.818295 C154.499352,249.549271 157.328976,249.412863 158.774879,247.888259 C158.89924,246.097493 157.199641,246.134922 156.994031,244.675194 C158.231836,242.890251 160.967776,240.870753 163.759263,241.816457 Z M112.496047,238.959383 C112.147008,240.385841 113.561405,240.035673 113.20905,241.459635 C110.702763,242.215699 107.952729,243.650474 107.870651,245.745662 C107.762042,248.521223 110.885159,248.131963 111.785532,250.746165 C111.826156,252.069485 110.13319,252.837193 111.074187,253.959229 C115.834722,252.438783 113.603688,248.04962 111.42903,245.387176 C111.729155,243.783555 113.22646,243.380986 114.277724,242.532597 C112.936284,240.850791 114.320836,240.391663 114.633396,238.601729 C113.9063,237.841506 113.224802,238.702371 112.496047,238.959383 Z M120.685626,241.459635 C121.480706,242.328818 123.010345,242.461066 124.246493,242.890251 C124.702483,241.799822 126.377209,241.932071 126.380525,240.389168 C125.299415,239.450118 125.863185,236.860037 123.889163,236.816785 C123.21181,238.756435 121.484023,239.640589 120.685626,241.459635 Z M114.633396,237.529599 C115.74767,237.697613 116.222729,237.221849 116.056914,236.101478 C115.582684,236.101478 115.108455,236.101478 114.633396,236.101478 C114.633396,236.579736 114.633396,237.055499 114.633396,237.529599 Z M56.6090931,237.529599 C56.551058,234.61347 54.0091215,234.189276 52.3377111,232.888413 C51.752386,235.100046 54.8622372,236.490738 56.6090931,237.529599 Z M51.6255378,223.960369 C52.2589493,224.277267 52.5292269,224.958473 53.7603998,224.674845 C54.2279967,223.160222 51.7780872,222.74684 51.6255378,223.960369 Z M191.882234,226.460621 C191.942757,227.828024 194.170475,227.021223 194.017926,228.603218 C193.428455,229.796785 192.929353,231.083508 190.815218,230.745815 C189.318742,230.342415 189.807895,227.946964 187.966525,227.88791 C186.409526,231.418704 190.728166,231.975148 191.882234,233.960543 C191.342509,234.967797 191.021657,236.192139 191.171719,237.887253 C191.804302,239.095791 194.953948,239.591516 195.085771,237.529599 C193.792418,236.257847 191.427074,232.696278 194.730098,231.816283 C196.753035,232.765313 196.908901,235.583295 199.001481,236.459131 C200.114925,232.770304 195.668609,231.911934 195.085771,228.603218 C194.631439,226.024782 196.303679,223.034627 194.373598,221.817771 C194.017926,221.817771 193.662253,221.817771 193.305752,221.817771 C192.588604,223.12113 192.106084,224.661537 191.882234,226.460621 Z M203.628535,228.96004 C204.421128,229.949827 206.686984,227.542732 205.052881,227.173433 C204.695551,227.886246 203.478473,227.738194 203.628535,228.96004 Z M199.713654,220.389651 C202.118794,221.217245 200.282398,225.306979 202.91802,226.460621 C204.970803,225.306979 204.19645,221.316224 206.8329,220.746473 C207.674409,221.633123 206.835388,222.847483 206.8329,223.960369 C207.763949,224.089291 208.914701,224.271445 210.74861,224.317191 C211.247712,225.012538 211.91097,226.617822 211.105111,227.531087 C210.099446,227.950292 209.592054,227.60345 208.612919,227.173433 C206.19783,228.083372 206.434946,231.657418 202.561519,231.10347 C201.454706,227.900386 198.806649,224.43031 199.713654,220.389651 Z M203.985036,220.389651 C204.476676,219.81075 205.243568,219.509655 205.052881,218.247053 C204.632541,217.833672 203.79435,217.841157 202.91802,217.891063 C202.37249,219.008107 203.016679,219.862319 203.985036,220.389651 Z M62.3039927,224.317191 C62.8603004,223.804 63.5434562,223.418066 63.7291685,222.532248 C62.535304,222.197883 61.3464139,223.675078 62.3039927,224.317191 Z M58.0326108,220.746473 C57.3676945,221.094978 58.6444663,222.48567 59.1012853,222.888239 C60.674036,221.969151 63.1139967,221.915087 63.3726672,219.674342 C61.7717281,218.916615 58.6253976,219.338314 58.0326108,220.746473 Z M63.7291685,228.96004 C61.7684118,229.142195 60.1948321,228.933424 59.4569574,227.88791 C59.3980933,226.75922 60.4037583,226.696007 60.1691308,225.389322 C58.0450468,223.590239 55.6705829,222.045672 52.6933833,221.102463 C56.5435964,218.396769 66.7188042,214.295391 66.2213606,222.532248 C66.0663241,225.087395 64.0060787,225.845955 63.7291685,228.96004 Z M208.256418,217.891063 C209.606148,219.297558 211.840499,219.983755 214.308648,219.319183 C214.302844,221.107454 214.5839,222.615423 215.019163,223.960369 C218.492977,223.265023 214.012669,218.784366 216.443509,217.174923 C219.004515,217.346263 218.530285,220.559329 221.427894,220.389651 C224.338768,217.39201 220.451247,213.285643 217.512184,213.604204 C215.027454,213.874524 215.543966,216.880482 212.884302,216.817269 C209.594541,214.957467 212.234308,212.012227 212.884302,209.318177 C210.041412,209.481201 207.676067,213.111806 208.256418,217.891063 Z M227.123623,211.818429 C229.029661,212.058806 229.002301,208.428201 227.480124,208.247711 C226.687531,208.735949 226.433005,210.945919 227.123623,211.818429 Z M48.4220013,209.318177 C46.4836296,209.279085 44.3653492,209.060334 44.1506194,210.747962 C45.1894473,212.710069 48.1218771,211.495708 49.4898469,210.747962 C52.8177442,212.444739 49.0744814,214.898413 47.709828,216.103624 C50.2724914,217.937641 53.1875105,214.323671 53.7603998,211.818429 C55.1010101,212.309995 58.1752113,211.821756 59.8126296,211.460775 C59.5423519,209.065324 56.9125337,207.700417 55.1855755,207.890056 C55.2585338,209.39054 55.3140817,210.87522 54.116901,211.103953 C52.8011627,210.401121 51.6072982,209.574357 50.9133645,208.247711 C51.0742045,207.217999 52.1727257,207.129002 51.982039,205.747459 C49.6589777,204.482361 50.0146498,208.689371 48.4220013,209.318177 Z M54.8299033,205.03215 C55.4757509,205.499596 56.9763723,206.050217 57.6777677,205.390637 C58.0176875,204.217864 54.7536286,203.647281 54.8299033,205.03215 Z M103.242768,216.461278 C103.597611,216.461278 103.953283,216.461278 104.309785,216.461278 C104.409273,215.646159 104.225219,215.117996 103.597611,215.031493 C103.486515,215.516406 103.091877,215.715195 103.242768,216.461278 Z M107.870651,218.603875 C108.743665,217.21651 111.271507,217.492653 112.496047,216.461278 C113.570525,211.731926 111.712574,207.070779 108.227152,205.747459 C104.291545,207.81603 106.719069,214.268775 105.379288,217.533409 C103.747673,218.275332 101.25631,217.91352 100.749747,216.461278 C101.019195,214.231346 102.323326,213.03778 103.953283,212.174419 C103.595124,209.194246 105.033564,208.021473 105.379288,205.747459 C102.744496,203.845238 98.5469006,206.168326 97.5470395,208.247711 C97.6954435,209.798931 98.8088873,210.937602 97.9027117,212.531242 C96.5173308,213.99596 92.9664132,213.171692 92.5626545,211.460775 C96.0232042,206.783824 99.6620038,199.343787 107.51415,201.103778 C114.716304,202.718212 116.590837,213.129273 112.853378,221.102463 C110.625659,222.578826 107.885575,221.368625 107.870651,218.603875 Z M160.555727,206.105113 C152.589998,209.611787 158.766588,212.250109 163.402762,215.031493 C167.424593,214.066659 167.568852,209.211712 167.319301,203.96002 C164.719329,203.330383 163.056209,205.004702 160.555727,206.105113 Z M169.810664,217.891063 C164.109961,223.482942 160.23073,212.554531 154.859998,211.103953 C153.235845,210.902668 153.352744,212.452225 151.657291,212.174419 C150.455964,211.791812 149.702338,211.076505 149.52077,210.390308 C148.363385,206.001975 152.191213,206.841215 155.927843,206.105113 C160.589719,205.18353 166.56899,201.726761 166.9628,198.603527 C170.044462,197.968898 172.62122,198.373963 173.01503,200.389302 C173.351633,202.116023 171.241643,202.417117 170.522838,203.96002 C168.538867,208.224421 169.300785,213.73978 169.810664,217.891063 Z M221.427894,207.17558 C224.763253,206.356303 225.582377,203.011821 227.123623,200.389302 C226.489382,200.072403 226.218276,199.392029 224.987103,199.675657 C224.754133,202.933636 219.413248,202.837985 221.427894,207.17558 Z M231.039332,200.033311 C230.098335,203.12494 233.888026,205.526212 231.039332,207.17558 C229.595917,207.312819 230.647181,204.948975 230.327989,203.96002 C226.279627,204.899902 224.902537,208.519693 223.919257,212.531242 C220.961955,210.625694 217.4442,207.755312 218.936531,202.531899 C220.751371,200.662117 223.334761,199.565033 224.631431,197.176237 C227.444474,197.449052 228.932659,199.050178 231.039332,200.033311 Z M135.992793,195.031145 C132.572869,195.808002 134.847015,200.714517 136.704138,201.461432 C139.797407,200.815991 138.402079,195.330575 135.992793,195.031145 Z M138.841487,205.390637 C136.435518,203.183162 134.334648,204.775971 132.076254,202.889553 C132.984089,200.334406 132.484987,198.591881 131.721411,196.104106 C129.995283,196.514993 128.816341,197.474837 128.873547,199.675657 C129.15709,200.938259 130.654394,200.984005 131.008409,202.174245 C130.521744,203.591553 130.525059,205.497101 128.517045,205.390637 C126.773506,202.28071 125.301902,196.969131 127.448371,193.960677 C130.14949,190.177861 138.130972,190.46648 140.264176,195.748116 C141.258233,198.210107 141.768113,204.5672 138.841487,205.390637 Z M42.3706006,223.960369 C40.4181346,221.780342 38.6008075,218.260361 36.3183707,215.746801 C36.082085,215.486463 35.1543528,215.634515 34.8940239,215.389147 C32.5452613,213.175019 32.4863971,209.680822 29.9104686,209.318177 C29.9303664,208.861544 30.3664586,208.823284 30.2669698,208.247711 C24.4560001,201.381584 20.9448777,192.770438 16.3841494,186.104764 C18.6599536,192.409457 21.3096697,199.362086 25.9947588,204.674497 C25.9947588,205.271696 25.9947588,205.865567 25.9947588,206.460272 C30.46346,210.367019 33.3030336,214.846013 36.6748719,220.389651 C41.8408231,224.57254 45.6213941,230.10287 51.2698657,232.888413 C50.7168743,230.768273 49.1797737,229.583024 47.3533268,229.675349 C48.2031262,228.055093 45.6097871,226.834078 44.8619636,226.817443 C45.8120808,225.40762 43.2154255,224.903578 42.3706006,223.960369 Z M171.23584,174.678132 C167.130273,174.790418 172.206684,182.015862 173.01503,184.676643 C177.244958,185.03596 178.1188,179.483173 181.201292,179.676972 C183.254905,179.804229 183.417403,182.972379 185.473504,182.532381 C186.010742,181.036888 184.017652,179.322644 182.98214,178.247187 C178.532508,177.592596 177.427354,180.295796 175.149891,181.819569 C172.542458,180.456325 174.557105,174.583312 171.23584,174.678132 Z M84.7312352,181.104261 C85.0247271,181.999227 85.9789893,182.235446 86.5112538,182.890036 C87.9256523,182.636351 90.244568,181.361273 90.7834652,183.246858 C90.9816132,184.823864 88.6469453,185.129949 89.7156194,186.462418 C91.6448719,187.221809 93.3718295,184.966925 92.9191559,182.176391 C91.9358762,180.661768 88.7049805,181.405356 88.6477745,178.961663 C90.3034324,176.646893 95.2571406,181.617453 96.834866,178.247187 C92.518714,177.814674 92.2890608,173.284944 87.5799287,173.248347 C87.7424272,176.982921 85.1631824,177.966886 84.7312352,181.104261 Z M234.59937,174.320478 C236.679513,178.244692 249.828605,180.684225 247.416004,173.248347 C245.243833,176.935511 238.9263,175.850904 235.311544,172.890693 C235.129148,173.418025 234.784253,173.79065 234.59937,174.320478 Z M232.108007,174.320478 C232.089767,172.90816 231.377594,172.194515 229.971487,172.175385 C230.16549,173.358139 231.142966,175.026636 232.108007,174.320478 Z M175.149891,172.533871 C175.161498,174.157454 176.468117,174.935975 177.997756,175.748599 C182.121563,171.593989 175.112584,166.892086 175.149891,172.533871 Z M16.7398216,185.390288 C14.0801567,179.368391 12.4833629,172.278522 9.61974615,166.462069 C10.4206303,173.490387 12.279411,180.650955 16.7398216,185.390288 Z M238.520054,169.675134 C239.95435,168.524818 238.321077,166.681652 237.09405,166.10691 C236.314722,167.325429 237.118922,169.498801 238.520054,169.675134 Z M247.059502,172.175385 C248.145587,169.535399 244.365016,166.561047 242.076776,165.033948 C240.335723,168.212078 244.912204,170.586735 247.059502,172.175385 Z M9.61974615,166.10691 C10.2680809,164.913344 9.56751457,162.481296 8.19622854,162.176042 C7.64074991,163.550099 8.02543959,165.832431 9.61974615,166.10691 Z M59.1012853,158.248501 C56.1066751,160.445994 49.8869726,159.961082 49.1325165,163.604163 C48.1177317,168.528976 56.8205067,173.391409 54.4734021,180.033793 C55.3961599,184.178422 61.6001101,185.552479 60.8821332,178.961663 C59.3898025,177.125151 56.4449367,176.745871 56.6090931,173.248347 C59.8598867,171.248811 64.7049869,171.757845 68.3553936,171.820226 C70.2324138,168.840052 68.4822416,166.14018 66.5770328,166.10691 C64.7033287,166.071144 64.6660205,168.171323 63.016166,169.317479 C60.5156832,171.060835 58.1063982,170.832934 56.2525919,171.463404 C54.2719375,169.401487 52.336053,167.295486 51.2698657,164.319471 C54.8124929,161.685308 59.1568332,159.791404 64.0848407,160.389436 C64.7887232,159.432919 65.6534459,158.631108 65.5075292,156.82038 C63.4307024,153.380247 59.8524251,154.442396 59.1012853,158.248501 Z M244.207493,161.103912 C242.914139,160.590719 240.252816,158.73175 239.581268,160.747089 C241.66224,162.946246 245.915382,162.969536 248.842008,164.319471 C247.789086,160.182329 249.853476,157.642985 252.398729,155.390596 C248.344565,150.560602 245.650079,157.912473 244.207493,161.103912 Z M243.850991,157.178034 C243.527653,155.245039 242.143102,154.36837 240.650771,153.605652 C238.793648,155.313243 242.101648,157.98234 243.850991,157.178034 Z M208.256418,173.248347 C209.001754,174.029364 209.594541,173.982786 210.038095,172.890693 C209.583763,172.404117 208.293727,172.338409 208.256418,173.248347 Z M212.5278,153.962475 C212.283223,155.859705 211.130812,156.845333 210.74861,158.604492 C213.685185,161.907386 215.314312,155.161032 217.155683,154.67612 C219.351896,154.100546 220.898946,154.998008 221.071393,156.82038 C221.383124,160.08335 218.075125,159.091899 215.019163,160.033444 C212.336284,160.863535 210.258628,163.486054 207.899917,163.961818 C207.484552,167.980851 211.529597,170.535166 213.239973,173.606002 C212.17047,175.776878 207.356045,177.324772 206.120727,174.320478 C207.18194,171.010098 208.032568,168.424176 205.765055,165.748424 C202.522552,166.89874 201.35356,170.131766 197.221462,170.38961 C196.871593,169.907193 196.272173,169.677629 195.797944,169.317479 C195.244124,166.264112 196.942064,165.468124 198.290136,164.319471 C203.517439,165.224419 206.695274,163.344656 209.324264,160.747089 C209.262083,157.836783 206.676206,157.452513 205.409383,155.74825 C204.788407,149.818678 211.342226,150.034934 212.5278,153.962475 Z M20.6547023,150.390924 C18.2935036,152.731479 22.9288484,155.502051 24.21474,152.535185 C23.2853496,151.563697 22.4736875,150.473268 20.6547023,150.390924 Z M7.12838306,153.962475 C6.99158608,151.991218 6.99158608,152.00619 7.12838306,150.03327 C6.6732222,150.014971 6.63508487,149.576637 6.05887942,149.675616 C5.56143587,150.717803 6.0895551,153.324519 7.12838306,153.962475 Z M14.9589736,145.748907 C14.826322,149.179891 16.5665454,151.763318 14.2476294,153.605652 C14.734295,154.399977 16.9371409,154.656157 17.806838,153.962475 C18.3009652,152.180858 16.4662276,149.904348 16.3841494,147.534682 C18.9368639,144.765774 23.2787171,148.095284 25.6382576,147.534682 C24.7843128,144.333262 17.4627728,143.992243 14.9589736,145.748907 Z M119.262108,145.392084 C120.039779,144.56948 119.155987,143.397539 117.838591,143.60631 C117.744905,144.770765 118.259759,145.324713 119.262108,145.392084 Z M113.92371,141.821366 C113.92371,142.17902 113.92371,142.534179 113.92371,142.891833 C114.380529,143.383399 115.468272,143.243665 116.413415,143.249487 C116.360355,142.019323 114.81745,141.099404 113.92371,141.821366 Z M116.056914,137.89133 C116.438287,139.227127 115.173952,138.910228 115.347228,140.035591 C117.265702,142.486769 121.242763,142.231421 121.39697,145.392084 C121.525476,147.976344 118.341838,148.645905 117.126417,151.107064 C114.875485,150.404233 116.606589,147.253549 117.838591,146.820206 C117.181965,143.788464 112.616262,145.43284 112.141204,142.17902 C111.909064,140.581221 113.72639,137.357344 116.056914,137.89133 Z M131.721411,136.106386 C131.976766,137.397268 133.78829,137.126116 133.857103,138.606638 C133.130834,140.019788 130.748909,139.771925 129.229219,140.393245 C127.581023,139.782738 127.613356,137.48793 125.313509,137.535339 C125.238064,137.935413 124.91887,138.089288 124.601336,138.248984 C124.641961,141.304847 127.881976,141.146814 128.161374,143.9623 C122.98879,145.988452 127.653981,156.027719 130.296235,148.605149 C129.77309,147.702696 128.364496,147.688556 128.161374,146.464215 C133.955762,142.837769 133.906017,148.658381 136.348465,150.747746 C139.117568,150.259507 138.514832,146.326144 138.128484,143.60631 C137.304386,142.410247 135.358553,142.337885 134.925777,140.749236 C135.594838,138.446941 136.874097,136.755155 137.772812,134.678266 C136.235712,133.292564 131.671667,133.669349 131.721411,136.106386 Z M147.027749,140.749236 C146.754984,139.593098 146.042811,138.880285 144.892058,138.606638 C144.758577,140.168671 146.027888,140.324209 147.027749,140.749236 Z M146.672906,133.605303 C145.685481,139.495783 154.843417,142.906805 147.739923,146.464215 C146.667103,145.692348 147.191077,144.264227 147.739923,143.249487 C147.058425,141.373882 144.555455,142.077547 143.46937,140.393245 C141.87838,137.9246 143.163442,134.044469 146.672906,133.605303 Z M25.6382576,136.106386 C25.1963619,135.086656 18.8937521,131.372044 16.3841494,132.178014 C13.06703,133.242659 15.4365194,137.751595 13.8919572,139.677105 C13.1656897,139.291171 12.4377639,137.965356 11.4005941,138.96346 C10.9719636,141.545224 13.8869828,141.83301 15.671147,141.106058 C14.2865958,133.433962 19.452547,133.400691 23.8582387,136.820863 C24.809185,137.176854 23.3864965,139.911659 24.9269134,139.677105 C26.0138275,138.793782 26.0826405,137.126116 25.6382576,136.106386 Z M158.064363,138.606638 C158.09421,137.016325 155.245516,136.449069 154.146996,137.178517 C155.306039,137.89133 156.813293,140.113776 158.064363,138.606638 Z M155.927843,131.107547 C156.062983,132.43253 154.486086,132.041606 154.859998,133.605303 C155.180849,135.783666 158.12986,135.323706 159.487881,136.463209 C161.166753,139.481643 158.701091,143.82007 156.994031,144.319954 C155.63601,144.135304 156.528092,141.694107 155.927843,140.749236 C154.114662,139.080737 150.496589,137.756586 150.941801,133.963789 C151.159847,132.124782 152.635596,129.813338 155.927843,131.107547 Z M186.541349,134.678266 C188.751657,136.193721 190.554889,139.412608 193.305752,139.321114 C196.088119,139.227127 196.162736,136.19788 199.001481,135.391078 C199.864545,136.073948 199.548669,137.937076 201.137171,137.89133 C203.049842,132.685384 195.707575,132.361831 193.305752,135.033425 C192.554612,134.124317 191.098761,133.913052 190.815218,132.535668 C191.879747,130.627625 194.633097,130.417191 194.730098,127.534333 C194.211928,126.98288 192.906139,127.21993 191.882234,127.176679 C192.38631,130.857189 187.760086,131.625729 186.541349,134.678266 Z M17.0963228,123.249139 C17.5945954,123.343126 17.5009102,124.03265 17.806838,124.321269 C19.5901731,124.015183 20.2965429,124.015183 22.0807071,124.321269 C22.5648855,123.616773 22.4189688,122.281809 22.7912223,121.463363 C20.810568,119.780726 17.3674295,120.453614 17.0963228,123.249139 Z M25.2834145,117.892644 C24.8357154,120.419512 26.6049562,122.69519 26.7061031,124.321269 C25.7850034,125.202096 25.3837323,123.550233 24.21474,123.60596 C23.9801125,124.912645 24.9849484,124.975859 24.9269134,126.104548 C22.6676905,127.493577 22.2995823,125.427501 19.9425289,125.749389 C16.7812752,126.18107 14.827151,130.99526 12.4676105,126.104548 C13.2146049,125.108939 14.2915702,125.586366 15.3146458,126.104548 C15.362732,121.725365 17.1377763,117.049246 23.5033957,118.963112 C23.8283921,118.336801 24.1649956,117.721303 25.2834145,117.892644 Z M137.772812,116.820514 C137.825043,117.964175 139.755124,118.300204 140.264176,117.892644 C140.040326,116.338096 139.054559,116.611743 137.772812,116.820514 Z M146.672906,108.964601 C146.632281,112.491236 142.982704,112.398911 142.755538,115.035571 C142.472824,118.351772 147.505295,119.337401 148.095595,123.249139 C147.735777,124.197337 147.510269,125.280281 146.316405,125.391735 C144.074593,124.427733 144.200612,121.083251 141.33202,120.748887 C140.114942,120.598339 140.261688,121.819354 139.552002,122.178671 C140.284073,124.010193 144.018216,124.514235 142.755538,127.176679 C140.747524,127.64662 141.083299,125.761866 139.552002,125.749389 C137.692392,125.697821 135.072523,127.600041 134.212775,125.391735 C133.99307,123.266605 136.054144,123.431292 137.41714,122.893147 C137.579638,121.771112 138.68645,120.416185 138.128484,119.678419 C134.877691,119.449688 129.065063,113.350437 134.212775,111.463189 C134.668764,112.487077 133.691288,114.177201 134.925777,115.035571 C137.4445,114.748616 139.33893,115.250995 140.620676,114.320262 C140.755815,112.755734 139.602575,112.485414 139.552002,111.105534 C141.372645,109.827961 144.456795,105.531953 146.672906,108.964601 Z M238.868265,111.105534 C240.418631,109.038627 239.340836,104.486439 237.09405,103.964097 C236.837037,105.844692 237.55833,109.630003 238.868265,111.105534 Z M244.920495,103.251285 C244.945367,105.37392 248.643031,103.801074 248.485507,106.106694 C248.701066,107.993112 246.247011,107.196292 245.276996,107.894133 C243.8427,107.074856 245.293577,103.35359 242.789778,103.608106 C241.454972,104.711012 241.173087,109.070233 242.789778,110.035067 C245.658369,109.941079 247.399422,108.716738 249.903221,108.250124 C250.997597,106.550851 252.970789,100.608803 248.842008,100.750201 C248.651321,102.708981 247.540364,103.733701 244.920495,103.251285 Z M232.819352,98.2507814 C232.715717,99.6306603 236.480536,100.48404 236.381047,98.6076039 C236.024546,97.6777028 233.594535,97.6527506 232.819352,98.2507814 Z M239.224766,92.5349703 C238.876556,93.5788212 239.058952,97.2618265 241.720275,96.82266 C242.623964,96.1805461 241.363774,93.3717144 242.789778,93.2502781 C244.049969,94.0105011 244.887332,95.1874327 244.563993,97.5371364 C240.833167,100.973111 239.415453,94.6018776 236.381047,93.9647545 C235.717789,98.0220488 243.088245,101.694241 246.703001,98.2507814 C248.236786,92.6663874 240.509829,88.728865 239.224766,92.5349703 Z M26.7061031,90.7500264 C27.4547557,91.1908557 28.0939706,91.7389821 28.8426232,92.1781478 C30.17743,91.1883607 29.2215094,89.1979745 27.7756068,88.9642511 C27.664511,89.8068183 26.5378014,89.6296545 26.7061031,90.7500264 Z M206.120727,91.4645028 C199.307409,91.8995099 195.8908,104.39245 203.272034,106.822003 C208.699972,107.440827 212.628947,105.273277 217.155683,106.106694 C222.400396,101.108687 214.032567,97.3657956 212.884302,103.608106 C210.384648,104.765908 205.194653,105.678342 205.052881,101.8215 C207.73576,99.7703953 211.402748,99.2588671 215.376494,99.321248 C217.231958,96.4417167 215.249645,94.4579848 213.596474,94.3224083 C211.838011,94.1751884 211.217865,96.163911 209.324264,97.1794825 C206.625632,98.6275653 203.800982,99.321248 202.91802,99.6780706 C203.027458,98.3780399 202.859156,97.3549827 202.561519,96.4650061 C204.510668,92.2288844 212.085075,93.6395385 213.239973,88.6090922 C211.052051,85.7744761 205.776662,87.5560929 206.120727,91.4645028 Z M227.480124,85.7511867 C227.491731,87.047891 228.527243,87.3190423 229.971487,87.1793081 C230.320527,85.54408 228.200588,85.2063883 227.480124,85.7511867 Z M85.444238,86.4639995 C86.3346614,87.364789 86.8412251,86.055609 87.9356009,86.1063456 C89.3922816,88.097564 88.7422883,90.7907823 86.8677551,91.4645028 C84.7743466,92.2164079 83.9079664,90.0014485 82.2398721,90.7500264 C82.3260957,93.0464985 85.3049536,92.4376548 86.5112538,93.607932 C87.363541,95.0318948 85.3066119,99.2522127 88.2921023,99.6780706 C88.7331689,97.9796293 90.7055319,97.814942 91.1391374,96.1073522 C90.4493487,94.9661858 88.3899329,96.5215657 88.2921023,94.3224083 C89.6774824,91.2873399 92.9771911,94.1876649 95.0548474,94.680063 C95.5191281,92.3619651 91.6141959,91.5119131 90.427793,89.6795597 C90.4709044,85.8277086 88.3882745,84.1076414 86.8677551,81.8211508 C85.8869621,82.7327528 84.56625,84.8395851 85.444238,86.4639995 Z M27.4191055,81.1083379 C26.3993462,82.1097693 26.6870344,84.4203808 25.2834145,85.0358789 C24.2197144,85.1157272 24.0737976,83.718381 23.1477235,84.6790564 C23.1493817,86.5829409 24.0315149,87.5985115 25.6382576,87.8937845 C27.3660448,87.6001751 26.6422645,84.8520616 28.486122,84.6790564 C30.1434381,85.7570089 30.1268566,88.5101139 32.4026609,88.9642511 C33.7814086,85.9333412 30.1832335,82.3043997 27.4191055,81.1083379 Z M174.082046,86.4639995 C174.93599,88.3470903 176.8669,89.1489007 176.574239,92.1781478 C176.297328,92.2571647 176.16136,92.4784107 176.218566,92.8926242 C173.939445,94.7732192 167.524911,92.5050265 167.319301,96.4650061 C170.713524,95.226525 176.422518,96.3127954 178.354257,93.607932 C178.95948,90.5445833 177.10899,88.7005856 177.641254,86.8216542 C181.477373,87.3847512 183.449737,82.0016413 180.490777,80.0362074 C179.922033,83.7516511 175.254355,83.3557363 174.082046,86.4639995 Z M239.581268,83.9637487 C237.550039,84.0718763 236.75413,85.4101679 234.59937,85.3935328 C233.674955,84.7722126 233.943574,82.9556629 232.108007,83.2492723 C229.470727,90.9621239 245.66666,87.3381732 242.433277,80.0362074 C241.977287,80.0162453 241.935834,79.5779112 241.363774,79.6802168 C240.211363,80.5493995 240.451794,82.8134329 239.581268,83.9637487 Z M34.8940239,80.7506838 C36.3672859,79.1337547 37.281753,76.9553918 38.4532325,75.0373678 C33.3627269,69.2350541 28.4620789,78.2545911 34.8940239,80.7506838 Z M40.2332514,75.0373678 C39.6470971,76.7091927 40.1213266,77.8453682 40.5897526,79.3225628 C40.4313997,80.3539374 39.8394419,80.9503047 38.8089047,81.1083379 C38.0511324,81.2746886 38.1323815,80.5984729 38.0983895,80.0362074 C36.9799706,79.8673615 37.1582212,80.9985464 36.3183707,81.1083379 C36.2943276,82.5356272 39.4389999,83.4538832 37.3853871,84.6790564 C33.0708933,81.7571058 28.3675646,77.4527805 29.5531384,71.1073317 C33.0294397,71.3144383 38.1083384,70.9942132 40.2332514,75.0373678 Z M228.18981,75.0373678 C227.9129,76.2209533 231.311268,78.480828 233.531525,77.1783018 C233.284461,74.7520763 229.639858,72.0663436 228.18981,75.0373678 Z M232.463679,66.108492 C232.284599,67.5948359 231.218412,68.1928668 231.039332,69.6792106 C232.52503,72.7117845 235.062822,74.69219 237.09405,77.1783018 C233.489242,81.965876 227.061443,78.3710366 224.987103,74.6797137 C227.668324,72.2501612 229.206253,68.6744521 231.039332,65.3940156 C232.010177,65.1336767 231.755651,66.1035015 232.463679,66.108492 Z M39.8775793,59.6798678 C42.8423428,61.2302567 44.8768869,63.7147049 45.574137,67.5366131 C45.2159776,67.5349496 45.1504809,67.8268952 44.8619636,67.8959307 C41.2438909,67.4783904 41.7305565,62.941174 38.4532325,62.1801194 C38.4532325,63.0135366 38.4532325,63.8452903 38.4532325,64.6812027 C37.0769721,64.5264965 37.1872387,64.2894468 36.3183707,65.038025 C36.3183707,65.6310655 36.3183707,66.2274328 36.3183707,66.8213049 C40.3012354,68.8333171 43.7302796,71.4450236 48.0655001,71.4649857 C45.986186,66.6466367 45.7266863,60.0042518 40.5897526,58.250915 C40.3526379,58.250915 40.1163522,58.250915 39.8775793,58.250915 C39.8775793,58.7283416 39.8775793,59.2024412 39.8775793,59.6798678 Z M91.1391374,58.250915 C91.225361,57.74105 91.7261203,57.6495571 91.8504818,57.1804481 C91.3704481,57.0681613 91.1706417,56.6722465 90.427793,56.8227939 C90.328304,57.636249 90.5131874,58.1660761 91.1391374,58.250915 Z M108.937668,53.2520753 C108.880462,53.6662887 109.016429,53.8875352 109.294169,53.9665518 C109.492317,56.427711 108.13098,57.3218462 107.157649,58.6077373 C106.475322,62.4479441 106.354277,66.8487528 104.667114,69.6792106 C100.040889,70.4119856 98.010491,63.7213589 93.9878309,62.8954276 C93.1347153,62.7182641 91.8703791,63.5375414 91.1391374,63.2530816 C87.7507175,61.9239393 86.5129121,55.4620449 92.5626545,55.3946729 C93.9331116,61.3999345 98.8893074,63.8103566 102.886267,67.178959 C105.481264,64.518179 106.223284,57.2453248 104.667114,53.6097295 C105.533495,52.5317767 107.790231,52.1283762 108.937668,53.2520753 Z M42.3706006,53.9665518 C43.5379348,56.457654 45.7391225,53.8625826 47.3533268,53.6097295 C48.1840575,53.7278385 48.8879401,53.9757011 49.1325165,54.6801965 C48.5471913,55.9985261 47.1817087,56.5308484 47.3533268,58.6077373 C49.7899711,59.7879958 50.1033605,57.5389338 50.5568633,55.7523269 C51.559212,56.4135711 52.700845,56.9342489 53.0498845,58.250915 C52.8857281,59.6748773 50.1978748,61.424887 51.982039,62.5377734 C59.5489845,57.9373439 47.6949047,47.8140698 42.3706006,53.9665518 Z M158.774879,51.8222908 C156.630897,49.4384848 152.303138,50.893222 152.725965,55.0370188 C156.062983,57.5356069 159.619704,52.8569924 163.04709,54.3242059 C161.887217,55.7930829 161.919551,59.2789626 159.843553,61.8232971 C158.575072,63.3761812 156.203925,63.2564086 156.284345,65.3940156 C156.380517,67.9666298 161.351637,69.7374333 163.04709,66.108492 C162.868839,64.6204847 161.802652,64.0241173 161.624401,62.5377734 C162.799197,59.3122327 164.034516,56.1465782 167.319301,55.0370188 C169.075277,56.8951565 166.818541,58.1145074 165.894125,59.3230455 C166.761335,60.4783513 166.753044,62.5111574 168.031474,63.2530816 C168.741989,63.2530816 169.454163,63.2530816 170.167166,63.2530816 C172.063254,59.4877327 167.643468,55.3148246 169.098491,50.7518239 C165.92563,49.9999185 162.27771,51.7283026 158.774879,51.8222908 Z M203.985036,45.3953301 C204.968316,46.0324535 207.52103,45.7746098 207.189401,43.9655455 C205.720285,44.0404034 204.065456,43.9289483 203.985036,45.3953301 Z M203.985036,49.6796933 C207.13717,50.6436958 209.761184,48.1351267 211.817285,46.8234512 C211.685462,45.4078065 212.14394,43.4016165 211.460784,42.5382562 C211.005622,42.5182942 210.968314,42.0799599 210.392109,42.1806021 C210.208884,46.6396336 206.113265,47.1719559 203.985036,49.6796933 Z M186.185676,40.7524811 C187.109263,41.5717584 188.594962,40.793237 188.323025,39.3226965 C186.993193,39.1812984 186.232934,39.607988 186.185676,40.7524811 Z M175.149891,35.0391651 C176.264165,34.965139 177.763128,35.2795418 178.354257,34.6815109 C178.433019,34.006127 177.952986,33.8930085 177.997756,33.2525582 C176.320542,33.1169823 174.940966,33.2825012 175.149891,35.0391651 Z M199.357982,32.53725 C197.978405,34.9451769 196.738113,36.8989663 194.730098,39.3226965 C196.259737,39.2045875 200.716832,36.2759827 202.561519,39.3226965 C200.045283,42.883434 194.604909,40.7050711 191.525734,42.5382562 C192.613477,43.4706521 194.251724,43.8507635 195.440614,44.6808537 C197.529877,41.4370143 204.543002,43.7284957 205.052881,38.2522295 C200.517026,37.6367318 200.958092,34.3280156 199.357982,32.53725 Z M112.853378,188.247361 C112.616262,188.247361 112.379977,188.247361 112.141204,188.247361 C99.972077,194.253454 86.2608741,198.708327 74.7649537,205.390637 C72.2056066,205.9188 69.9057592,206.706471 68.7127238,208.605365 C83.5124988,222.114708 105.334518,232.989055 130.652737,232.530759 C125.664207,216.820595 118.223281,203.574086 112.853378,188.247361 Z M154.146996,186.104764 C147.723341,201.087143 141.907397,216.679197 136.348465,232.530759 C145.600915,232.704596 154.248142,231.951026 162.334916,229.317695 C167.704819,227.57018 172.602981,224.467739 177.997756,223.246725 C185.419614,217.001086 195.653685,213.57842 201.137171,205.390637 C185.298569,199.138344 170.415887,191.924544 154.146996,186.104764 Z M134.925777,178.247187 C128.928266,181.636583 121.304114,183.394079 115.700413,187.175231 C120.874655,201.510505 127.541227,217.441915 134.212775,231.460292 C140.973862,216.694169 146.929918,201.126235 152.369464,185.034297 C146.648863,182.675444 141.405808,179.840827 134.925777,178.247187 Z M139.195501,177.17672 C143.864008,179.041511 148.092279,181.344638 153.079979,182.890036 C155.862347,178.657242 157.386182,173.162677 159.13138,167.89019 C152.249248,170.748095 144.798373,173.035418 139.195501,177.17672 Z M106.801148,166.462069 C108.994044,172.835797 111.34944,179.043175 114.633396,184.31982 C119.592079,182.507429 126.835687,179.894059 131.721411,176.819066 C124.32111,172.692736 114.595259,169.008067 106.801148,166.462069 Z M196.866619,195.390462 C193.693758,188.15171 188.451532,176.003116 185.119489,167.176546 C184.094755,164.46586 182.425832,157.519885 180.134276,158.248501 C174.251177,160.120778 167.745444,164.267903 161.624401,166.462069 C159.56996,172.379165 156.863037,177.637512 155.215671,183.962166 C169.574378,189.912532 183.781366,196.016772 198.290136,201.819086 C197.508321,200.425067 197.626878,197.124669 196.866619,195.390462 Z M104.667114,165.391602 C99.017814,162.368178 92.7475379,159.970231 86.5112538,157.533193 C80.0859415,172.873227 73.992258,188.545129 68.3553936,204.674497 C75.9695962,203.154883 82.9246859,198.381448 90.427793,195.390462 C98.1041757,192.327113 105.710088,189.047509 112.496047,185.034297 C109.923435,178.448471 106.848405,172.368352 104.667114,165.391602 Z M87.2242565,155.390596 C91.9897654,157.870053 97.2137522,159.892047 102.530595,161.81922 C100.178515,153.943344 96.6922656,147.204476 93.6313295,140.035591 C93.2756573,140.035591 92.9191559,140.035591 92.5626545,140.035591 C91.068666,145.439495 88.4869343,149.755464 87.2242565,155.390596 Z M173.726374,138.606638 C173.37153,138.606638 173.01503,138.606638 172.659358,138.606638 C169.464941,146.712078 165.781371,154.323456 163.402762,163.247341 C169.454163,160.985803 175.522145,158.739236 180.490777,155.390596 C178.587226,149.443556 175.967357,144.215154 173.726374,138.606638 Z M36.3183707,136.820863 C36.2437541,136.389183 35.9229031,136.599617 35.6061973,136.820863 C35.3873221,136.840825 35.1858575,136.874095 35.2496961,137.178517 C35.2737392,153.001799 40.8492523,169.621069 45.9306382,181.461915 C49.3140834,184.615093 51.1314105,189.33779 53.7603998,193.246201 C54.483351,194.068806 55.4716056,194.62608 56.2525919,195.390462 C58.8359821,199.004431 62.0080138,203.884331 65.8648595,205.03215 C72.2860267,189.215522 78.664082,173.350653 84.3763922,156.82038 C68.8561534,149.653159 52.4993803,143.322681 36.3183707,136.820863 Z M183.692655,156.82038 C187.9972,168.899939 193.456644,180.928761 197.933635,192.175734 C199.435915,195.950232 200.672891,200.348546 203.628535,203.244712 C211.625769,198.411391 214.827647,188.767207 221.071393,182.176391 C225.613881,168.951508 233.148493,153.846029 232.463679,135.391078 C215.909587,142.235579 199.930871,149.658149 183.692655,156.82038 Z M217.512184,128.962454 C205.985588,124.383651 194.132338,119.077061 182.625639,114.677916 C181.927559,114.914967 181.854601,115.318367 181.557794,115.748384 C180.191482,117.73378 174.368076,131.955936 174.438547,134.320612 C174.528087,137.344036 177.014476,141.516944 178.354257,144.676776 C179.815912,148.123563 181.159838,151.569519 182.625639,154.67612 C198.115202,148.1926 214.010182,142.116639 228.18981,134.320612 C225.693472,131.006073 221.180831,130.420518 217.512184,128.962454 Z M91.8514992,137.178517 C91.9052002,132.29446 87.5749544,126.196873 85.444238,121.106541 C84.3531782,118.501488 84.1823894,115.834886 82.2398721,113.965103 C68.2865805,119.48878 55.053753,125.73525 41.3035842,131.465201 C39.1678931,132.471623 37.0040137,132.983152 36.6748719,134.320612 C44.5817371,137.845583 52.7837522,141.13101 60.8821332,144.676776 C69.0020701,148.231692 77.3715579,151.875605 85.444238,153.962475 C86.6530258,147.88485 91.7833263,143.245329 91.8514992,137.178517 Z M163.402762,107.536479 C166.450433,115.668535 169.35882,123.941157 173.37153,131.107547 C175.988913,125.637935 178.536653,120.097624 180.134276,113.607449 C174.595242,111.772601 168.820752,108.304188 163.402762,107.536479 Z M84.7312352,113.249795 C85.4193655,116.473673 86.7417361,120.086811 88.2921023,123.60596 C89.7512697,126.920499 91.1814196,130.694997 93.2756573,133.250144 C97.2477442,124.258056 100.638651,114.682907 103.953283,105.036228 C103.878667,104.636154 103.559474,104.478953 103.242768,104.321751 C97.2494025,107.474098 90.3797065,109.749776 84.7312352,113.249795 Z M117.48209,98.2507814 C114.284357,99.6730798 109.099337,100.834208 107.157649,102.89363 C105.86927,104.261033 104.578404,108.291712 103.597611,110.749544 C101.029144,117.181495 99.64708,121.536557 97.1905382,127.891987 C94.5391643,134.755619 94.1412091,137.307439 96.834866,143.60631 C99.8701004,150.705327 102.970832,157.623854 105.734131,163.604163 C115.925092,167.54834 125.739652,171.870132 135.992793,175.748599 C139.619157,173.729101 144.003292,172.368352 148.451267,170.38961 C151.15736,169.186894 158.798092,166.626756 160.555727,164.676294 C161.933645,163.147531 162.435234,159.563504 163.402762,157.178034 C164.512061,154.440733 165.374297,151.799083 166.250626,149.675616 C167.783582,145.96849 172.062425,138.834538 171.946355,134.678266 C171.890807,132.648786 170.075967,129.945587 169.098491,127.534333 C165.914852,119.676756 163.383693,112.680044 160.199226,105.749041 C149.949402,101.509593 139.73191,97.2343785 129.229219,93.2502781 C125.824218,94.7432762 122.011313,96.2354421 117.48209,98.2507814 Z M112.853378,87.1793081 C110.914176,91.1850336 109.027207,95.2423279 107.870651,100.035724 C111.150462,99.3827984 114.193159,97.8024663 117.126417,96.4650061 C120.060505,95.1258823 123.700134,94.3648278 125.67001,91.8221567 C121.748497,90.1428463 116.958945,87.4887203 112.853378,87.1793081 Z M151.298302,84.3214026 C150.84397,84.3022717 150.806662,83.8647695 150.231286,83.9637487 C144.491616,87.0162844 137.272882,88.5824764 132.433585,92.5349703 C140.916656,95.8137429 150.229628,100.153002 158.420865,102.535976 C157.2726,96.6513192 153.74075,90.0970996 151.298302,84.3214026 Z M83.3077173,110.749544 C87.0493226,109.886184 90.3863392,107.646271 94.3443323,106.106694 C97.9408488,104.706853 103.050423,103.962434 105.379288,101.463846 C108.874658,97.7143001 107.877284,91.2166401 110.718515,86.1063456 C96.0762642,79.6061907 81.3925599,73.149287 65.5075292,67.8959307 C70.3202956,81.8777101 77.4776792,96.5980868 83.3077173,110.749544 Z M70.1354123,117.176504 C73.9955744,115.577042 78.1019708,114.101511 81.1728557,111.463189 C80.7516868,107.72196 78.3730776,104.28765 76.8989865,100.750201 C72.1790763,89.417557 67.9872853,77.6191312 62.6604939,67.178959 C62.3039927,67.1814543 62.2368378,66.8903405 61.9491496,66.8213049 C46.9454231,82.5664021 36.2570193,104.687723 35.2496961,131.465201 C46.8252075,127.857053 58.8401275,121.864268 70.1354123,117.176504 Z M153.43648,82.8932813 C155.697362,90.6260951 159.056763,97.2526772 161.979244,104.321751 C168.24952,106.839469 174.435231,109.44369 180.84562,111.820011 C187.337258,96.0707549 193.939163,80.4337857 199.357982,63.6082405 C199.120867,63.6082405 198.882094,63.6082405 198.644979,63.6082405 C182.574237,69.0321062 168.300923,76.2583822 153.43648,82.8932813 Z M202.561519,62.5377734 C195.070848,78.2362925 189.360195,95.7222503 182.98214,112.536983 C199.180561,119.497929 215.795175,126.044662 232.463679,132.535668 C231.707565,101.364867 219.734928,78.42011 202.561519,62.5377734 Z M141.688522,60.7511665 C138.944292,53.8584239 135.3428,43.7251687 131.721411,38.6082201 C131.645965,38.1782034 131.325943,38.3903006 131.008409,38.6082201 C125.403878,54.175322 118.683415,68.6228834 113.92371,85.0358789 C119.476838,86.7243387 124.028447,89.4192206 129.584891,91.1076803 C136.305353,87.8480378 143.63021,85.197239 150.231286,81.8211508 C148.008542,74.8177849 144.585302,68.026516 141.688522,60.7511665 Z M95.0548474,42.1806021 C84.2147229,48.9252928 71.9336708,54.2210684 64.797014,64.6812027 C79.9516317,71.143097 96.2818741,78.3286171 111.785532,83.2492723 C118.171049,67.513324 124.235715,51.4563192 129.941392,35.0391651 C117.163726,34.2972408 106.378321,38.8186537 95.0548474,42.1806021 Z M177.997756,44.6808537 C165.309629,37.8771086 150.932681,34.6939873 134.569275,34.3230251 C134.493001,33.8905132 134.174637,34.1026104 133.857103,34.3230251 C133.837204,34.7788261 133.400283,34.8179185 133.500601,35.3968191 C139.94664,50.3567408 145.772533,65.9404778 152.369464,80.7506838 C168.551303,74.3686378 183.96542,67.2147244 199.713654,60.395176 C194.226851,53.4400517 185.932809,48.9327785 177.997756,44.6808537 Z M132.433585,31.824437 C132.367259,31.5200153 132.57204,31.4875768 132.790086,31.466783 C183.739912,32.9955463 221.937774,64.0307713 232.463679,110.392721 C234.698859,120.241517 235.792406,134.223296 234.59937,143.60631 C231.63129,166.957794 221.911243,186.123063 209.324264,201.461432 C192.317497,222.18707 160.100566,238.32226 124.246493,235.746319 C105.94057,234.430484 89.1253197,226.640279 76.5449725,218.247053 C72.4054131,215.483967 67.5835269,212.509616 64.0848407,208.962187 C49.4218629,194.092094 39.1853037,176.098767 34.1826796,153.247998 C25.7070706,114.552322 44.5195567,75.9181949 66.5770328,57.8932609 C73.0479443,52.608298 81.4340136,46.4799369 89.359118,42.5382562 C93.4713185,40.4929739 97.8314111,39.0873102 102.174922,37.8954072 C105.31462,37.0312151 109.685491,34.9085797 113.92371,33.9645393 C119.711466,32.6819751 125.922048,32.098084 132.433585,31.824437 Z M182.98214,35.0391651 C182.889284,36.0830159 183.786341,36.1362481 183.692655,37.180099 C183.205989,37.8820991 181.546186,37.4088313 181.557673,38.6082201 C181.823097,39.4150211 183.553371,38.7479547 184.405658,38.9658742 C184.898956,38.5092414 184.622875,37.2807412 185.119489,36.8232767 C187.060348,37.2241819 187.111751,35.7295206 188.323025,35.3968191 C189.422376,35.481658 188.922445,37.1726133 190.458717,36.8232767 C191.867311,35.7137173 190.244816,35.3893334 190.458717,33.6093804 C192.195624,32.8524846 194.444068,32.6079491 196.153616,31.824437 C196.209993,30.4578658 194.699423,30.6633089 194.017926,30.0386619 C192.670683,31.1024749 190.247304,34.3795844 187.966525,32.1812594 C187.372079,29.997906 190.6436,28.8342825 188.67704,27.5384104 C185.710618,28.9681949 187.377883,35.0441556 182.98214,35.0391651 Z M79.3920078,36.4672861 C80.5328116,36.7766985 80.5054523,35.9166652 80.8163544,35.3968191 C80.3611937,35.3751935 80.3230563,34.9360276 79.749338,35.0391651 C79.6357552,35.5207505 79.2411166,35.7203713 79.3920078,36.4672861 Z M84.0198908,26.4679434 C82.8732836,29.6036547 86.1779673,31.0558967 86.1555816,35.0391651 C83.2803581,33.8747099 82.0815193,26.1227656 77.6111598,30.0386619 C79.0802765,32.1247002 82.5366801,32.3659087 82.2398721,35.7519779 C82.1188275,37.1285303 80.560171,38.763758 79.3920078,38.9658742 C77.8582235,38.3711703 77.0614848,35.6871011 78.3241623,34.3230251 C77.1974526,32.716077 75.8460644,31.3337024 76.1876422,28.2512232 C76.7000091,28.0532659 77.0565103,27.6956118 77.2546587,27.1807562 C80.5502222,27.3545928 81.6860516,27.4094885 84.0198908,26.4679434 Z M89.359118,26.4679434 C89.8540747,28.2462327 87.7192132,28.5722802 88.6477745,29.6818396 C90.7950722,29.6934842 90.2346193,26.9877894 92.206154,26.8239339 C92.5485607,27.5525501 92.9332505,28.2370835 93.2756573,28.9681949 C92.7234947,29.4830505 91.8886188,29.7184368 91.1391374,30.0386619 C90.882125,31.1307545 91.7534803,31.0875033 91.4956388,32.1812594 C92.8370783,32.4540746 93.1977248,31.7462522 94.3443323,31.824437 C95.1535064,32.0822807 94.0143609,34.2955772 95.411348,33.9645393 C97.2187266,31.0808493 93.8982905,27.8004127 93.2756573,25.0381588 C90.6251126,24.8402014 89.6476356,22.9645968 87.5799287,22.1810849 C86.1265648,24.3819051 89.092157,24.8418649 89.359118,26.4679434 Z M169.098491,27.1807562 C171.212626,28.7735645 174.952573,28.5132257 175.149891,25.3958128 C172.743923,23.7522676 169.413538,23.6474666 169.098491,27.1807562 Z M183.337812,27.1807562 C183.455541,30.8704156 180.819919,31.797821 178.709929,33.2525582 C178.022628,30.4761644 182.16882,30.7681099 181.557794,27.8944009 C181.154035,25.9938437 178.845897,26.7457491 177.641254,25.0381588 C174.932674,26.9636685 175.129994,31.8028115 170.878509,32.1812594 C171.589024,29.4356405 168.206409,29.325849 166.250626,28.2512232 C166.428877,26.2891163 168.158322,25.8807252 168.741989,24.3236824 C168.557935,23.4370329 167.875608,23.0527628 167.319301,22.5379072 C167.016689,21.0449093 168.282683,21.1239259 168.741989,20.3969732 C170.725131,22.9995305 176.294011,24.7678388 179.422931,23.9660283 C180.566223,25.2011825 182.516202,25.6220499 183.337812,27.1807562 L183.337812,27.1807562 Z" id="Fill-9" style="mix-blend-mode: overlay;"></path>
                </g>
            </g>
        </g>
    </g>
</svg>